ply
format ascii 1.0
element vertex 1556
property float x
property float y
property float z
end_header
-18.930872 -37.035459 -7.624520
-20.402311 -35.888522 -7.417707
-22.381073 -35.697060 -7.175323
-24.359835 -35.505597 -6.932938
-26.338597 -35.314135 -6.690554
-28.102331 -34.717698 -6.463247
-29.788798 -33.975736 -6.241357
-31.699169 -33.655469 -6.003768
-33.238998 -32.637337 -5.792159
-35.217760 -32.445875 -5.549775
-36.915059 -31.724314 -5.327125
-38.667961 -31.107476 -5.100577
-40.153165 -29.986463 -4.892798
-42.118162 -29.769077 -4.651379
-43.589601 -28.622140 -4.444566
-45.369055 -28.055309 -4.216156
-46.988108 -27.186383 -3.998992
-48.511240 -26.136805 -3.788554
-49.982679 -24.989868 -3.581740
-51.845266 -24.579607 -3.347502
-53.432880 -23.651469 -3.132543
-54.724641 -22.166133 -2.938327
-55.984962 -20.621585 -2.746315
-57.847197 -20.210660 -2.512101
-59.223068 -18.883734 -2.311988
-60.483389 -17.339186 -2.119976
-62.102442 -16.470261 -1.902813
-63.362763 -14.925713 -1.710801
-64.530521 -13.917900 -1.544089
-65.589729 -12.429568 -1.377685
-66.406453 -11.195614 -1.247091
-67.953830 -10.191696 -1.034953
-68.558458 -8.558290 -0.919231
-69.818779 -7.013742 -0.727219
-71.079101 -5.469194 -0.535207
-71.612053 -3.700796 -0.424510
-72.332119 -1.989983 -0.292895
-73.405327 -0.387850 -0.121801
-74.995600 0.535277 0.093344
-74.886334 2.455975 0.131047
-75.362916 4.241722 0.235442
-75.522193 6.125120 0.304365
-76.354449 7.801406 0.448523
-76.158051 9.794264 0.477684
-76.039988 11.763014 0.515603
-76.793909 13.463408 0.651002
-76.597511 15.456266 0.680164
-76.401113 17.449125 0.709325
-76.204714 19.441983 0.738487
-76.008316 21.434841 0.767648
-75.336385 23.172834 0.733035
-74.668104 24.912784 0.698912
-74.471706 26.905642 0.728074
-74.071790 28.789423 0.729941
-73.131495 30.383584 0.659338
-72.335496 32.055082 0.608086
-70.843868 33.353753 0.463544
-70.647470 35.346611 0.492705
-69.511009 36.221947 0.379560
-68.417289 37.733879 0.288381
-67.104791 39.128556 0.167862
-65.566720 40.402335 0.017091
-64.038435 41.681358 -0.132368
-63.160503 43.308943 -0.194608
-61.402386 43.851099 -0.391123
-60.491472 45.341734 -0.460941
-58.776123 46.026083 -0.648566
-57.735110 47.084156 -0.745429
-56.149859 48.201068 -0.906008
-54.399970 48.770577 -1.100813
-52.853672 50.017002 -1.253295
-51.315601 51.290782 -1.404066
-49.708451 52.334880 -1.569198
-47.799369 52.375092 -1.797096
-46.261298 53.648871 -1.947868
-44.394550 53.829839 -2.166966
-42.726979 54.673049 -2.344658
-40.986949 55.275337 -2.537413
-39.080648 55.324797 -2.764734
-37.413078 56.168007 -2.942426
-35.712600 56.901802 -3.126959
-33.766746 56.819755 -3.362502
-32.099176 57.662965 -3.540194
-30.431606 58.506175 -3.717886
-28.452844 58.314713 -3.960270
-26.701971 58.880954 -4.155280
-24.806512 58.966461 -4.380346
-23.138942 59.809671 -4.558038
-21.160180 59.618209 -4.800422
-19.181418 59.426747 -5.042806
-17.251252 59.396858 -5.275088
-15.535086 60.078494 -5.462883
-13.556324 59.887032 -5.705267
-11.577562 59.695570 -5.947651
-9.598801 59.504107 -6.190035
-7.620039 59.312645 -6.432419
-5.641277 59.121183 -6.674803
-3.662515 58.929720 -6.917187
-1.683753 58.738258 -7.159571
0.295009 58.546796 -7.401955
2.273771 58.355333 -7.644339
3.745210 57.208397 -7.851152
5.723971 57.016934 -8.093536
7.702733 56.825472 -8.335920
9.527039 56.343112 -8.567475
11.152934 55.487073 -8.785118
13.131696 55.295611 -9.027502
14.742929 54.411958 -9.244117
16.581897 53.957212 -9.476700
18.339766 53.349729 -9.703596
20.032097 52.618813 -9.925898
21.577872 51.611878 -10.137923
23.482298 51.280414 -10.375095
25.174710 50.549649 -10.597402
26.932499 49.942015 -10.824293
28.412815 48.811798 -11.031729
29.875377 47.648142 -11.237921
31.346816 46.501205 -11.444735
32.911242 45.529399 -11.658068
34.289693 44.207332 -11.858362
36.149348 43.791548 -12.092395
37.409669 42.247000 -12.284407
39.028722 41.378074 -12.501570
40.289044 39.833526 -12.693582
41.646888 38.472649 -12.892431
43.168418 37.420053 -13.102757
44.428739 35.875505 -13.294768
45.689061 34.330957 -13.486780
46.852854 33.321924 -13.653049
47.841066 31.693634 -13.814641
49.389420 30.691557 -14.026847
50.435724 29.192538 -14.191987
51.253393 27.511762 -14.334513
52.100237 25.839966 -14.480301
53.046666 24.198816 -14.637222
53.764751 22.487393 -14.768615
54.597007 20.811107 -14.912773
55.372893 19.117472 -15.050628
55.905845 17.349074 -15.161325
57.093777 15.782248 -15.345244
56.897379 13.789390 -15.374406
56.700980 11.796532 -15.403567
56.582917 9.827782 -15.441486
57.336839 8.127388 -15.576885
57.140440 6.134529 -15.606047
56.944042 4.141671 -15.635208
56.747644 2.148813 -15.664370
56.551245 0.155955 -15.693531
55.407432 -1.329129 -15.595634
55.211034 -3.321988 -15.624795
54.812943 -5.206747 -15.626907
53.870822 -6.799930 -15.556059
53.674424 -8.792788 -15.585221
52.530611 -10.277873 -15.487324
51.340355 -11.738066 -15.383198
50.242985 -13.248041 -15.291530
49.099171 -14.733126 -15.193633
47.845944 -15.545880 -15.064828
46.868991 -17.120394 -14.989309
46.109650 -18.811539 -14.942974
44.571579 -20.085318 -14.792203
43.033509 -21.359097 -14.641431
41.495438 -22.632876 -14.490660
39.957367 -23.906656 -14.339889
38.419297 -25.180435 -14.189118
36.661180 -25.722590 -13.992603
35.123110 -26.996369 -13.841831
34.096536 -28.102450 -13.747970
32.276800 -28.439730 -13.538645
30.518684 -28.981885 -13.342129
28.980613 -30.255664 -13.191358
27.115064 -30.440619 -12.972509
25.464381 -31.339975 -12.798328
23.779924 -32.127039 -12.617125
22.168194 -33.155909 -12.451041
20.444784 -33.813460 -12.261741
18.466022 -33.621997 -12.019357
16.798452 -34.465208 -11.841665
15.130882 -35.308418 -11.663973
13.152120 -35.116956 -11.421589
11.399449 -35.677216 -11.226206
9.505788 -35.768703 -11.001513
7.838218 -36.611914 -10.823821
5.859456 -36.420451 -10.581437
4.146938 -37.114213 -10.394400
2.213125 -37.072199 -10.161360
0.410659 -37.466899 -9.955626
-1.433207 -37.723947 -9.741284
-3.411969 -37.532485 -9.498900
-5.390731 -37.341022 -9.256516
-7.061899 -38.172272 -9.078076
-9.037063 -37.992770 -8.836440
-11.015825 -37.801308 -8.594056
-12.994587 -37.609846 -8.351672
-14.973349 -37.418383 -8.109288
-16.952111 -37.226921 -7.866904
8.652569 -41.473256 74.732931
7.001465 -40.558062 74.748487
5.146448 -40.217980 74.748205
3.337666 -39.747496 74.751514
1.384642 -39.683827 74.743619
-0.326134 -38.936931 74.754540
-2.338830 -39.041559 74.742011
-3.989934 -38.126365 74.757567
-5.627602 -37.173276 74.774166
-7.292142 -36.295978 74.788679
-8.943246 -35.380785 74.804235
-10.631100 -34.569240 74.816936
-12.384161 -33.941603 74.824573
-13.810458 -33.158310 74.837823
-14.962677 -31.689601 74.870100
-16.890513 -31.700076 74.860415
-17.758935 -30.051712 74.898715
-19.054483 -28.606810 74.929678
-20.062796 -27.025083 74.965575
-21.218454 -25.513544 74.998940
-22.300439 -23.966911 75.033572
-23.173140 -22.320585 75.071798
-24.464409 -20.873644 75.102835
-24.569324 -18.861581 75.154250
-25.592592 -17.286978 75.189890
-25.756225 -15.302885 75.240296
-25.861140 -13.290822 75.291711
-25.966055 -11.278759 75.343125
-26.070970 -9.266696 75.394540
-25.155691 -7.616238 75.441605
-24.832454 -5.755931 75.491194
-23.483449 -4.259205 75.536410
-23.430047 -2.303257 75.587149
-22.514768 -0.652798 75.634214
-21.271293 0.307340 75.665066
-20.643674 2.059759 75.713357
-19.294670 3.556485 75.758573
-17.945665 5.053212 75.803788
-16.596660 6.549938 75.849004
-15.247656 8.046665 75.894219
-13.369826 8.434175 75.913390
-12.040471 9.711656 75.952852
-10.860825 10.566652 75.980678
-9.255818 11.526412 76.013286
-7.577512 12.332426 76.042284
-5.754142 12.834166 76.064137
-4.207149 13.915609 76.099602
-2.194453 14.020237 76.112131
-0.534987 14.865768 76.142057
1.365236 15.206308 76.160125
2.912230 16.287751 76.195590
4.924925 16.392379 76.208119
6.937621 16.497007 76.220649
8.950317 16.601635 76.233178
10.963012 16.706263 76.245708
12.975708 16.810891 76.258237
14.988404 16.915518 76.270767
17.001100 17.020146 76.283296
19.013795 17.124774 76.295825
21.026491 17.229402 76.308355
23.039187 17.334030 76.320884
24.690291 16.418837 76.305328
26.702987 16.523464 76.317858
28.444195 15.862398 76.309300
30.366786 15.712899 76.314831
32.017890 14.797705 76.299275
33.703377 13.979484 76.286390
35.456438 13.351847 76.278753
37.332794 13.071946 76.280693
38.874408 12.653906 76.277433
40.050017 11.211150 76.245939
41.777789 10.512187 76.236338
43.352225 9.380763 76.214828
45.028226 8.535789 76.201205
46.525603 7.187029 76.173709
48.022980 5.838268 76.146213
49.520357 4.489508 76.118717
50.400514 2.846733 76.080619
51.824218 1.462879 76.051857
53.321595 0.114119 76.024361
53.646470 -1.793166 75.976725
54.243670 -3.570728 75.933766
54.833370 -5.351862 75.890678
54.938285 -7.363925 75.839263
55.281336 -9.262552 75.791939
56.125185 -10.922621 75.753217
55.536582 -12.688869 75.704760
55.314821 -14.585143 75.654738
55.419736 -16.597206 75.603323
54.504457 -18.247665 75.556258
53.747495 -19.954239 75.508518
53.119876 -21.706658 75.460227
51.770872 -23.203384 75.415011
51.863534 -25.211104 75.363649
50.186334 -26.017510 75.334646
48.837329 -27.514236 75.289431
47.488324 -29.010963 75.244216
46.139320 -30.507689 75.199000
44.461014 -31.313703 75.170002
43.633872 -32.647619 75.131537
41.825788 -33.181423 75.108931
40.147482 -33.987437 75.079933
38.527189 -34.915133 75.048079
36.980196 -35.996576 75.012614
35.433202 -37.078020 74.977149
33.420507 -37.182647 74.964620
31.755952 -38.017505 74.934945
29.860818 -38.368718 74.916626
28.070039 -38.938820 74.893167
26.301129 -39.554789 74.868631
24.288433 -39.659417 74.856102
22.705820 -40.666149 74.822392
20.728744 -40.845488 74.808108
18.716048 -40.950116 74.795579
16.703352 -41.054744 74.783049
14.690657 -41.159372 74.770520
12.677961 -41.264000 74.757990
10.665265 -41.368628 74.745461
7.092124 -42.195098 75.418914
5.569976 -41.082769 75.440188
3.562681 -40.937631 75.434130
1.555386 -40.792494 75.428073
0.033238 -39.680165 75.449347
-1.974057 -39.535028 75.443290
-3.553623 -38.537168 75.461328
-5.503500 -38.277562 75.458506
-7.025647 -37.165233 75.479779
-8.876496 -36.708203 75.482535
-10.536437 -35.870579 75.496046
-12.077238 -34.795439 75.516269
-13.513267 -33.511424 75.542393
-14.830157 -31.989893 75.575230
-16.490098 -31.152269 75.588741
-18.150039 -30.314645 75.602252
-19.466929 -28.793114 75.635088
-20.783819 -27.271583 75.667924
-21.374354 -25.509013 75.710529
-22.691244 -23.987481 75.743365
-24.008134 -22.465950 75.776202
-24.598669 -20.703380 75.818806
-25.319853 -18.984166 75.859653
-26.202142 -17.318413 75.898334
-26.057211 -15.311781 75.950829
-26.939501 -13.646029 75.989510
-26.794569 -11.639396 76.042005
-26.649638 -9.632764 76.094499
-26.504707 -7.626131 76.146994
-25.621204 -5.989801 76.193539
-25.247281 -4.097980 76.244189
-24.630006 -2.328169 76.292879
-23.792323 -0.668867 76.339793
-22.877363 0.951691 76.386085
-21.899966 1.996495 76.417822
-20.694560 3.410664 76.460206
-19.516210 4.899164 76.504375
-17.994356 6.215440 76.545778
-16.472502 7.531715 76.587180
-14.709441 8.121839 76.611020
-13.753667 9.425632 76.649336
-12.108696 10.371265 76.681774
-10.421315 11.189225 76.711125
-8.582573 11.551512 76.729454
-7.060719 12.867788 76.770857
-5.297658 13.457911 76.794697
-3.415493 13.689477 76.809865
-1.530327 13.912006 76.824814
0.257978 14.426136 76.846816
1.995796 15.092253 76.872494
3.931448 15.162795 76.883767
5.763127 15.546348 76.902611
7.604919 15.899454 76.920719
9.612214 15.754316 76.926776
11.619509 15.609178 76.932833
13.626804 15.464041 76.938890
15.634099 15.318903 76.944947
17.641394 15.173765 76.951004
19.551803 15.320301 76.964116
21.314864 15.910424 76.987956
22.974805 15.072800 76.974445
24.844307 14.652958 76.972739
26.366455 13.540630 76.951466
28.373750 13.395492 76.957523
30.300670 13.090119 76.959052
31.903193 12.138026 76.942307
33.425341 11.025698 76.921034
35.280492 10.577247 76.918520
36.940433 9.739623 76.905009
38.476931 8.655903 76.884544
39.999079 7.543575 76.863271
41.920255 7.226751 76.864476
43.237145 5.705220 76.831640
44.571898 4.759683 76.813756
45.503412 3.136506 76.776414
47.448068 2.937190 76.780767
48.081148 1.188739 76.738735
49.398038 -0.332792 76.705899
50.714928 -1.854323 76.673062
51.305463 -3.616893 76.630458
51.895998 -5.379463 76.587854
53.212888 -6.900995 76.555017
53.803423 -8.663565 76.512413
54.506384 -10.388827 76.471320
54.361453 -12.395459 76.418826
54.216521 -14.402091 76.366331
54.071590 -16.408724 76.313836
54.577035 -18.199531 76.270087
54.808948 -20.081109 76.222660
54.317641 -21.914076 76.172956
52.795787 -23.230352 76.131553
51.958103 -24.889654 76.084639
51.326535 -26.652298 76.036065
50.282735 -28.208259 75.990811
49.101548 -29.695337 75.946664
47.923198 -31.183837 75.902495
46.401344 -32.500113 75.861092
45.493006 -33.946712 75.819322
43.800599 -34.749539 75.790338
42.160655 -35.710305 75.757534
40.515684 -36.655938 75.725096
38.993830 -37.972214 75.683693
37.162127 -38.355695 75.664851
35.467707 -39.152461 75.636013
33.829776 -40.119288 75.603062
31.941584 -40.332708 75.588333
30.178523 -40.922832 75.564493
28.490130 -41.737743 75.535217
26.482835 -41.592605 75.529160
24.648131 -41.967050 75.510536
22.809364 -42.329264 75.492208
20.802069 -42.184127 75.486151
19.117738 -43.011269 75.456579
17.128598 -42.920786 75.449200
15.121303 -42.775648 75.443143
13.114008 -42.630510 75.437086
11.106713 -42.485373 75.431028
9.099418 -42.340235 75.424971
-13.015837 -36.395786 -21.193379
-14.606597 -35.416872 -20.989492
-16.598005 -35.443106 -20.758564
-18.589414 -35.469341 -20.527637
-20.580822 -35.495575 -20.296710
-22.171582 -34.516661 -20.092823
-24.162990 -34.542895 -19.861895
-26.096025 -34.422684 -19.634908
-27.745158 -33.590215 -19.427081
-29.509450 -33.046658 -19.211482
-31.327326 -32.637535 -18.992266
-33.206175 -32.381380 -18.768936
-34.909494 -31.684855 -18.557452
-36.900902 -31.711089 -18.326525
-38.491662 -30.732175 -18.122637
-40.082423 -29.753261 -17.918750
-41.739735 -28.941315 -17.710371
-43.664591 -28.800581 -17.483936
-45.153160 -27.565289 -17.286946
-46.846111 -26.842753 -17.076161
-48.566584 -26.189263 -16.863520
-50.273296 -25.501250 -16.651807
-51.980008 -24.813237 -16.440094
-53.403420 -23.414477 -16.247501
-55.200560 -22.953331 -16.029685
-56.117659 -21.736385 -15.899466
-57.541071 -20.337625 -15.706873
-59.247783 -19.649612 -15.495160
-60.671194 -18.250852 -15.302568
-62.094606 -16.852092 -15.109975
-63.762635 -16.067033 -14.900873
-64.907181 -14.628130 -14.739910
-65.948956 -13.064493 -14.588467
-67.552431 -12.117477 -14.383722
-68.379895 -10.675654 -14.259552
-69.803306 -9.276894 -14.066960
-70.941644 -7.754975 -13.905106
-71.950945 -6.177308 -13.757165
-72.675172 -4.476482 -13.639963
-74.098583 -3.077722 -13.447370
-74.983226 -1.446200 -13.312871
-75.547037 0.323931 -13.212966
-76.015222 2.135374 -13.123373
-76.995491 3.725583 -12.978562
-77.047217 5.716947 -12.933874
-77.068816 7.721327 -12.892434
-78.079212 9.298520 -12.744375
-78.100811 11.302900 -12.702935
-78.122411 13.307280 -12.661495
-78.144011 15.311659 -12.620055
-78.165610 17.316039 -12.578615
-78.187210 19.320418 -12.537175
-77.794671 21.158343 -12.547098
-77.232688 22.928162 -12.578037
-77.125427 24.880748 -12.552579
-76.278166 26.535905 -12.618898
-75.750688 28.319592 -12.645557
-75.323645 30.143648 -12.659760
-74.375948 31.758436 -12.738536
-73.371402 33.350375 -12.824363
-73.393002 35.354754 -12.782923
-72.015303 36.213620 -12.926354
-71.282860 37.826891 -12.980144
-69.636532 38.665821 -13.155182
-68.478174 40.195937 -13.260085
-67.556297 41.821103 -13.335659
-66.525931 43.402664 -13.424688
-65.177526 44.273304 -13.564487
-64.457479 45.915768 -13.616268
-62.798755 46.725504 -13.793314
-61.319052 47.956853 -13.941366
-59.714488 48.894144 -14.109641
-58.180625 49.997938 -14.266464
-56.630222 51.062783 -14.425967
-55.042197 52.039024 -14.591562
-53.472984 53.059566 -14.754111
-51.854554 53.964201 -14.924631
-50.334556 55.100651 -15.079209
-48.765343 56.121194 -15.241758
-47.078887 56.865619 -15.423296
-45.626916 58.162279 -15.566856
-43.635508 58.188513 -15.797784
-42.004682 59.063955 -15.970311
-40.074886 59.235290 -16.191260
-38.323343 59.826430 -16.383339
-36.930478 61.262290 -16.517326
-35.239077 61.995069 -16.699665
-33.375837 62.323151 -16.909834
-31.384429 62.349386 -17.140761
-29.567800 62.787240 -17.343382
-27.876398 63.520019 -17.525720
-26.254594 64.416705 -17.696787
-24.263186 64.442939 -17.927714
-22.271778 64.469173 -18.158641
-20.702564 65.489716 -18.321190
-18.711156 65.515950 -18.552117
-16.719748 65.542184 -18.783045
-14.728340 65.568418 -19.013972
-12.736932 65.594652 -19.244899
-10.745524 65.620886 -19.475826
-8.754116 65.647121 -19.706754
-6.762708 65.673355 -19.937681
-4.771300 65.699589 -20.168608
-2.779892 65.725823 -20.399535
-0.788484 65.752057 -20.630462
1.202924 65.778291 -20.861390
3.073497 65.501375 -21.084162
4.785092 64.825611 -21.296204
6.776500 64.851846 -21.527131
8.767908 64.878080 -21.758059
10.466947 64.170817 -21.969254
12.350076 63.925400 -22.192873
14.163673 63.505538 -22.411800
15.870385 62.817525 -22.623513
17.523005 61.993806 -22.831575
19.514413 62.020040 -23.062502
21.105173 61.041126 -23.266389
23.096581 61.067360 -23.497317
24.970547 60.798955 -23.720318
26.393958 59.400195 -23.912910
28.100670 58.712182 -24.124623
29.807383 58.024169 -24.336336
31.451030 57.177938 -24.543793
32.937506 55.937396 -24.740642
34.632550 55.220110 -24.951567
36.223310 54.241196 -25.155454
38.057642 53.873357 -25.375780
39.662862 53.141497 -25.576550
40.488581 51.484518 -25.704695
42.195294 50.796505 -25.916408
43.670223 50.008356 -26.103129
44.626233 48.407666 -26.245323
46.332945 47.719653 -26.457036
47.756356 46.320893 -26.649629
49.179767 44.922133 -26.842221
50.603179 43.523373 -27.034814
52.026590 42.124613 -27.227407
52.750817 40.423787 -27.344609
54.356384 39.482021 -27.549495
55.181756 38.034948 -27.673524
56.605167 36.636188 -27.866117
56.749545 34.684851 -27.920795
58.053621 33.234536 -28.100521
58.770336 31.530464 -28.216912
59.502075 29.832883 -28.334924
60.784816 28.961704 -28.500922
61.233830 27.141978 -28.588449
61.816811 25.380130 -28.690421
61.838411 23.375751 -28.731861
62.707327 21.737434 -28.864664
62.870406 19.794177 -28.921359
62.892006 17.789798 -28.962799
62.913605 15.785418 -29.004239
62.935205 13.781038 -29.045679
62.956804 11.776659 -29.087119
62.978404 9.772279 -29.128559
63.000003 7.767900 -29.169999
61.725577 6.284435 -29.050701
61.047761 4.561173 -29.005396
61.069360 2.556793 -29.046836
60.368963 0.842607 -28.998731
59.117118 -0.649934 -28.882233
58.288728 -2.312676 -28.818254
57.601359 -4.032098 -28.771765
56.913989 -5.751520 -28.725276
55.521124 -7.187380 -28.591288
54.664289 -8.507694 -28.517352
53.254079 -9.684487 -28.376317
53.111730 -11.527758 -28.395574
51.469077 -12.375343 -28.221131
50.076212 -13.811204 -28.087143
48.683347 -15.247064 -27.953156
47.290482 -16.682925 -27.819168
45.687857 -17.624779 -27.651207
44.206216 -18.851564 -27.502842
42.549429 -19.665864 -27.326109
40.980216 -20.686406 -27.163560
39.476740 -21.771548 -27.009906
38.444642 -22.769322 -26.909337
36.854412 -23.740369 -26.743384
35.360376 -24.937961 -26.593011
33.715985 -25.781454 -26.418286
31.977573 -26.403519 -26.228334
30.286172 -27.136297 -26.045996
28.594770 -27.869076 -25.863657
27.016936 -28.869316 -25.699712
25.447722 -29.889859 -25.537163
23.520566 -30.067411 -25.316642
21.887101 -30.936635 -25.143687
20.137763 -31.532969 -24.951965
18.326479 -31.983412 -24.750211
16.754960 -32.998526 -24.587288
14.765857 -33.030189 -24.356734
12.775084 -33.057918 -24.125910
11.205236 -34.076965 -23.963258
9.213828 -34.103200 -23.732331
7.644614 -35.123742 -23.569782
5.653206 -35.149976 -23.338855
3.661798 -35.176210 -23.107927
1.670390 -35.202445 -22.877000
-0.258871 -35.375040 -22.656138
-1.890232 -36.249221 -22.483524
-3.881640 -36.275455 -22.252597
-5.472400 -35.296541 -22.048709
-7.344560 -35.603615 -21.837095
-9.033021 -36.343318 -21.655233
-11.024429 -36.369552 -21.424306
-12.429871 -35.920660 -20.780595
-13.971524 -34.861722 -20.580861
-15.963832 -34.786335 -20.347855
-17.956141 -34.710949 -20.114849
-19.948450 -34.635562 -19.881844
-21.742453 -34.127376 -19.663479
-23.482411 -33.501237 -19.449104
-25.474720 -33.425850 -19.216098
-27.075073 -32.495025 -19.012030
-29.008681 -32.291525 -18.783358
-31.000990 -32.216139 -18.550352
-32.542642 -31.157200 -18.350618
-34.397674 -30.782207 -18.127748
-36.068993 -30.006264 -17.918440
-37.618256 -28.963936 -17.718144
-39.610565 -28.888550 -17.485138
-41.602874 -28.813163 -17.252133
-42.359527 -27.331894 -17.135426
-44.104768 -26.717286 -16.920662
-45.702165 -25.780009 -16.716812
-47.188073 -24.599408 -16.521193
-48.729725 -23.540470 -16.321459
-50.716122 -23.452181 -16.088889
-52.263686 -22.406144 -15.888719
-53.740098 -21.204819 -15.693801
-55.092755 -19.733400 -15.508020
-56.764074 -18.957458 -15.298713
-58.430296 -18.170390 -15.089781
-59.376349 -16.556545 -14.948489
-60.481534 -15.090960 -14.791582
-62.098622 -14.196659 -14.586278
-63.451279 -12.725240 -14.400497
-64.803936 -11.253821 -14.214716
-66.197487 -9.871654 -14.025916
-67.827912 -9.006459 -13.819628
-68.467164 -7.268964 -13.711589
-69.819821 -5.797545 -13.525808
-71.172478 -4.326126 -13.340027
-71.744824 -2.563678 -13.239279
-72.450982 -0.851137 -13.123950
-73.603911 0.694774 -12.959934
-74.442892 2.357777 -12.830130
-74.454091 4.329515 -12.790533
-75.721396 5.832767 -12.614053
-76.313178 7.587967 -12.511187
-76.286496 9.573833 -12.475718
-77.163359 11.222707 -12.341786
-77.083996 13.228221 -12.312058
-77.004632 15.233735 -12.282329
-76.925269 17.239249 -12.252601
-77.854813 18.868475 -12.112928
-77.775450 20.873989 -12.083200
-77.491398 22.784850 -12.079098
-76.640571 24.433617 -12.145956
-75.585055 25.987731 -12.238441
-75.505692 27.993245 -12.208713
-74.450176 29.547359 -12.301198
-74.370813 31.552873 -12.271470
-73.533749 33.208005 -12.336605
-72.259781 34.661100 -12.456440
-71.294207 36.256806 -12.537664
-70.519558 37.940800 -12.594985
-69.744909 39.624795 -12.652306
-68.280016 40.989601 -12.796044
-66.982201 42.431669 -12.918865
-66.040474 44.038402 -12.997104
-64.575581 45.403208 -13.140843
-63.110688 46.768015 -13.284581
-61.783985 48.196724 -13.411019
-60.608397 49.099339 -13.530112
-59.143504 50.464146 -13.673851
-57.415863 51.111476 -13.862060
-55.950969 52.476282 -14.005799
-54.223328 53.123612 -14.194009
-52.758435 54.488418 -14.337748
-51.030793 55.135748 -14.525957
-50.161780 56.562067 -14.599249
-48.265755 56.749597 -14.815959
-46.548745 57.425958 -15.002369
-44.928018 58.365236 -15.172483
-43.082830 58.691587 -15.380588
-41.617937 60.056393 -15.524327
-39.890296 60.703723 -15.712537
-38.073529 61.107684 -15.915831
-36.172264 61.280907 -16.133427
-34.460494 61.971575 -16.318951
-32.839767 62.910854 -16.489065
-30.989340 63.222897 -16.698057
-29.226732 63.774745 -16.892185
-27.271309 63.800081 -17.118947
-25.613696 64.638636 -17.295304
-23.621387 64.563250 -17.528310
-22.000661 65.502528 -17.698424
-20.008352 65.427141 -17.931430
-18.107605 65.601779 -18.148938
-16.395317 66.291033 -18.334549
-14.403008 66.215646 -18.567555
-12.410699 66.140260 -18.800561
-10.418390 66.064873 -19.033566
-8.426081 65.989487 -19.266572
-6.805355 66.928765 -19.436686
-4.813046 66.853378 -19.669692
-2.820737 66.777992 -19.902697
-1.279085 65.719053 -20.102432
0.713224 65.643666 -20.335437
2.705533 65.568280 -20.568443
4.697842 65.492893 -20.801449
6.626167 65.277863 -21.029730
8.231803 64.358568 -21.234189
10.224112 64.283182 -21.467194
12.216421 64.207795 -21.700200
13.758073 63.148856 -21.899934
15.750382 63.073470 -22.132940
17.292034 62.014531 -22.332674
19.284343 61.939145 -22.565680
20.952706 61.156751 -22.774769
22.818304 60.804819 -22.998420
24.359957 59.745881 -23.198154
25.966664 58.828923 -23.402691
27.893918 58.611556 -23.630894
29.435570 57.552617 -23.830628
31.299283 57.196571 -24.054140
32.969532 56.418292 -24.263368
34.511184 55.359353 -24.463102
36.052836 54.300414 -24.662837
37.848924 54.042213 -24.876589
38.623812 52.355306 -24.999408
40.295131 51.579363 -25.208715
41.966450 50.803421 -25.418023
43.319107 49.332002 -25.603804
44.583935 48.404452 -25.768814
45.681582 46.931844 -25.924982
47.619660 46.738098 -26.153984
48.972317 45.266679 -26.339765
50.324974 43.795260 -26.525546
51.677631 42.323841 -26.711327
53.030287 40.852422 -26.897108
54.382944 39.381003 -27.082889
55.735601 37.909584 -27.268670
57.031773 36.417098 -27.448295
57.727511 34.700670 -27.562489
58.366763 32.963175 -27.670528
59.719420 31.491756 -27.856309
60.749947 29.900194 -28.006986
60.997924 28.016767 -28.072386
61.637177 26.279272 -28.180425
62.529671 24.636228 -28.316060
62.450308 22.630714 -28.345789
63.379852 21.001488 -28.485462
64.194186 19.329293 -28.612580
64.230032 17.366748 -28.654863
64.150669 15.361234 -28.684591
64.071306 13.355719 -28.714319
63.991943 11.350205 -28.744048
63.912580 9.344691 -28.773776
63.833217 7.339177 -28.803505
63.753854 5.333663 -28.833233
63.055383 3.614441 -28.785450
62.280734 1.930447 -28.728129
61.563459 0.219921 -28.677991
60.731437 -1.437542 -28.613488
60.428580 -3.339707 -28.615235
59.182139 -4.805531 -28.498846
58.317548 -6.447934 -28.430265
57.262032 -8.002048 -28.337780
56.167948 -9.538327 -28.240466
55.151000 -11.110275 -28.152809
53.864806 -12.413457 -28.028642
52.200764 -13.234457 -27.851197
51.426115 -14.918452 -27.793876
49.961222 -16.283258 -27.650137
48.496329 -17.648065 -27.506398
46.768687 -18.295395 -27.318189
45.303794 -19.660201 -27.174450
44.800888 -21.469857 -27.151151
43.386388 -22.023010 -26.997505
41.764107 -22.958044 -26.827128
40.036465 -23.605374 -26.638918
38.524208 -24.840844 -26.487162
36.843931 -25.617510 -26.306969
34.911172 -25.704736 -26.084043
33.388648 -26.912170 -25.930550
31.669719 -27.583292 -25.743815
30.048992 -28.522570 -25.573701
28.468472 -29.571637 -25.410391
26.807539 -30.401126 -25.233472
24.815230 -30.325739 -25.000467
23.194503 -31.265017 -24.830353
21.557906 -32.160957 -24.657552
19.581468 -32.128909 -24.427233
17.960741 -33.068187 -24.257119
15.968432 -32.992800 -24.024113
14.347706 -33.932078 -23.853999
12.355397 -33.856692 -23.620994
10.666561 -34.609985 -23.439352
8.742361 -34.720583 -23.217874
6.750053 -34.645197 -22.984868
5.129326 -35.584475 -22.814754
3.137017 -35.509088 -22.581748
1.240109 -35.694207 -22.364890
-0.476018 -36.372980 -22.178629
-2.468327 -36.297593 -21.945623
-4.460636 -36.222207 -21.712617
-6.452945 -36.146820 -21.479612
-8.445254 -36.071433 -21.246606
-10.437562 -35.996047 -21.013601
-8.554712 -37.188190 -20.391524
-10.190545 -36.285403 -20.183877
-12.179927 -36.405419 -19.955007
-14.169308 -36.525436 -19.726136
-16.158689 -36.645452 -19.497266
-17.994005 -36.319763 -19.277644
-19.783903 -35.862681 -19.060749
-21.719723 -35.827747 -18.835094
-23.409118 -35.079911 -18.624232
-25.398499 -35.199927 -18.395362
-27.183302 -34.728106 -18.178772
-29.023713 -34.417157 -17.958844
-30.909020 -34.236089 -17.736222
-32.648928 -33.634386 -17.522327
-34.634738 -33.744072 -17.293671
-36.274142 -32.851616 -17.085810
-37.909975 -31.948829 -16.878163
-39.598324 -31.197970 -16.667364
-41.336185 -30.590346 -16.453592
-43.171023 -30.263272 -16.233999
-44.811907 -29.375098 -16.026049
-46.442689 -28.457698 -15.818705
-48.432070 -28.577714 -15.589835
-50.025490 -27.552227 -15.384734
-51.703736 -26.772141 -15.174541
-52.566758 -25.279131 -15.045245
-54.304619 -24.671507 -14.831474
-56.030330 -24.028735 -14.618431
-57.530344 -22.733028 -14.418938
-59.018209 -21.402173 -14.220173
-60.584281 -20.297572 -14.016714
-61.559477 -19.129077 -13.880684
-63.047341 -17.798222 -13.681920
-64.441126 -17.022386 -13.504869
-65.588609 -15.525126 -13.342430
-67.076474 -14.194271 -13.143666
-68.564339 -12.863416 -12.944902
-70.052203 -11.532562 -12.746137
-70.822824 -9.851061 -12.623919
-71.659018 -8.201617 -12.494702
-72.462425 -6.536145 -12.368985
-74.037547 -5.848962 -12.172581
-74.319236 -3.928432 -12.102543
-75.235070 -2.317923 -11.964827
-75.926050 -0.597488 -11.851108
-76.432593 1.213115 -11.757072
-76.848407 3.068074 -11.672720
-77.630116 4.744154 -11.549318
-77.744893 6.746283 -11.497093
-78.574172 8.399107 -11.368614
-78.942416 10.277321 -11.289338
-79.057193 12.279451 -11.237113
-78.156604 13.928011 -11.309759
-78.271381 15.930141 -11.257533
-78.386158 17.932270 -11.205308
-77.602000 19.621374 -11.263635
-76.994427 21.371969 -11.300245
-76.699756 23.231521 -11.298374
-75.799167 24.880082 -11.371020
-75.889682 26.873763 -11.321778
-75.013354 28.530772 -11.391440
-73.956564 30.124940 -11.483295
-73.212175 31.827893 -11.536731
-72.023446 33.376118 -11.644812
-71.410996 35.125014 -11.682022
-70.477622 36.189601 -11.769820
-68.820937 37.001519 -11.946586
-68.213364 38.752113 -11.983196
-66.887819 40.252697 -12.108103
-66.021790 41.465785 -12.185190
-64.891546 42.908926 -12.288515
-63.685310 43.878097 -12.409878
-62.038481 44.710514 -12.585101
-60.703310 46.191079 -12.711515
-59.377765 47.691662 -12.836422
-57.721310 48.504060 -13.013153
-56.064855 49.316458 -13.189883
-54.739310 50.817041 -13.314790
-53.082856 51.629439 -13.491521
-51.757310 53.130023 -13.616428
-49.867242 53.456579 -13.829744
-48.345837 54.549837 -13.985325
-46.787947 55.567216 -14.146619
-45.131492 56.379613 -14.323350
-43.475038 57.192011 -14.500081
-41.792242 57.949627 -14.680937
-39.831219 58.128621 -14.905366
-38.281456 59.162902 -15.065387
-36.518310 59.753416 -15.258827
-34.770670 60.376176 -15.449838
-32.874492 60.690026 -15.664112
-31.259884 61.589450 -15.834289
-29.270502 61.709467 -16.063159
-27.574219 62.439033 -16.246127
-25.759716 62.922741 -16.447610
-23.770335 63.042757 -16.676480
-22.248930 64.136016 -16.832060
-20.259549 64.256032 -17.060930
-18.270168 64.376048 -17.289801
-16.280787 64.496065 -17.518671
-14.655400 65.373073 -17.690536
-12.770001 65.709339 -17.903122
-10.780619 65.829355 -18.131992
-9.144786 64.926568 -18.339639
-7.155405 65.046585 -18.568509
-5.166024 65.166601 -18.797379
-3.176643 65.286617 -19.026249
-1.187261 65.406634 -19.255120
0.802120 65.526650 -19.483990
2.459900 64.687355 -19.692954
4.427334 64.743880 -19.920507
6.063167 63.841093 -20.128154
8.052549 63.961109 -20.357024
10.041930 64.081125 -20.585894
11.677763 63.178339 -20.793541
13.667144 63.298355 -21.022412
15.624911 63.326912 -21.249384
17.292358 62.515584 -21.458929
18.928192 61.612798 -21.666576
20.838494 61.504041 -21.890699
22.553406 60.830027 -22.103093
24.314215 60.288793 -22.318242
25.825072 59.024454 -22.518387
27.539941 58.350314 -22.730778
29.450286 58.241683 -22.954904
31.086120 57.338896 -23.162551
32.753523 56.527442 -23.372093
34.491384 55.919819 -23.585864
35.993619 54.630536 -23.785491
37.717110 53.981340 -23.998400
39.454971 53.373716 -24.212172
40.942835 52.042861 -24.410936
42.536951 51.019389 -24.616079
44.168561 50.104382 -24.823473
45.808618 49.213815 -25.031373
47.394286 48.165904 -25.236009
48.882151 46.835049 -25.434773
49.685558 45.169577 -25.560491
51.173423 43.838722 -25.759255
51.976830 42.173250 -25.884972
53.605125 41.512061 -26.087051
54.518098 39.900154 -26.224462
55.321505 38.234682 -26.350179
56.809370 36.903827 -26.548943
56.968140 34.923205 -26.605864
58.416184 33.572882 -26.800378
59.219592 31.907410 -26.926096
60.216378 30.336477 -27.072451
61.299124 28.807568 -27.227981
61.413901 26.805439 -27.280206
62.433221 25.245522 -27.428966
62.611424 23.274400 -27.487960
62.726201 21.272271 -27.540185
62.840978 19.270142 -27.592410
62.955755 17.268012 -27.644636
62.055166 15.619452 -27.571990
62.169943 13.617322 -27.624215
62.284720 11.615193 -27.676440
62.399497 9.613064 -27.728666
62.514274 7.610934 -27.780891
61.613685 5.962374 -27.708245
60.905688 4.246749 -27.659285
60.827872 2.311684 -27.687825
59.690543 0.745560 -27.586065
59.026693 -0.985438 -27.542534
58.475398 -2.755629 -27.512845
57.149852 -4.256212 -27.387938
55.824307 -5.756796 -27.263031
55.121053 -7.308403 -27.211436
53.560280 -8.319788 -27.049690
52.952707 -10.070382 -27.013080
52.345135 -11.820977 -26.976470
50.688680 -12.633374 -26.799740
49.363135 -14.133958 -26.674833
47.706680 -14.946356 -26.498102
46.988929 -16.658584 -26.447942
45.442653 -17.509348 -26.284762
44.107078 -18.989074 -26.158284
42.460653 -19.822329 -25.983124
41.064269 -21.175590 -25.847123
39.478653 -22.135310 -25.681487
38.021459 -23.362106 -25.535962
36.165744 -23.760106 -25.328026
34.840199 -25.260689 -25.203119
32.989268 -25.668638 -24.995931
31.467863 -26.761897 -24.840351
29.870835 -27.697882 -24.672927
28.214381 -28.510280 -24.496196
26.435672 -29.068429 -24.300319
24.901472 -30.135076 -24.142735
22.924886 -30.281703 -23.915869
21.403482 -31.374962 -23.760288
19.414100 -31.494978 -23.531418
17.892696 -32.588236 -23.375838
15.903314 -32.708252 -23.146967
13.970016 -32.944904 -22.926880
12.392528 -33.921527 -22.762517
10.403147 -34.041543 -22.533646
8.413766 -34.161559 -22.304776
6.892361 -35.254817 -22.149196
4.902980 -35.374834 -21.920326
2.913599 -35.494850 -21.691455
1.051197 -35.878945 -21.482471
-0.597187 -36.708124 -21.307005
-2.586569 -36.828141 -21.078134
-4.575950 -36.948157 -20.849264
-6.565331 -37.068173 -20.620394
-1.360662 -57.176577 -46.642977
-2.945260 -56.181050 -46.496881
-4.939822 -56.186681 -46.316331
-6.934384 -56.192312 -46.135781
-8.928946 -56.197942 -45.955232
-10.749745 -55.779236 -45.789285
-12.508105 -55.208047 -45.628586
-14.502667 -55.213677 -45.448036
-16.441173 -55.082416 -45.272197
-18.081827 -54.223782 -45.121390
-19.848940 -53.673969 -44.959956
-21.660987 -53.233886 -44.794745
-23.546596 -52.973448 -44.623351
-25.240146 -52.243990 -44.468099
-27.234708 -52.249621 -44.287549
-28.819306 -51.254094 -44.141453
-30.652019 -50.864480 -43.974506
-32.398466 -50.264198 -43.814808
-33.356312 -49.161154 -43.725165
-34.984263 -48.271499 -43.575426
-36.568861 -47.275972 -43.429330
-38.178075 -46.340560 -43.281166
-39.738057 -45.284919 -43.137139
-41.585843 -44.932113 -42.968924
-42.999838 -43.519965 -42.837166
-44.491851 -42.298340 -42.698851
-46.407606 -42.111518 -42.524924
-47.821601 -40.699370 -42.393166
-49.235597 -39.287222 -42.261408
-50.830243 -38.316234 -42.114468
-51.650002 -36.875971 -42.036430
-53.063998 -35.463823 -41.904672
-54.477993 -34.051675 -41.772914
-55.891989 -32.639527 -41.641156
-57.199396 -31.182699 -41.518929
-58.016506 -29.520351 -41.440541
-59.197882 -28.597106 -41.331140
-60.197875 -27.011418 -41.236400
-61.141432 -25.402073 -41.146707
-62.197861 -23.840042 -41.046920
-62.202991 -21.837332 -41.041136
-63.301846 -20.351446 -40.937711
-64.201477 -19.251739 -40.853348
-64.206607 -17.249029 -40.847564
-64.990973 -15.572956 -40.772104
-65.211730 -13.660631 -40.747039
-65.216860 -11.657922 -40.741255
-65.221990 -9.655212 -40.735471
-65.227120 -7.652502 -40.729687
-65.232250 -5.649792 -40.723902
-65.237380 -3.647082 -40.718118
-65.242511 -1.644372 -40.712334
-64.743385 0.150260 -40.752752
-64.255786 1.949648 -40.792114
-63.339854 3.572288 -40.870722
-62.638088 5.283303 -40.929706
-62.277206 7.134980 -40.957458
-61.285351 8.726291 -41.043022
-60.532791 10.416345 -41.106661
-59.831025 12.127359 -41.165646
-58.424285 13.547470 -41.289224
-57.317931 15.091534 -41.385279
-56.315778 16.678596 -41.471787
-54.909038 18.098707 -41.595365
-53.502297 19.518818 -41.718942
-52.095557 20.938929 -41.842520
-50.688816 22.359041 -41.966098
-49.827689 23.686582 -42.040529
-47.993288 24.077610 -42.205556
-46.586548 25.497721 -42.329133
-45.089264 26.699958 -42.461487
-43.479556 27.631665 -42.604737
-41.779304 28.345498 -42.756762
-40.079053 29.059332 -42.908787
-38.378802 29.773165 -43.060812
-36.776803 30.723423 -43.203315
-35.271810 31.907109 -43.336415
-33.617853 32.732340 -43.483953
-31.871307 33.334775 -43.640465
-30.458903 34.741257 -43.764592
-28.464341 34.746888 -43.945142
-26.477043 34.769997 -44.124988
-25.070302 36.190108 -44.248566
-23.310830 36.761436 -44.406331
-21.316268 36.767067 -44.586881
-19.676038 37.625329 -44.733089
-17.975786 38.339162 -44.885114
-16.162756 38.781615 -45.048069
-14.168195 38.787245 -45.228619
-12.173633 38.792876 -45.409169
-10.179071 38.798507 -45.589719
-8.300487 39.083216 -45.759028
-6.605034 39.808596 -45.910588
-4.610473 39.814227 -46.091138
-2.615911 39.819857 -46.271688
-0.621349 39.825488 -46.452238
1.373212 39.831119 -46.632788
3.367774 39.836749 -46.813337
5.362336 39.842380 -46.993887
7.356898 39.848011 -47.174437
9.351459 39.853641 -47.354987
11.346021 39.859272 -47.535537
13.047535 39.149262 -47.691459
14.925181 38.869376 -47.862183
16.919743 38.875007 -48.042732
18.914304 38.880637 -48.223282
20.442846 37.748219 -48.364667
22.083500 36.889585 -48.515474
24.078062 36.895215 -48.696024
26.072624 36.900846 -48.876574
27.657222 35.905319 -49.022669
29.542041 35.642953 -49.193996
31.236382 34.915424 -49.349315
32.949809 34.234506 -49.506238
34.653692 33.530283 -49.662359
36.357576 32.826060 -49.818479
37.984737 31.934475 -49.968152
39.569335 30.938949 -50.114248
41.469227 30.713390 -50.286842
42.883223 29.301242 -50.418600
44.587107 28.597018 -50.574721
46.001102 27.184870 -50.706479
47.704986 26.480647 -50.862600
49.118982 25.068499 -50.994358
50.822865 24.364275 -51.150478
52.246120 22.974737 -51.283015
53.237270 21.953025 -51.375456
54.831917 20.982037 -51.522396
56.355150 19.836653 -51.663335
57.769145 18.424505 -51.795093
59.183141 17.012357 -51.926851
60.201077 15.434190 -52.023196
61.307658 13.893182 -52.127466
62.721654 12.481033 -52.259224
64.135649 11.068885 -52.390982
64.201049 9.091439 -52.402156
65.201042 7.505751 -52.496896
65.563739 5.652924 -52.534652
66.274260 3.945897 -52.603509
67.206158 2.331665 -52.692160
68.206151 0.745978 -52.786900
68.211282 -1.256732 -52.792684
68.216412 -3.259442 -52.798469
68.419917 -5.178998 -52.821991
69.221535 -6.847840 -52.898993
69.226665 -8.850550 -52.904777
69.231795 -10.853259 -52.910561
68.617478 -12.600359 -52.859589
68.245070 -14.447280 -52.830781
67.918921 -16.313290 -52.806212
67.258345 -18.041301 -52.751001
67.263475 -20.044011 -52.756786
66.518599 -21.737236 -52.693851
65.816833 -23.448250 -52.634866
65.284895 -25.229342 -52.591442
64.413302 -26.870278 -52.516896
63.467296 -27.993574 -52.434240
62.011285 -29.295125 -52.305886
61.315975 -31.008803 -52.247493
60.607753 -32.717154 -52.187917
59.146367 -34.005770 -52.059042
57.500762 -34.851098 -51.912314
56.350069 -36.376866 -51.812196
55.392255 -37.982223 -51.729751
53.692004 -38.696057 -51.577726
52.830877 -40.023598 -51.503295
50.996476 -40.414626 -51.338268
49.589736 -41.834737 -51.214690
48.182995 -43.254848 -51.091113
46.512977 -44.041432 -50.942018
45.418272 -45.530027 -50.846870
43.937426 -46.048703 -50.714189
42.086965 -46.401084 -50.547605
40.680224 -47.821195 -50.424027
38.979973 -48.535028 -50.272002
37.279722 -49.248861 -50.119977
35.624965 -50.072168 -49.972361
33.630403 -50.077798 -49.791811
32.050928 -51.082257 -49.651492
30.471453 -52.086716 -49.511172
28.476891 -52.092346 -49.330622
26.784703 -52.825582 -49.179379
25.084452 -53.539415 -49.027354
23.323380 -54.106894 -48.869434
21.683949 -54.967081 -48.723303
19.749343 -55.116984 -48.548564
17.754781 -55.122614 -48.368015
15.996174 -55.696025 -48.210334
14.180745 -56.132704 -48.047145
12.186183 -56.138334 -47.866595
10.191621 -56.143965 -47.686046
8.197059 -56.149596 -47.505496
6.202498 -56.155226 -47.324946
4.207936 -56.160857 -47.144396
2.333351 -56.455189 -46.975474
0.633899 -57.170946 -46.823527
-3.052986 -56.966415 -45.471762
-4.660877 -56.002219 -45.323641
-6.659203 -56.047015 -45.142854
-8.657529 -56.091812 -44.962068
-10.265419 -55.127616 -44.813946
-12.263745 -55.172412 -44.633160
-14.262071 -55.217209 -44.452373
-16.199527 -55.104699 -44.276679
-17.868288 -54.297809 -44.123465
-19.640162 -53.757390 -43.961625
-21.474505 -53.378409 -43.794558
-23.082396 -52.414213 -43.646436
-25.077194 -52.449894 -43.465945
-26.688613 -51.494814 -43.317528
-28.517830 -51.102585 -43.150890
-30.294830 -50.575414 -42.988621
-31.958465 -49.755277 -42.835835
-33.678783 -49.081623 -42.678308
-35.508938 -48.691818 -42.511591
-37.119418 -47.734315 -42.363253
-38.724719 -46.763426 -42.215349
-40.332610 -45.799230 -42.067228
-42.004292 -44.999887 -41.913769
-43.724610 -44.326233 -41.756242
-45.168848 -42.939113 -41.621813
-46.613087 -41.551993 -41.487383
-48.333405 -40.878339 -41.329856
-49.979956 -40.014052 -41.178500
-50.800346 -38.508964 -41.100233
-52.244585 -37.121844 -40.965804
-53.688823 -35.734724 -40.831374
-55.409141 -35.061070 -40.673847
-56.367369 -33.458955 -40.582844
-57.398080 -31.888904 -40.485365
-58.346628 -30.282507 -40.395227
-59.790866 -28.895387 -40.260798
-61.235105 -27.508267 -40.126368
-61.520925 -25.608701 -40.095448
-62.551636 -24.038650 -39.997968
-63.474978 -22.421102 -39.910083
-64.221602 -20.725380 -39.837988
-64.657195 -18.892068 -39.793684
-65.017236 -17.025335 -39.756131
-65.732041 -15.315537 -39.686879
-65.776177 -13.309057 -39.677554
-65.820313 -11.302577 -39.668229
-65.864448 -9.296097 -39.658903
-65.908584 -7.289617 -39.649578
-65.952720 -5.283137 -39.640252
-65.996855 -3.276657 -39.630927
-65.263339 -1.573399 -39.692807
-65.080333 0.344514 -39.704279
-64.631185 2.158653 -39.740121
-64.163811 3.965686 -39.777632
-63.288535 5.613669 -39.852492
-62.617210 7.341177 -39.908677
-61.945885 9.068685 -39.964862
-60.564064 10.519157 -40.086104
-59.892739 12.246665 -40.142289
-58.510918 13.697136 -40.263530
-57.439207 15.268526 -40.356377
-56.457772 16.875116 -40.440957
-55.075951 18.325587 -40.562198
-53.694130 19.776059 -40.683440
-52.312308 21.226531 -40.804681
-50.930487 22.677002 -40.925923
-49.241487 23.427083 -41.076833
-47.552486 24.177164 -41.227743
-46.170665 25.627636 -41.348985
-44.788844 27.078107 -41.470226
-43.099844 27.828188 -41.621136
-41.410843 28.578269 -41.772047
-40.697884 30.210848 -41.832253
-38.699558 30.255644 -42.013040
-37.054338 31.105548 -42.159722
-35.571740 32.326241 -42.290696
-33.983517 33.306101 -42.431873
-32.009505 33.406336 -42.610311
-30.445596 34.441635 -42.749140
-28.609336 34.855953 -42.914273
-26.883362 35.521730 -43.068755
-25.231335 36.356114 -43.216094
-23.321127 36.601825 -43.388370
-21.546155 37.155886 -43.547583
-19.758892 37.681920 -43.707985
-18.168154 38.656047 -43.849404
-16.196657 38.762015 -44.027599
-14.198331 38.806812 -44.208386
-12.634422 39.842110 -44.347214
-10.636096 39.886907 -44.528001
-8.637770 39.931703 -44.708788
-6.639444 39.976500 -44.889574
-4.641118 40.021296 -45.070361
-2.642792 40.066093 -45.251147
-0.644467 40.110889 -45.431934
1.353859 40.155686 -45.612720
3.352185 40.200482 -45.793507
5.350511 40.245279 -45.974294
7.348837 40.290076 -46.155080
9.347163 40.334872 -46.335867
10.955054 39.370676 -46.483988
12.953380 39.415472 -46.664775
14.951706 39.460269 -46.845561
16.892055 39.355236 -47.021497
18.557923 38.540869 -47.174469
20.556249 38.585666 -47.355256
22.164140 37.621470 -47.503377
24.162466 37.666266 -47.684163
25.770357 36.702070 -47.832285
27.766119 36.740243 -48.012857
29.376573 35.782670 -48.161193
30.984464 34.818474 -48.309314
32.982790 34.863271 -48.490100
34.647390 34.045627 -48.642966
36.589007 33.943871 -48.819008
37.390411 32.389716 -48.895687
39.110729 31.716062 -49.053214
40.829421 31.038208 -49.210605
42.437312 30.074011 -49.358727
43.995603 28.981634 -49.502698
45.653094 28.145619 -49.654969
47.160159 26.920861 -49.794655
48.868876 26.217227 -49.951212
50.324715 24.860087 -50.086612
51.768954 23.472967 -50.221041
53.489272 22.799313 -50.378568
54.933510 21.412193 -50.512998
55.680134 19.716471 -50.585093
57.400452 19.042817 -50.742620
58.147076 17.347096 -50.814716
59.784617 16.459522 -50.965317
61.107272 15.195919 -51.088412
61.360642 13.281998 -51.116433
62.804881 11.894878 -51.250863
64.199405 10.485767 -51.380850
64.298129 8.503435 -51.395053
65.274252 6.909236 -51.487655
65.791378 5.111991 -51.539243
66.349099 3.332705 -51.594460
67.284626 1.720548 -51.683434
67.423946 -0.243826 -51.701264
68.454657 -1.813877 -51.798744
68.498793 -3.820357 -51.808069
68.542929 -5.826837 -51.817394
68.587064 -7.833317 -51.826720
68.631200 -9.839797 -51.836045
68.675336 -11.846277 -51.845371
68.719471 -13.852757 -51.854696
67.758814 -15.467448 -51.772018
67.017850 -17.167803 -51.709456
66.346525 -18.895311 -51.653271
65.675200 -20.622819 -51.597086
64.920976 -22.318003 -51.533310
64.332551 -24.077835 -51.484715
63.661226 -25.805343 -51.428530
62.989901 -27.532851 -51.372345
61.608080 -28.983322 -51.251103
60.226258 -30.433794 -51.129862
58.844437 -31.884266 -51.008621
57.462616 -33.334737 -50.887379
56.791291 -35.062245 -50.831194
55.102291 -35.812326 -50.680284
54.296722 -37.487490 -50.611807
52.741965 -38.289915 -50.473188
51.052965 -39.039996 -50.322278
49.671144 -40.490467 -50.201036
48.999819 -42.217975 -50.144851
47.310818 -42.968056 -49.993941
45.688810 -43.870884 -49.849501
43.932818 -44.468218 -49.692120
42.243817 -45.218299 -49.541210
40.861996 -46.668771 -49.419968
39.433175 -48.012078 -49.294188
37.483995 -48.168932 -49.118148
35.870940 -49.092174 -48.974573
34.105994 -49.669094 -48.816327
32.308705 -50.172269 -48.654958
30.727993 -51.169256 -48.514506
28.746470 -51.252364 -48.335343
27.182561 -52.287662 -48.196514
25.618652 -53.322961 -48.057686
23.620326 -53.367757 -47.876899
21.668633 -53.518879 -47.700617
20.058091 -54.447852 -47.557285
18.059766 -54.492649 -47.376498
16.294452 -55.068731 -47.218217
14.497531 -55.572744 -47.056883
12.499205 -55.617541 -46.876096
10.500879 -55.662337 -46.695310
8.616913 -55.967883 -46.525569
6.938644 -56.742432 -46.375695
4.940318 -56.787229 -46.194908
2.941992 -56.832025 -46.014122
0.943666 -56.876822 -45.833335
-1.054660 -56.921618 -45.652549
0.937830 -18.410269 51.059263
-0.686222 -17.479592 51.172692
-2.682691 -17.565066 51.268323
-4.679159 -17.650540 51.363954
-6.675627 -17.736014 51.459584
-8.517067 -17.398486 51.562624
-10.296148 -16.890811 51.668644
-11.983020 -16.131540 51.779071
-13.715997 -15.498067 51.887294
-15.540722 -15.114931 51.991133
-17.181950 -14.231121 52.103740
-18.914927 -13.597648 52.211964
-20.647904 -12.964175 52.320187
-22.409347 -12.408375 52.427050
-23.420198 -11.374578 52.513845
-25.072871 -10.521993 52.625906
-26.622813 -9.389105 52.742877
-28.320976 -8.660640 52.852764
-29.510392 -7.257094 52.961559
-30.601408 -5.728980 53.069928
-32.071047 -4.376980 53.190737
-32.847026 -2.702329 53.288756
-33.761981 -1.092321 53.391342
-34.824878 0.448872 53.498788
-35.868624 1.998973 53.605605
-35.969690 3.987556 53.681452
-36.726923 5.670927 53.778856
-37.114502 7.526240 53.864116
-37.196417 9.523731 53.939334
-37.278331 11.521222 54.014552
-37.360246 13.518712 54.089770
-37.038653 15.368760 54.139791
-36.402504 17.103868 54.170170
-35.576185 18.769487 54.188674
-34.643196 20.396130 54.200517
-33.776411 22.046963 54.216494
-33.140262 23.782071 54.246873
-31.786468 25.254949 54.232439
-30.911244 26.902698 54.247889
-29.796525 28.462936 54.248384
-28.173014 29.353550 54.199873
-26.767694 30.715193 54.178929
-25.092657 31.494571 54.123909
-23.738863 32.967450 54.109475
-22.063825 33.746829 54.054454
-20.710032 35.219707 54.040020
-18.920045 35.750933 53.970477
-17.038714 36.084965 53.889392
-15.381415 36.902638 53.836613
-13.688639 37.643722 53.779351
-11.842785 38.054342 53.702749
-10.300623 39.120573 53.664517
-8.304155 39.206046 53.568886
-6.307686 39.291520 53.473255
-4.349722 39.460117 53.382489
-2.769056 40.443225 53.339392
-0.958719 40.020833 53.234865
0.851465 39.598022 53.130332
2.847933 39.683496 53.034701
4.844401 39.768970 52.939070
6.763201 39.642523 52.839728
8.464922 38.923767 52.730011
10.461391 39.009241 52.634380
12.225469 38.460631 52.527643
14.081911 38.164038 52.425320
15.705964 37.233361 52.311891
17.687737 37.278739 52.215558
19.326485 36.388158 52.102832
21.153691 36.011793 51.999112
22.623329 34.659793 51.878303
24.198642 33.596127 51.762545
25.825945 32.674320 51.649272
27.295584 31.322320 51.528463
28.765223 29.970319 51.407655
29.980197 29.095901 51.316449
31.274179 27.662195 51.201412
32.743817 26.310195 51.080603
33.519797 24.635544 50.982584
34.989436 23.283544 50.861775
36.275666 21.846232 50.746992
36.357580 19.848742 50.671774
37.317374 18.259590 50.567716
37.502392 16.310058 50.489110
37.584307 14.312567 50.413892
38.647204 12.771374 50.306446
38.413724 10.889129 50.250923
37.796131 9.147241 50.219385
37.878046 7.149750 50.144167
37.222921 5.421575 50.114973
37.026972 3.525617 50.057106
36.093984 1.898975 50.045263
35.314474 0.216251 50.023837
34.228008 -1.354310 50.021577
33.324531 -2.991735 50.007892
32.688381 -4.726843 49.977513
31.013344 -5.506222 50.032533
29.659550 -6.979100 50.046967
28.524179 -8.531791 50.047762
27.250402 -9.282108 50.083985
25.673326 -10.272966 50.126629
23.998289 -11.052344 50.181650
22.623917 -12.480799 50.198684
20.648214 -12.611102 50.291691
19.294420 -14.083980 50.306125
17.619383 -14.863359 50.361146
16.000964 -15.764965 50.409013
14.004495 -15.850439 50.504644
12.273028 -16.507996 50.566794
10.465865 -17.002143 50.638507
8.469397 -17.087617 50.734138
6.605429 -17.459132 50.813028
4.930767 -18.239322 50.868002
2.934299 -18.324795 50.963632
