ply
format ascii 1.0
element vertex 1560
property float x
property float y
property float z
end_header
8.387503 -79.581363 5.728525
6.813645 -78.560416 5.843587
4.812308 -78.533780 5.971999
2.993144 -78.083415 6.094722
1.237114 -77.486198 6.215474
-0.764223 -77.459563 6.343886
-2.401216 -76.585468 6.460920
-4.339417 -76.411981 6.587361
-6.340754 -76.385346 6.715774
-8.097848 -75.790605 6.836558
-9.915948 -75.337763 6.959248
-11.917285 -75.311128 7.087661
-13.492208 -74.292658 7.202756
-15.189570 -73.558980 7.321675
-17.066338 -73.242599 7.446197
-19.067674 -73.215963 7.574610
-20.886202 -72.764118 7.697313
-22.583565 -72.030440 7.816232
-24.216727 -71.147434 7.933146
-25.978289 -70.563085 8.054070
-27.675651 -69.829407 8.172990
-29.365780 -69.078904 8.291683
-31.070376 -68.362052 8.410828
-32.767738 -67.628375 8.529747
-34.514832 -67.010374 8.650219
-36.162463 -66.161020 8.767585
-37.859825 -65.427342 8.886504
-39.557187 -64.693665 9.005424
-40.952276 -63.256902 9.114903
-42.649639 -62.523225 9.233822
-44.385460 -61.879003 9.353942
-46.044363 -61.055870 9.471660
-47.741725 -60.322192 9.590579
-49.136815 -58.885430 9.700058
-50.834177 -58.151752 9.818977
-52.531539 -57.418075 9.937896
-53.926629 -55.981312 10.047375
-55.623991 -55.247635 10.166294
-57.019081 -53.810872 10.275773
-58.550184 -52.690476 10.389500
-60.111532 -51.640432 10.504171
-61.697900 -50.648582 10.619624
-63.203984 -49.469992 10.732569
-64.599074 -48.033230 10.842048
-66.007540 -47.184176 10.944109
-66.981787 -45.579342 11.029030
-68.978520 -45.547590 11.157220
-69.666773 -43.828539 11.225453
-70.937488 -42.924471 11.319475
-72.107689 -41.510029 11.414252
-73.037111 -40.357525 11.489938
-74.670872 -39.475913 11.606871
-75.859147 -38.079089 11.702556
-76.814914 -36.466875 11.786399
-77.818115 -35.455970 11.864811
-79.369761 -34.413370 11.978757
-80.185251 -32.995861 12.050884
-81.580341 -31.559099 12.160363
-82.265692 -29.838888 12.228426
-83.963054 -29.105211 12.347345
-84.690453 -27.401793 12.417862
-86.204356 -26.322399 12.529911
-86.649421 -24.778674 12.580117
-87.755528 -23.301751 12.671673
-89.413832 -22.477224 12.789373
-90.587451 -20.952013 12.885928
-91.494273 -19.320251 12.966914
-92.538130 -17.743217 13.055898
-93.574714 -16.163278 13.144456
-94.488809 -14.534421 13.225867
-94.945416 -12.722857 13.280582
-95.630767 -11.002647 13.348645
-96.411106 -9.320371 13.422251
-97.001470 -7.562226 13.484771
-98.361785 -6.111575 13.592221
-98.372172 -4.121805 13.620897
-99.308742 -2.501923 13.703620
-100.284082 -0.897525 13.788605
-100.428226 1.038827 13.825086
-101.823315 2.475590 13.934565
-102.206379 4.316525 13.984988
-103.181718 5.920923 14.069973
-103.153336 7.926177 14.096387
-103.854982 9.639880 14.165401
-104.100294 11.535829 14.207786
-104.515946 13.363749 14.260111
-105.047251 15.145480 14.319185
-105.018869 17.150734 14.345599
-105.152523 19.091276 14.381468
-105.965827 20.760386 14.456998
-105.937445 22.765640 14.483412
-105.909063 24.770894 14.509826
-105.880681 26.776148 14.536240
-105.852299 28.781402 14.562653
-105.823917 30.786656 14.589067
-105.795535 32.791910 14.615481
-105.767153 34.797164 14.641895
-105.738771 36.802418 14.668309
-105.710389 38.807672 14.694723
-104.690009 40.385510 14.651656
-104.661627 42.390764 14.678070
-104.301424 44.253048 14.681243
-103.612865 45.973855 14.661417
-103.584483 47.979109 14.687831
-102.801536 49.659249 14.661394
-102.535720 51.562201 14.671177
-101.515340 53.140039 14.628110
-100.600199 54.763220 14.592414
-100.466578 56.723130 14.611457
-99.446198 58.300968 14.568389
-98.398862 59.867192 14.523434
-97.405437 61.456643 14.482255
-96.385057 63.034481 14.439188
-95.496076 64.668934 14.405324
-94.060849 66.068029 14.333200
-93.323916 67.767994 14.309986
-92.311031 68.759812 14.259148
-91.291445 70.337993 14.216136
-90.142024 71.860231 14.164031
-88.487938 72.708137 14.070146
-87.246596 74.058412 14.009738
-86.255530 75.648880 13.968724
-85.205836 77.214088 13.923604
-83.804263 78.038435 13.845542
-82.369036 79.437530 13.773418
-80.651548 80.125760 13.673229
-79.216320 81.524855 13.601105
-77.498833 82.213086 13.500916
-76.765054 83.914410 13.477922
-75.047566 84.602640 13.377733
-73.612338 86.001735 13.305609
-71.894851 86.689966 13.205420
-70.459623 88.089060 13.133296
-68.609641 88.443608 13.019933
-67.024648 89.465522 12.932918
-65.405320 90.400965 12.842489
-63.803160 91.379644 12.753766
-61.872185 91.530213 12.632350
-60.199663 92.331688 12.536632
-58.437209 92.906674 12.431971
-56.995342 94.289046 12.359187
-54.994005 94.262411 12.230775
-53.284746 94.971366 12.131404
-51.390508 95.214455 12.013640
-49.849771 96.347827 11.931025
-48.186187 97.171813 11.836196
-46.184851 97.145178 11.707783
-44.415048 97.701655 11.602392
-42.581354 98.097222 11.490648
-40.979193 99.075900 11.401926
-38.977857 99.049265 11.273514
-36.976520 99.022630 11.145101
-34.975184 98.995995 11.016689
-33.263342 99.698445 10.917061
-31.371687 99.948039 10.799554
-29.370351 99.921404 10.671141
-27.369014 99.894769 10.542729
-25.367678 99.868134 10.414316
-23.366341 99.841499 10.285904
-21.365005 99.814864 10.157491
-19.547369 100.250873 10.047344
-17.761508 100.766908 9.940356
-15.760171 100.740273 9.811944
-13.758835 100.713638 9.683531
-11.757499 100.687003 9.555119
-9.756162 100.660368 9.426706
-7.754826 100.633733 9.298294
-6.139191 99.709956 9.181927
-4.179631 99.586150 9.054819
-2.178295 99.559515 8.926407
-0.176958 99.532880 8.797994
1.824378 99.506245 8.669581
3.556711 98.853909 8.549570
5.399573 98.458663 8.426107
7.400909 98.432028 8.297694
9.253343 98.059046 8.173932
10.976104 97.384446 8.054220
12.977440 97.357811 7.925807
14.647703 96.561099 7.807734
16.552635 96.310228 7.682333
18.553971 96.283593 7.553920
20.127830 95.262646 7.438858
22.041697 95.032559 7.313177
23.703024 94.215063 7.195384
25.276882 93.194116 7.080322
27.278219 93.167481 6.951909
29.133419 92.800934 6.828060
30.853414 92.119899 6.708434
32.528144 91.333579 6.590222
34.225506 90.599901 6.471303
36.002466 90.051369 6.349898
37.620230 89.132546 6.233465
39.577661 89.003787 6.106423
41.151519 87.982839 5.991361
42.725377 86.961892 5.876299
44.711952 86.900921 5.748348
46.300572 85.914309 5.632825
47.094665 84.447033 5.561366
48.792028 83.713355 5.442447
50.437614 82.859247 5.325144
52.186752 82.246000 5.204608
54.012808 81.811664 5.081670
55.581477 80.778645 4.966770
56.976566 79.341883 4.857291
58.673928 78.608205 4.738372
60.308241 77.727875 4.621422
61.766380 76.437765 4.509974
63.455958 75.685980 4.391298
64.858832 74.267325 4.281576
66.556194 73.533648 4.162657
68.177532 72.623138 4.046112
68.938908 71.079760 3.975675
70.636270 70.346082 3.856755
72.031359 68.909320 3.747277
73.353720 68.025878 3.650240
74.450279 66.539648 3.559164
76.111435 65.721754 3.441375
77.506525 64.284992 3.331896
78.901614 62.848229 3.222418
80.254440 61.976954 3.123603
81.307559 60.448378 3.034710
82.271951 59.377216 2.957932
83.870743 58.414263 2.842092
84.654665 56.923328 2.770950
86.352027 56.189650 2.652031
87.747117 54.752888 2.542552
89.114128 53.304912 2.434712
89.827557 51.595915 2.365010
91.073096 50.681793 2.272457
91.500533 48.858579 2.219444
93.032065 48.058674 2.110202
93.883246 46.404691 2.032462
94.982744 44.849878 1.940232
95.963687 43.247718 1.854920
97.539931 42.232321 1.739783
97.917052 40.622361 1.692992
99.091104 39.211673 1.598021
99.876020 37.999242 1.530737
100.704727 36.336283 1.454309
101.834989 35.376123 1.368482
102.377702 33.598947 1.308742
103.772791 32.162185 1.199264
104.458143 30.441974 1.131201
104.732625 28.557675 1.087113
105.707965 26.953277 1.002128
105.804458 24.997895 0.968428
106.654922 23.343625 0.890730
107.175160 21.557473 0.832302
108.570250 20.120711 0.722823
109.589230 19.116108 0.643490
109.560848 17.110854 0.617076
110.218838 15.379716 0.550609
110.507806 13.501202 0.505677
111.483145 11.896804 0.420692
111.565154 9.935637 0.387836
112.430103 8.287152 0.309293
112.401721 6.281898 0.282879
112.373339 4.276645 0.256465
112.344957 2.271391 0.230051
113.320296 0.666993 0.145066
113.291914 -1.338261 0.118652
113.263532 -3.343515 0.092239
113.235150 -5.348769 0.065825
113.206769 -7.354023 0.039411
113.450498 -9.250604 -0.002882
114.153726 -10.963675 -0.071988
114.125344 -12.968929 -0.098402
113.405285 -14.676164 -0.076370
113.076582 -16.552021 -0.081749
113.048200 -18.557275 -0.108163
112.027820 -20.135113 -0.065096
111.999438 -22.140367 -0.091510
111.840736 -24.089470 -0.108796
110.950675 -25.723458 -0.074856
110.922293 -27.728712 -0.101270
110.340848 -29.495671 -0.088947
109.873531 -31.311804 -0.084617
108.873290 -32.898319 -0.042960
108.139511 -34.599642 -0.019967
107.804389 -36.472733 -0.024896
106.784009 -38.050571 0.018171
105.938174 -39.703614 0.049013
104.743248 -41.206246 0.104306
103.769167 -42.804033 0.144130
103.035388 -44.505357 0.167123
101.682107 -45.939759 0.233507
100.866382 -47.605775 0.262240
99.431154 -49.004870 0.334364
98.620967 -50.673272 0.362709
96.979888 -51.394424 0.457547
96.246109 -53.095748 0.480540
94.810881 -54.494843 0.552664
93.375653 -55.893938 0.624788
91.940426 -57.293033 0.696912
90.222938 -57.981264 0.797101
89.480416 -59.660567 0.820964
87.489411 -59.659954 0.948349
86.494708 -61.248855 0.989618
85.258467 -62.604383 1.049624
83.602917 -63.448603 1.143655
82.054146 -64.561741 1.227069
80.450202 -65.535928 1.315968
79.014974 -66.935023 1.388092
77.297486 -67.623254 1.488281
75.645504 -68.476457 1.581957
73.862511 -68.999715 1.688660
72.427283 -70.398810 1.760784
70.439846 -70.407179 1.887814
68.710048 -71.064407 1.989228
67.235525 -72.364537 2.065259
65.275073 -72.440868 2.189606
63.839845 -73.839963 2.261730
62.122358 -74.528193 2.361919
60.427707 -75.273939 2.459838
58.426371 -75.247304 2.588250
56.687635 -75.882021 2.690552
54.822874 -76.199348 2.805385
53.220713 -77.178027 2.894107
51.219377 -77.151392 3.022520
49.535424 -77.924079 3.119375
47.615880 -78.103436 3.239654
45.614543 -78.076801 3.368067
43.613207 -78.050166 3.496480
42.011047 -79.028844 3.585202
40.009710 -79.002209 3.713614
38.383718 -79.920869 3.804706
36.406213 -79.954253 3.930749
34.404877 -79.927618 4.059162
32.403540 -79.900983 4.187574
30.402204 -79.874348 4.315987
28.400867 -79.847713 4.444399
26.399531 -79.821078 4.572812
24.398195 -79.794443 4.701224
22.396858 -79.767808 4.829637
20.395522 -79.741173 4.958049
18.394185 -79.714538 5.086462
16.392849 -79.687903 5.214875
14.391512 -79.661268 5.343287
12.390176 -79.634633 5.471700
10.388839 -79.607998 5.600112
-4.983425 -33.675502 16.119655
-6.563677 -32.654770 16.271554
-8.571702 -32.628239 16.435618
-10.389025 -32.158492 16.594259
-12.090065 -31.418487 16.749592
-13.740231 -30.560243 16.903479
-15.189665 -29.235470 17.051658
-16.588225 -27.792458 17.198389
-17.839820 -26.872770 17.321231
-19.049679 -25.490826 17.451211
-19.970701 -24.302472 17.553266
-21.369261 -22.859460 17.699997
-22.058739 -21.132967 17.795468
-22.748216 -19.406474 17.890938
-24.146776 -17.963462 18.037670
-24.657005 -16.165307 18.120182
-24.626843 -14.151111 18.163627
-25.506128 -12.500500 18.272819
-26.195606 -10.774007 18.368290
-26.541942 -8.910330 18.438954
-26.511780 -6.896134 18.482399
-26.481618 -4.881938 18.525845
-26.826273 -3.017589 18.596387
-27.424086 -1.254449 18.685231
-27.393924 0.759747 18.728677
-27.363762 2.773943 18.772123
-27.211785 4.735590 18.804455
-26.313046 6.375096 18.768657
-26.282883 8.389292 18.812103
-25.262329 9.976250 18.765192
-25.232167 11.990446 18.808638
-24.907897 13.877769 18.825251
-24.181451 15.591600 18.805172
-24.126404 17.595061 18.846348
-23.130735 19.192753 18.801707
-22.644598 21.010250 18.803552
-21.903695 22.717844 18.782154
-21.059464 24.380865 18.751330
-20.038910 25.967822 18.704418
-19.018356 27.554780 18.657507
-18.239772 29.246119 18.632671
-16.798556 30.651610 18.547381
-15.956694 32.315653 18.516773
-14.616438 33.764696 18.440694
-13.175222 35.170188 18.355404
-12.434319 36.877782 18.334006
-10.993104 38.283274 18.248716
-9.551888 39.688765 18.163426
-8.110673 41.094256 18.078136
-6.604152 42.334756 17.983771
-4.946932 43.194519 17.868461
-3.967558 44.299627 17.813921
-2.357366 45.278205 17.705147
-0.795340 46.306481 17.601426
0.279227 47.243076 17.535297
2.265071 47.272584 17.374316
3.706286 48.678075 17.289026
5.428812 49.372847 17.164640
7.117827 50.152281 17.044911
8.873863 50.762390 16.915868
10.736043 51.104328 16.772073
12.744068 51.077797 16.608009
14.752092 51.051266 16.443945
16.760117 51.024735 16.279882
18.370308 52.003314 16.171108
20.378333 51.976783 16.007044
22.031979 51.126629 15.853058
23.966610 50.929520 15.691081
25.736540 50.349624 15.533788
27.554887 49.882256 15.375118
29.138620 48.869614 15.223121
30.839660 48.129608 15.067787
32.112372 47.218363 14.943418
33.292107 45.807041 14.815222
34.931218 44.923104 14.661649
36.329778 43.480092 14.514918
37.014457 41.751681 14.419794
37.708734 40.027106 14.323977
38.968488 39.110680 14.200545
40.099252 37.560607 14.073173
40.913750 35.884095 13.968664
41.478208 34.107620 13.882232
41.856219 32.256606 13.809278
41.826056 30.242410 13.765833
42.798687 28.629118 13.649892
42.768525 26.614922 13.606447
43.507434 24.908190 13.507403
43.710994 22.987433 13.447061
43.680831 20.973237 13.403615
43.650669 18.959041 13.360169
43.620507 16.944845 13.316723
43.590345 14.930649 13.273277
42.569791 13.343692 13.320189
42.539628 11.329496 13.276743
42.509466 9.315300 13.233297
42.206051 7.418980 13.214781
41.458750 5.714146 13.236763
41.424559 3.701688 13.193684
40.408034 2.112993 13.240228
40.377872 0.098797 13.196782
39.902163 -1.723198 13.193985
39.161260 -3.430793 13.215383
38.306601 -5.089315 13.247159
37.286047 -6.676272 13.294071
36.265493 -8.263230 13.340982
35.497336 -9.959068 13.364866
34.572321 -11.201507 13.411852
33.212600 -12.438519 13.494347
32.293005 -14.069028 13.532047
31.552102 -15.776623 13.553445
30.678589 -17.149181 13.593273
29.139153 -18.200765 13.694623
28.066461 -19.175863 13.759722
27.106814 -20.789096 13.801077
25.884343 -22.288949 13.866410
24.443127 -23.694441 13.951700
23.001912 -25.099932 14.036990
21.370491 -26.024877 14.148714
19.760299 -27.003455 14.257488
18.115645 -27.894967 14.371051
17.123705 -28.968326 14.427338
15.370907 -29.586613 14.555931
13.903322 -30.925483 14.644886
11.925856 -30.976156 14.804703
10.285105 -31.877531 14.917724
8.674913 -32.856109 15.026497
6.758279 -33.060471 15.177860
5.056697 -33.808157 15.299335
3.048673 -33.781626 15.463399
1.040648 -33.755095 15.627463
-0.967376 -33.728564 15.791527
-2.975400 -33.702033 15.955591
11.198963 -55.017305 57.575581
9.595646 -54.046512 57.740290
7.593958 -54.082089 57.895514
5.592270 -54.117667 58.050738
3.590583 -54.153245 58.205961
1.987265 -53.182451 58.370670
-0.014422 -53.218029 58.525894
-1.951980 -53.091601 58.682644
-3.619427 -52.282813 58.845826
-5.621115 -52.318391 59.001050
-7.224432 -51.347597 59.165758
-9.226120 -51.383175 59.320982
-10.829437 -50.412381 59.485690
-12.831125 -50.447959 59.640914
-14.539543 -49.742672 59.803120
-16.257283 -49.060935 59.965104
-17.975023 -48.379199 60.127089
-19.642764 -47.571155 60.290263
-21.644452 -47.606733 60.445487
-23.247769 -46.635939 60.610195
-24.851086 -45.665145 60.774904
-26.563724 -44.970518 60.937009
-28.281464 -44.288782 61.098994
-29.717513 -42.895434 61.267684
-31.435253 -42.213697 61.429669
-32.871303 -40.820349 61.598359
-34.869360 -40.846754 61.753670
-36.306783 -39.456877 61.922328
-38.024523 -38.775141 62.084312
-39.460573 -37.381792 62.253003
-40.896622 -35.988444 62.421693
-42.487575 -34.986414 62.586696
-44.050412 -33.913359 62.752368
-45.486462 -32.520011 62.921059
-46.922511 -31.126663 63.089750
-48.358561 -29.733314 63.258441
-49.794610 -28.339966 63.427132
-51.031493 -26.859876 63.583739
-51.966088 -25.248131 63.722008
-53.071536 -23.710797 63.870643
-54.137565 -22.156296 64.016885
-55.111578 -20.561719 64.157546
-56.131599 -18.987180 64.300997
-57.044471 -17.365974 64.437949
-57.779899 -15.667488 64.564135
-58.515327 -13.969001 64.690321
-59.250755 -12.270514 64.816507
-60.240877 -10.682953 64.958145
-60.721611 -8.873541 65.068879
-61.290091 -7.102344 65.184937
-62.192468 -5.476568 65.321252
-62.339305 -3.521735 65.411730
-62.368498 -1.515665 65.495071
-63.388519 0.058874 65.638522
-63.417712 2.064944 65.721863
-63.446905 4.071014 65.805204
-63.476098 6.077084 65.888545
-63.505291 8.083153 65.971886
-63.534484 10.089223 66.055227
-63.216210 11.958058 66.105829
-62.589997 13.705268 66.127415
-62.619190 15.711338 66.210756
-61.868467 17.409372 66.220611
-61.674704 19.327383 66.282944
-61.206352 21.136942 66.319405
-60.520725 22.860687 66.335393
-59.756538 24.553403 66.343980
-58.782859 26.163378 66.332827
-57.809179 27.773353 66.321674
-57.069080 29.475582 66.332530
-56.383453 31.199327 66.348518
-55.697826 32.923071 66.364506
-54.303061 34.366734 66.313678
-53.617434 36.090478 66.329666
-52.222670 37.534141 66.278837
-50.993424 39.043178 66.243604
-50.142279 40.701549 66.243997
-48.747514 42.145212 66.193168
-47.352749 43.588874 66.142339
-45.957985 45.032537 66.091510
-44.563220 46.476200 66.040681
-42.866205 47.218630 65.937863
-41.471440 48.662293 65.887034
-40.076676 50.105956 65.836205
-38.455473 51.024274 65.746428
-36.984896 52.292048 65.682559
-35.306992 53.078817 65.583028
-33.590865 53.776908 65.476922
-32.158510 55.133359 65.419628
-30.499086 55.963000 65.323276
-29.010029 57.187902 65.256228
-27.407306 58.149093 65.169629
-25.710290 58.891523 65.066811
-24.013275 59.633952 64.963993
-22.285619 60.305294 64.855904
-20.316994 60.417579 64.706367
-18.709690 61.368143 64.618980
-17.135449 62.395414 64.537280
-15.528199 63.346101 64.449902
-13.559521 63.458263 64.300356
-11.831917 64.129727 64.192277
-9.983592 64.521113 64.063433
-8.135636 64.913353 63.934652
-6.407664 65.583962 63.826509
-4.439355 65.696979 63.677026
-2.831735 66.646811 63.589585
-0.830047 66.682389 63.434361
0.953942 67.223035 63.316583
2.745881 67.745238 63.197437
4.747569 67.780816 63.042213
6.749257 67.816393 62.886990
8.648755 68.089054 62.749343
10.325185 68.879242 62.650066
12.326873 68.914820 62.494842
14.328561 68.950398 62.339618
16.330249 68.985976 62.184394
18.331937 69.021554 62.029171
20.333625 69.057131 61.873947
22.335312 69.092709 61.718723
24.337000 69.128287 61.563499
26.338688 69.163865 61.408275
28.057557 68.484979 61.246318
29.943693 68.228649 61.088343
31.945381 68.264227 60.933119
33.947069 68.299804 60.777895
35.773589 67.892871 60.618501
37.552074 67.364588 60.457963
39.553762 67.400166 60.302739
41.208500 66.559275 60.139255
43.158767 66.464950 59.982807
44.925671 65.907414 59.821993
46.763771 65.529734 59.662875
48.642842 65.255554 59.504732
50.368776 64.594518 59.342943
52.078322 63.892082 59.180763
53.973781 63.659302 59.023010
55.577099 62.688508 58.858302
57.513234 62.558485 58.701517
59.182103 61.753292 58.538370
60.948714 61.195013 58.377549
62.666454 60.513277 58.215565
64.384194 59.831541 58.053581
65.993743 58.876489 57.889021
67.597060 57.905695 57.724312
69.255724 57.074720 57.560922
70.803694 55.964108 57.394896
72.409514 54.999635 57.230247
73.845563 53.606287 57.061556
75.563303 52.924551 56.899572
77.216963 52.080933 56.736062
78.717093 50.849466 56.568897
80.153142 49.456118 56.400206
81.870883 48.774382 56.238222
83.306932 47.381034 56.069531
84.742982 45.987685 55.900840
86.179031 44.594337 55.732149
87.615081 43.200988 55.563459
88.564564 41.595728 55.424286
89.786558 40.109153 55.268582
91.222608 38.715805 55.099891
91.958036 37.017319 54.973705
93.394085 35.623970 54.805014
94.129513 33.925484 54.678828
94.864942 32.226997 54.552642
95.704712 30.573954 54.420125
96.724734 28.999415 54.276674
97.744755 27.424876 54.133222
98.507275 25.738189 54.005392
99.242703 24.039702 53.879206
99.813990 22.269728 53.762978
100.012938 20.337590 53.669339
100.863204 18.689118 53.536185
100.892397 16.683049 53.452845
101.518601 14.936992 53.333285
101.941611 13.102440 53.226052
101.970804 11.096370 53.142711
101.999997 9.090300 53.059370
102.029190 7.084230 52.976029
102.058383 5.078160 52.892688
102.087575 3.072090 52.809347
101.113896 1.462115 52.820500
101.143089 -0.543955 52.737159
101.104345 -2.523192 52.660219
100.198603 -4.160000 52.664971
99.733091 -5.970681 52.628243
99.254116 -7.776045 52.592783
98.361838 -9.418170 52.596266
97.676211 -11.141914 52.580277
96.990584 -12.865658 52.564289
96.304957 -14.589403 52.548301
95.388592 -16.222014 52.554053
94.414913 -17.831989 52.565206
93.538939 -19.480554 52.567153
92.467554 -21.051939 52.587512
91.458547 -22.647962 52.601993
90.520195 -24.271889 52.609817
89.378156 -25.815369 52.636834
87.983391 -27.259032 52.687663
86.588627 -28.702695 52.738491
85.193862 -30.146358 52.789320
83.799098 -31.590020 52.840149
82.290088 -32.768629 52.910629
80.707318 -33.776113 52.993796
79.312553 -35.219776 53.044625
77.615538 -35.962206 53.147443
75.993125 -36.877715 53.237429
74.523758 -38.148298 53.301090
73.128994 -39.591961 53.351919
71.431978 -40.334391 53.454737
70.037214 -41.778054 53.505566
68.340199 -42.520484 53.608384
66.643183 -43.262913 53.711202
64.973439 -44.068614 53.809329
63.399199 -45.095885 53.891029
61.824958 -46.123157 53.972729
59.855122 -46.232632 54.122474
58.249029 -47.186006 54.209653
56.461091 -47.717491 54.328110
54.673101 -48.248855 54.446577
53.067061 -49.202351 54.533746
51.097172 -49.311704 54.683500
49.522932 -50.338975 54.765200
47.521244 -50.374553 54.920424
45.947003 -51.401825 55.002124
43.945315 -51.437402 55.157348
42.280468 -52.254462 55.254633
40.369387 -52.500251 55.394272
38.367699 -52.535829 55.549496
36.793458 -53.563101 55.631196
34.791770 -53.598678 55.786419
32.790082 -53.634256 55.941643
30.788394 -53.669834 56.096867
29.192358 -54.646537 56.182316
27.212466 -54.732683 56.333791
25.210778 -54.768261 56.489015
23.209090 -54.803839 56.644239
21.207402 -54.839416 56.799462
19.205715 -54.874994 56.954686
17.204027 -54.910572 57.109910
15.202339 -54.946150 57.265134
13.200651 -54.981728 57.420358
-68.963084 -157.104416 83.662378
-70.567425 -156.145966 83.846248
-72.563887 -156.196150 84.008357
-74.560348 -156.246333 84.170467
-76.164689 -155.287884 84.354336
-78.161151 -155.338068 84.516446
-80.103950 -155.250217 84.681533
-81.761953 -154.429802 84.862425
-83.540300 -153.918940 85.036638
-85.362756 -153.521536 85.208404
-86.976651 -152.587662 85.391743
-88.963558 -152.613270 85.554383
-90.567899 -151.654820 85.738252
-92.172240 -150.696371 85.922121
-93.849352 -149.925107 86.101952
-95.567528 -149.259469 86.279504
-97.008432 -147.880619 86.472442
-98.981724 -147.871206 86.635838
-100.444782 -146.549341 86.827547
-102.162957 -145.883702 87.005099
-103.603862 -144.504852 87.198038
-105.322037 -143.839214 87.375590
-106.762941 -142.460363 87.568529
-108.203845 -141.081513 87.761467
-109.644749 -139.702663 87.954405
-111.085653 -138.323813 88.147344
-112.526557 -136.944963 88.340282
-113.967461 -135.566113 88.533221
-115.408365 -134.187263 88.726159
-116.849269 -132.808413 88.919098
-118.290173 -131.429563 89.112036
-119.370978 -129.890857 89.283828
-120.473450 -128.361770 89.456892
-121.429291 -126.767590 89.621346
-122.656727 -125.293976 89.801749
-123.487605 -123.644322 89.958864
-124.141472 -121.916090 90.105584
-125.545918 -120.521055 90.296381
-126.324749 -118.848296 90.450440
-127.067122 -117.159353 90.602357
-127.809495 -115.470409 90.754275
-128.674672 -113.835982 90.913404
-129.294241 -112.092523 91.058110
-129.745113 -110.274176 91.192909
-130.774270 -108.712542 91.361668
-130.822828 -106.715599 91.472842
-131.844711 -105.150736 91.641173
-131.885995 -103.150565 91.751920
-132.351415 -101.338676 91.887574
-132.956436 -99.588759 92.031425
-132.997721 -97.588587 92.142172
-133.181471 -95.651659 92.261284
-134.068162 -94.026781 92.421677
-134.109446 -92.026609 92.532424
-134.150730 -90.026437 92.643170
-134.192015 -88.026265 92.753916
-134.233299 -86.026093 92.864663
-134.274584 -84.025921 92.975409
-134.315868 -82.025749 93.086156
-133.775152 -80.250541 93.136787
-133.393495 -78.413852 93.203848
-133.434779 -76.413680 93.314594
-133.180600 -74.527715 93.394822
-132.512407 -72.801782 93.432286
-132.553691 -70.801610 93.543032
-131.875447 -69.079562 93.579458
-131.631318 -67.189713 93.660724
-130.667661 -65.577987 93.667669
-130.570294 -63.631409 93.764094
-129.745288 -61.966089 93.785361
-129.226457 -60.182422 93.838253
-128.554539 -58.457929 93.875332
-127.859258 -56.742466 93.909998
-127.900542 -54.742294 94.020745
-129.321037 -53.354384 94.212485
-130.063410 -51.665441 94.364402
-130.988012 -50.057393 94.527021
-132.017169 -48.495759 94.695780
-132.989060 -46.908704 94.861176
-133.731432 -45.219761 95.013093
-134.473805 -43.530817 95.165011
-135.216178 -41.841874 95.316929
-136.175080 -40.249052 95.481562
-137.204236 -38.687419 95.650321
-137.443297 -36.775044 95.772681
-138.274677 -35.125613 95.929826
-138.928042 -33.397157 96.076516
-139.345119 -31.563807 96.209331
-140.374275 -30.002174 96.378090
-140.456629 -28.020233 96.491248
-141.444716 -26.440368 96.657595
-141.486001 -24.440196 96.768342
-142.515157 -22.878562 96.937101
-142.556442 -20.878390 97.047847
-142.771431 -18.955330 97.168794
-143.626883 -17.316584 97.327352
-143.668167 -15.316412 97.438099
-143.709451 -13.316240 97.548845
-143.750736 -11.316069 97.659592
-144.779892 -9.754435 97.828351
-144.821177 -7.754263 97.939097
-144.862461 -5.754091 98.049844
-144.903745 -3.753919 98.160590
-144.945030 -1.753747 98.271336
-144.986314 0.246425 98.382083
-145.027598 2.246597 98.492829
-145.068883 4.246769 98.603576
-144.777722 6.118439 98.679984
-144.146510 7.858667 98.721268
-144.187794 9.858839 98.832014
-144.229079 11.859011 98.942761
-144.221852 13.840431 99.048496
-143.306706 15.470908 99.060452
-143.347990 17.471080 99.171199
-142.916699 19.288584 99.233133
-142.425617 21.082978 99.288891
-142.283464 23.012244 99.380690
-141.503244 24.694875 99.406582
-140.939628 26.461231 99.454848
-140.580872 28.306773 99.524274
-140.306392 30.184891 99.602405
-139.634474 31.909384 99.639484
-138.694841 33.530396 99.648911
-137.731184 35.142122 99.655856
-137.618720 37.082864 99.750722
-136.808811 38.754019 99.773548
-135.845154 40.365745 99.780493
-134.892365 41.981671 99.788561
-134.220447 43.706164 99.825641
-133.548528 45.430658 99.862720
-132.876610 47.155151 99.899799
-132.031810 48.812819 99.919021
-130.822173 50.329465 99.900559
-130.104495 52.036270 99.932912
-128.767736 53.503778 99.901319
-128.095818 55.228272 99.938398
-126.713299 56.678092 99.902079
-126.041381 58.402585 99.939158
-124.658861 59.852406 99.902839
-123.986943 61.576899 99.939918
-122.604424 63.026719 99.903599
-121.221905 64.476540 99.867279
-120.426638 66.153354 99.891618
-119.167468 67.650853 99.868039
-117.784949 69.100674 99.831720
-116.402430 70.550494 99.795401
-115.019911 72.000314 99.759081
-113.637391 73.450134 99.722762
-112.254872 74.899955 99.686443
-110.872353 76.349775 99.650123
-109.489834 77.799595 99.613804
-107.834977 78.628552 99.521686
-106.418385 80.000696 99.478385
-105.035866 81.450516 99.442066
-103.578911 82.730640 99.390495
-101.964418 83.651617 99.306647
-100.581899 85.101438 99.270328
-99.199379 86.551258 99.234008
-97.510450 87.302538 99.134909
-96.127931 88.752359 99.098589
-94.439001 89.503639 98.999490
-93.056482 90.953460 98.963171
-91.507185 92.023068 98.892680
-89.985033 93.154560 98.827752
-88.602514 94.604381 98.791432
-86.913585 95.355661 98.692333
-85.254657 96.175339 98.599380
-83.842136 97.556762 98.556914
-82.153207 98.308043 98.457814
-80.565262 99.289543 98.379405
-79.081758 100.509144 98.322395
-77.438998 101.365679 98.232755
-75.703899 102.011705 98.124196
-74.014970 102.762985 98.025096
-72.326040 103.514266 97.925997
-70.753140 104.530066 97.850671
-69.190008 105.568134 97.777346
-67.565662 106.466647 97.691478
-65.876732 107.217928 97.592379
-64.187803 107.969208 97.493279
-62.504151 108.732521 97.395261
-60.809944 109.471770 97.295080
-59.121014 110.223050 97.195980
-57.381426 110.858840 97.086501
-55.743155 111.725611 96.997781
-54.054226 112.476892 96.898682
-52.258700 112.985160 96.777741
-50.676367 113.979453 96.700482
-48.699106 114.073411 96.542307
-47.135975 115.111479 96.468982
-45.139513 115.161663 96.306872
-43.576381 116.199730 96.233547
-41.618898 116.338776 96.079424
-40.016787 117.287982 95.998112
-38.241039 117.841338 95.881224
-36.457194 118.376233 95.762678
-34.556770 118.645359 95.620245
-32.897600 119.464485 95.527243
-30.901139 119.514668 95.365133
-29.338007 120.552736 95.291808
-27.341545 120.602920 95.129698
-25.778413 121.640988 95.056373
-23.781951 121.691171 94.894264
-21.785490 121.741355 94.732154
-20.126103 122.559984 94.639107
-18.225896 122.829606 94.496719
-16.229435 122.879790 94.334609
-14.446493 123.416747 94.216248
-12.669841 123.968041 94.099175
-10.673379 124.018225 93.937065
-8.676918 124.068408 93.774955
-6.771544 124.326250 93.631508
-5.117324 125.156660 93.539521
-3.120863 125.206843 93.377411
-1.124401 125.257027 93.215301
0.872061 125.307210 93.053191
2.868522 125.357394 92.891082
4.431654 126.395462 92.817757
6.428116 126.445645 92.655647
8.424578 126.495829 92.493537
10.421039 126.546013 92.331427
12.417501 126.596196 92.169318
14.413963 126.646380 92.007208
16.410424 126.696563 91.845098
18.406886 126.746747 91.682988
20.403348 126.796930 91.520879
22.399809 126.847114 91.358769
24.396271 126.897297 91.196659
26.392733 126.947481 91.034549
28.389194 126.997664 90.872440
30.385656 127.047848 90.710330
32.231818 126.711424 90.539880
33.986458 126.139582 90.364351
35.982920 126.189766 90.202241
37.979382 126.239949 90.040132
39.975843 126.290133 89.878022
41.931780 126.236076 89.713663
43.576646 125.381867 89.532043
45.573107 125.432050 89.369933
47.569569 125.482234 89.207824
49.566031 125.532417 89.045714
51.170372 124.573968 88.861845
53.166833 124.624151 88.699735
55.163295 124.674335 88.537625
56.786267 123.763811 88.354790
58.764097 123.766069 88.191646
60.760559 123.816252 88.029537
62.495336 123.193317 87.852906
64.361362 122.907987 87.683558
66.208958 122.575251 87.513187
67.962164 121.999721 87.337579
69.922580 121.957185 87.173469
71.562967 121.091455 86.991600
73.559428 121.141638 86.829490
75.163769 120.183189 86.645621
77.160231 120.233372 86.483511
78.790728 119.342202 86.301094
80.761033 119.325106 86.137533
82.365374 118.366657 85.953663
84.222525 118.058497 85.783823
85.966177 117.458391 85.607685
87.658875 116.727220 85.428719
89.566979 116.550125 85.261706
91.171320 115.591675 85.077837
92.813401 114.730304 84.896062
94.772122 114.683409 84.731858
96.376463 113.724960 84.547989
97.980804 112.766510 84.364120
99.963374 112.780960 84.201239
101.581607 111.858244 84.018141
103.185947 110.899795 83.834272
104.840628 110.070832 83.653196
106.558804 109.405194 83.475644
108.276979 108.739555 83.298091
109.995432 108.074630 83.120554
111.713330 107.408277 82.942987
113.204113 106.157731 82.752816
114.872409 105.363789 82.572496
116.590584 104.698150 82.394944
118.308760 104.032511 82.217391
119.749664 102.653661 82.024453
121.467839 101.988022 81.846901
123.186014 101.322384 81.669348
124.826620 100.457217 81.487492
126.345094 99.277895 81.298858
128.035302 98.540318 81.119753
129.504173 97.233406 80.928367
131.222348 96.567767 80.750815
132.663252 95.188917 80.557876
134.381427 94.523278 80.380324
135.822332 93.144428 80.187385
137.263236 91.765578 79.994447
138.704140 90.386728 79.801508
140.145044 89.007878 79.608570
141.690128 87.897006 79.421413
143.304123 86.963390 79.238079
144.745027 85.584539 79.045141
146.185931 84.205689 78.852202
147.626835 82.826839 78.659264
149.067739 81.447989 78.466325
150.785914 80.782351 78.288773
152.226818 79.403501 78.095834
153.667722 78.024651 77.902896
155.108626 76.645801 77.709957
156.549530 75.266951 77.517019
157.990434 73.888100 77.324081
158.732807 72.199157 77.172163
160.173711 70.820307 76.979224
161.614615 69.441457 76.786286
162.663930 67.888772 76.616343
163.797892 66.373664 76.441430
164.722243 64.765504 76.278826
165.981169 63.305870 76.096574
166.780556 61.642237 75.941308
168.164446 60.238077 75.751718
168.906819 58.549133 75.599800
170.347723 57.170283 75.406862
171.090096 55.481340 75.254944
171.926340 53.834068 75.097514
172.955496 52.272434 74.928755
173.984653 50.710801 74.759996
174.758118 49.035660 74.606253
175.500491 47.346716 74.454335
176.242864 45.657773 74.302418
177.113407 44.025727 74.142974
177.727609 42.279886 73.998583
178.469982 40.590943 73.846665
179.213005 38.902288 73.694709
180.242162 37.340654 73.525951
180.283446 35.340482 73.415204
181.312603 33.778848 73.246445
181.483315 31.836132 73.128098
182.383044 30.217043 72.966940
182.424328 28.216871 72.856193
183.453485 26.655237 72.687435
183.494769 24.655065 72.576688
183.798117 22.771229 72.450552
184.565210 21.093259 72.297183
184.606494 19.093087 72.186436
184.647779 17.092915 72.075690
184.689063 15.092743 71.964943
185.718220 13.531110 71.796185
185.759504 11.530938 71.685438
185.800788 9.530766 71.574692
185.842073 7.530594 71.463945
185.883357 5.530422 71.353199
185.924642 3.530250 71.242452
185.965926 1.530078 71.131706
186.007210 -0.470094 71.020959
185.626164 -2.307020 70.953836
185.084837 -4.081992 70.903268
185.126122 -6.082164 70.792521
185.167406 -8.082336 70.681775
185.070295 -10.029013 70.585323
184.245033 -11.694233 70.564083
184.286318 -13.694405 70.453336
183.765141 -15.477166 70.400687
183.363945 -17.306303 70.335645
183.131906 -19.200825 70.253130
182.441572 -20.918200 70.217953
181.788070 -22.649812 70.178971
181.519199 -24.530098 70.100261
180.555542 -26.141823 70.093316
180.482917 -28.097965 69.994335
179.633169 -29.753721 69.975624
179.139080 -31.546952 69.920177
178.467162 -33.271445 69.883097
177.747139 -34.977344 69.850987
176.783482 -36.589070 69.844042
175.819824 -38.200795 69.837096
175.068889 -39.894746 69.808179
174.396971 -41.619239 69.771100
173.725053 -43.343732 69.734021
172.970137 -45.036144 69.705514
171.670615 -46.518046 69.733261
170.998697 -48.242539 69.696181
169.616178 -49.692360 69.732501
168.233659 -51.142180 69.768820
167.561741 -52.866673 69.731741
166.183252 -54.318051 69.767644
165.507304 -56.040987 69.730981
164.835386 -57.765480 69.693902
163.452867 -59.215301 69.730221
162.070347 -60.665121 69.766540
160.687828 -62.114941 69.802859
160.015910 -63.839435 69.765780
158.633391 -65.289255 69.802100
157.250872 -66.739075 69.838419
155.868353 -68.188895 69.874738
154.485834 -69.638716 69.911057
152.900727 -70.626686 69.988885
151.414385 -71.839817 70.046476
150.031866 -73.289637 70.082796
148.649347 -74.739457 70.119115
147.266828 -76.189277 70.155434
145.884309 -77.639098 70.191754
144.195379 -78.390378 70.290853
142.812860 -79.840199 70.327173
141.430341 -81.290019 70.363492
140.047822 -82.739839 70.399811
138.665303 -84.189659 70.436130
137.006265 -85.009086 70.529106
135.593854 -86.390760 70.571549
133.904924 -87.142041 70.670649
132.522405 -88.591861 70.706968
130.833476 -89.343142 70.806068
129.450957 -90.792962 70.842387
127.762027 -91.544243 70.941487
126.073098 -92.295523 71.040586
124.501209 -93.313629 71.115705
123.001649 -94.496624 71.176005
121.374946 -95.389765 71.262355
119.811814 -96.427833 71.335680
118.241271 -97.449005 71.410524
116.552341 -98.200286 71.509623
114.863412 -98.951567 71.608723
113.174482 -99.702847 71.707823
111.562824 -100.630288 71.791090
109.999692 -101.668356 71.864415
108.414104 -102.655229 71.942341
106.725175 -103.406509 72.041441
105.036245 -104.157790 72.140540
103.313835 -104.832743 72.246500
101.658386 -105.660351 72.338740
99.969457 -106.411631 72.437839
98.191110 -106.959062 72.555259
96.591598 -107.914193 72.636038
94.902668 -108.665473 72.735138
93.068384 -109.085382 72.864019
91.505252 -110.123449 72.937344
89.529469 -110.220775 73.095217
87.945659 -111.211701 73.172779
86.151610 -111.723336 73.293416
84.386065 -112.299952 73.408214
82.773751 -113.225897 73.491616
80.826471 -113.388204 73.643648
79.089482 -114.029919 73.752595
77.266878 -114.476455 73.879083
75.405212 -114.833940 74.013575
73.707284 -115.564707 74.114518
71.720943 -115.637962 74.274554
70.147691 -116.652958 74.349953
68.151229 -116.703142 74.512062
66.588097 -117.741210 74.585387
64.591635 -117.791393 74.747497
62.595174 -117.841577 74.909607
60.974545 -118.748566 74.994712
59.035580 -118.929828 75.145041
57.039119 -118.980012 75.307151
55.294936 -119.605328 75.417572
53.479525 -120.068263 75.542586
51.483063 -120.118447 75.704696
49.486602 -120.168630 75.866805
47.619986 -120.514831 76.002311
45.927008 -121.256882 76.102240
43.930547 -121.307065 76.264350
41.934085 -121.357249 76.426460
39.937623 -121.407432 76.588569
37.949697 -121.477075 76.748930
36.378030 -122.495684 76.824004
34.381568 -122.545867 76.986114
32.385106 -122.596051 77.148224
30.388645 -122.646234 77.310333
28.392183 -122.696418 77.472443
26.395721 -122.746601 77.634553
24.399260 -122.796785 77.796663
22.402798 -122.846969 77.958772
20.406336 -122.897152 78.120882
18.409875 -122.947336 78.282992
16.413413 -122.997519 78.445101
14.416951 -123.047703 78.607211
12.420490 -123.097886 78.769321
10.424028 -123.148070 78.931431
8.612938 -122.721431 79.103827
6.823226 -122.239804 79.277410
4.826764 -122.289987 79.439519
2.830302 -122.340171 79.601629
0.833841 -122.390355 79.763739
-1.162621 -122.440538 79.925848
-3.074419 -122.683735 80.070611
-3.841730 -124.371355 80.043386
-5.128856 -125.858048 80.069852
-5.800774 -127.582542 80.032772
-7.183293 -129.032362 80.069092
-8.565812 -130.482182 80.105411
-9.948331 -131.932002 80.141730
-11.330850 -133.381823 80.178050
-12.597214 -134.876541 80.202371
-13.385288 -136.556136 80.177290
-14.872708 -137.766808 80.235102
-16.456736 -138.757237 80.312709
-17.839255 -140.207057 80.349028
-19.221775 -141.656878 80.385347
-20.910704 -142.408158 80.484447
-22.293223 -143.857979 80.520766
-23.818170 -144.983099 80.586267
-25.381302 -146.021167 80.659592
-27.053601 -146.810360 80.755285
-28.742531 -147.561641 80.854384
-30.431460 -148.312921 80.953484
-32.067159 -149.185555 81.041677
-33.630291 -150.223622 81.115002
-35.498249 -150.566763 81.250783
-37.187178 -151.318043 81.349882
-38.753017 -152.349942 81.423762
-40.565037 -152.820605 81.548081
-42.312610 -153.438193 81.659196
-43.942896 -154.323166 81.746281
-45.872204 -154.526445 81.894631
-47.868665 -154.576628 82.056741
-49.431797 -155.614696 82.130066
-51.428259 -155.664880 82.292176
-53.424721 -155.715063 82.454285
-54.995705 -156.735230 82.529219
-56.984314 -156.803315 82.689720
-58.980776 -156.853498 82.851830
-60.977238 -156.903682 83.013940
-62.973699 -156.953865 83.176049
-64.970161 -157.004049 83.338159
-66.966622 -157.054232 83.500269
6.204220 -36.665949 119.136851
4.573995 -35.742179 119.345345
2.574306 -35.835791 119.551636
0.737435 -35.481056 119.758898
-1.055608 -35.005633 119.966421
-3.055297 -35.099244 120.172712
-4.729351 -34.296162 120.380944
-6.464529 -33.661399 120.588813
-8.315437 -33.345317 120.795991
-9.945662 -32.421547 121.004485
-11.670064 -31.757108 121.212417
-13.405242 -31.122345 121.420286
-15.140421 -30.487581 121.628154
-16.836027 -29.743849 121.836258
-18.349527 -28.498657 122.045448
-19.823455 -27.144496 122.254875
-21.357239 -25.955159 122.463944
-23.032562 -25.155572 122.672169
-24.506490 -23.801412 122.881596
-25.980418 -22.447251 123.091022
-26.764069 -20.767858 123.241047
-28.237997 -19.413697 123.450474
-29.021649 -17.734304 123.600499
-29.805300 -16.054911 123.750524
-30.588952 -14.375518 123.900550
-31.639389 -12.821825 124.073533
-31.724149 -10.813141 124.163416
-32.785108 -9.264405 124.337305
-32.869868 -7.255721 124.427188
-32.954629 -5.247037 124.517071
-33.039389 -3.238353 124.606954
-32.928129 -1.300803 124.673377
-32.197819 0.412099 124.665714
-32.282580 2.420783 124.755597
-31.356250 4.062550 124.724474
-31.086635 5.942634 124.771946
-29.732576 7.429181 124.689633
-29.093465 9.175178 124.692884
-28.454355 10.921175 124.696136
-27.100296 12.407722 124.613823
-25.746237 13.894270 124.531510
-24.392178 15.380817 124.449198
-22.717305 16.175216 124.305280
-21.363246 17.661763 124.222968
-20.009187 19.148311 124.140655
-18.446632 20.185030 124.018305
-16.900641 21.257489 123.899137
-15.305384 22.223655 123.770508
-13.630512 23.018054 123.626591
-11.955640 23.812452 123.482673
-10.262980 24.568475 123.335340
-8.605895 25.401249 123.194839
-6.931023 26.195647 123.050921
-5.171310 26.807002 122.890712
-3.171621 26.900614 122.684422
-1.585594 27.886694 122.557565
0.374059 28.066684 122.358962
2.373748 28.160295 122.152672
3.919738 29.232753 122.033503
5.919427 29.326365 121.827213
7.919116 29.419977 121.620922
9.918805 29.513588 121.414631
11.918494 29.607200 121.208341
13.918183 29.700811 121.002050
15.917872 29.794423 120.795759
17.764524 29.466621 120.588556
19.547786 28.964265 120.380974
21.547475 29.057876 120.174684
23.492559 29.001125 119.968067
25.177389 28.227718 119.759899
26.962916 27.731598 119.552331
28.807303 27.397560 119.345114
30.694523 27.181468 119.138153
32.437218 26.567402 118.930329
34.164880 25.911941 118.722416
35.900058 25.277178 118.514548
37.373986 23.923017 118.305122
39.109164 23.288254 118.097253
40.844343 22.653490 117.889385
42.318271 21.299329 117.679959
44.053449 20.664566 117.472090
44.837101 18.985173 117.322065
46.527182 18.226227 117.113928
48.046207 16.996249 116.904771
49.520135 15.642088 116.695344
50.850511 14.220291 116.498271
51.777715 12.608534 116.335893
52.561366 10.929141 116.185867
54.033387 9.574082 115.976605
54.128669 7.570355 115.885817
55.179106 6.016662 115.712833
55.263867 4.007978 115.622950
56.324825 2.459242 115.449062
56.409586 0.450558 115.359179
56.494346 -1.558126 115.269296
56.579106 -3.566810 115.179413
56.467846 -5.504360 115.112989
55.737537 -7.217262 115.120653
55.822297 -9.225946 115.030770
54.895967 -10.867713 115.061892
53.969638 -12.509480 115.093015
53.272293 -14.234344 115.096733
52.633183 -15.980341 115.093482
51.279124 -17.466888 115.175795
50.640013 -19.212885 115.172543
49.285954 -20.699433 115.254856
47.716614 -21.721514 115.378508
46.449569 -23.050252 115.458042
45.617912 -24.726375 115.477835
43.943040 -25.520774 115.621752
42.568412 -26.962945 115.708014
40.914109 -27.801720 115.847982
39.239237 -28.596118 115.991899
37.885178 -30.082666 116.074212
36.210305 -30.877064 116.218129
34.384761 -31.346389 116.390979
32.838770 -32.418847 116.510148
30.839081 -32.512459 116.716439
29.190004 -33.362509 116.855403
27.293402 -33.678529 117.041898
25.747411 -34.750987 117.161067
23.747722 -34.844598 117.367357
21.748033 -34.938210 117.573648
20.174017 -35.950203 117.698198
18.202353 -36.104280 117.899107
16.202665 -36.197891 118.105398
14.202976 -36.291503 118.311689
12.203287 -36.385114 118.517979
10.203598 -36.478726 118.724270
8.203909 -36.572338 118.930561
93.437950 64.454677 136.483379
91.808983 65.383872 136.779473
89.799826 65.300168 137.042989
87.790668 65.216463 137.306506
86.161701 66.145658 137.602600
84.505267 67.001674 137.896341
82.523577 66.991149 138.162211
81.039728 68.306964 138.470740
79.306958 68.959609 138.757939
77.636677 69.778735 139.050493
76.110255 70.981128 139.355374
74.646321 72.350001 139.665610
73.317253 73.781435 139.962865
72.410127 75.408596 140.219510
71.238593 76.913106 140.501603
70.173932 78.467192 140.773409
69.159933 80.044778 141.040340
68.120604 81.610614 141.309709
68.059446 83.630198 141.484932
67.776560 85.546928 141.681495
66.958960 87.215617 141.929523
66.897803 89.235201 142.104746
67.839799 90.883582 142.114249
68.207448 92.744493 142.218633
68.875555 94.494222 142.273382
70.253000 95.981472 142.210949
71.630444 97.468721 142.148516
73.209050 98.509030 142.022050
74.777706 99.571443 141.898752
76.385740 100.546367 141.762919
78.355521 100.717561 141.511937
80.075074 101.444712 141.340606
81.933335 101.863678 141.125122
83.942493 101.947383 140.861605
85.790394 101.601470 140.584271
87.580617 101.101892 140.301994
89.524769 101.012408 140.032908
91.218742 100.256401 139.742384
92.990308 99.707118 139.458509
94.856866 99.410910 139.182773
96.485833 98.481715 138.886679
98.188617 97.749182 138.596910
99.743766 96.623324 138.294490
101.385320 95.727664 137.999475
102.157581 94.037942 137.755811
103.478701 93.194344 137.508231
104.718806 91.845289 137.229762
105.703708 90.722081 137.004318
107.167642 89.353208 136.694083
107.939903 87.663486 136.450419
108.712164 85.973764 136.206754
109.697015 84.382658 135.942629
109.758172 82.363074 135.767406
110.797502 80.797238 135.498037
110.858659 78.777654 135.322815
109.933269 77.123128 135.310569
109.977819 75.109689 135.138089
109.306391 73.361188 135.083889
108.638283 71.611459 135.029140
107.260839 70.124209 135.091573
105.883394 68.636960 135.154006
104.194468 67.841762 135.315588
102.602737 66.830616 135.446232
101.034080 65.768203 135.569531
99.024922 65.684499 135.833047
97.438764 64.660970 135.961917
95.447108 64.538381 136.219862
1.319604 -38.092104 140.403575
-0.293895 -37.162265 140.697640
-2.287585 -37.245325 140.959128
-4.113730 -36.882013 141.234972
-5.894774 -36.398545 141.514681
-7.888464 -36.481605 141.776169
-9.547063 -35.671921 142.066370
-11.268562 -35.029815 142.351181
-13.109152 -34.704986 142.625788
-14.722650 -33.775146 142.919853
-16.433060 -33.103495 143.205615
-18.154559 -32.461388 143.490426
-19.876058 -31.819282 143.775237
-21.556837 -31.068686 144.063538
-23.050221 -29.818840 144.367895
-24.502884 -28.460505 144.675743
-26.017142 -27.266267 144.978312
-27.677047 -26.460063 145.268401
-29.129710 -25.101728 145.576248
-30.582374 -23.743393 145.884095
-31.343364 -22.064210 146.125371
-32.796028 -20.705875 146.433218
-33.557019 -19.026691 146.674494
-34.318009 -17.347508 146.915770
-35.079000 -15.668325 147.157046
-36.107316 -14.113146 147.424051
-36.168002 -12.109110 147.597925
-37.206861 -10.558823 147.865944
-37.267548 -8.554787 148.039818
-37.328234 -6.550751 148.213692
-37.388920 -4.546715 148.387566
-37.255125 -2.614644 148.529311
-36.507139 -0.909846 148.569593
-36.567825 1.094189 148.743467
-35.625357 2.727022 148.751621
-35.334449 4.600956 148.867411
-33.967609 6.076755 148.805459
-33.310106 7.815035 148.860689
-32.652603 9.553315 148.915918
-31.285763 11.029115 148.853966
-29.918923 12.504915 148.792013
-28.552083 13.980714 148.730061
-26.873761 14.764463 148.568959
-25.506921 16.240262 148.507007
-24.140081 17.716062 148.445055
-22.570809 18.742097 148.318665
-21.017620 19.803866 148.197395
-19.416598 20.759358 148.060899
-17.738277 21.543106 147.899798
-16.059955 22.326854 147.738697
-14.364364 23.072232 147.572098
-12.703312 23.894351 147.416494
-11.024991 24.678099 147.255392
-9.264296 25.278830 147.068070
-7.270606 25.361890 146.806583
-5.678545 26.337292 146.672939
-3.723727 26.506719 146.423825
-1.730037 26.589779 146.162337
-0.176848 27.651547 146.041067
1.816842 27.734607 145.779580
3.810532 27.817667 145.518092
5.804222 27.900728 145.256604
7.797912 27.983788 144.995116
9.791602 28.066848 144.733629
11.785292 28.149908 144.472141
13.621501 27.813411 144.197159
15.392481 27.303128 143.916588
17.386171 27.386188 143.655100
19.323671 27.319548 143.388797
20.993359 26.539408 143.099547
22.766669 26.035335 142.819175
24.600548 25.692629 142.543993
26.478503 25.467350 142.272589
28.207737 24.845849 141.988440
29.921502 24.183136 141.702966
31.643001 23.541030 141.418155
33.095664 22.182695 141.110308
34.817163 21.540588 140.825497
36.538663 20.898481 140.540686
37.991326 19.540146 140.232838
39.712825 18.898040 139.948027
40.473816 17.218856 139.706751
42.148908 16.453114 139.417964
43.647978 15.218415 139.114093
45.100642 13.860080 138.806246
46.409462 12.435020 138.512243
47.314296 10.822561 138.257123
48.075287 9.143378 138.015847
49.526039 7.784157 137.708184
49.597268 5.785011 137.533295
50.625584 4.229833 137.266290
50.686271 2.225797 137.092416
51.725130 0.675509 136.824397
51.785816 -1.328527 136.650523
51.846502 -3.332562 136.476649
51.907188 -5.336598 136.302775
51.773393 -7.268669 136.161030
51.025407 -8.973467 136.120748
51.086093 -10.977503 135.946874
50.143625 -12.610336 135.938720
49.201157 -14.243168 135.930567
48.485877 -15.960069 135.884882
47.828374 -17.698349 135.829653
46.461534 -19.174148 135.891605
45.804031 -20.912428 135.836375
44.437191 -22.388228 135.898328
42.861332 -23.399627 136.026814
41.583065 -24.718466 136.089823
40.734526 -26.386056 136.066152
39.056205 -27.169804 136.227254
37.669395 -28.601234 136.295563
36.011043 -29.429352 136.450307
34.332722 -30.213100 136.611409
32.965882 -31.688900 136.673361
31.287560 -32.472648 136.834463
29.462949 -32.931369 137.042130
27.909760 -33.993137 137.163400
25.916070 -34.076198 137.424888
24.262793 -34.915589 137.578017
22.369191 -35.221026 137.807645
20.816003 -36.282795 137.928915
18.822313 -36.365855 138.190403
16.828622 -36.448915 138.451891
15.248223 -37.450227 138.581822
13.281744 -37.593744 138.834648
11.288054 -37.676804 139.096136
9.294364 -37.759864 139.357624
7.300674 -37.842924 139.619112
5.306984 -37.925984 139.880599
3.313294 -38.009044 140.142087
