ply
format ascii 1.0
element vertex 1407
property float x
property float y
property float z
end_header
1.574788 -24.725267 17.335533
-0.001088 -23.711094 17.395139
-1.824681 -23.280156 17.459694
-3.524416 -22.557600 17.521775
-5.151842 -21.664800 17.582411
-6.727718 -20.650627 17.642016
-8.324423 -19.685496 17.702038
-8.355466 -17.705318 17.714879
-9.861371 -16.622394 17.772516
-11.406526 -15.535890 17.831508
-12.807064 -14.108897 17.887610
-13.303364 -12.316652 17.915149
-14.189432 -10.681847 17.954999
-14.880616 -8.968323 17.988694
-16.257875 -7.531926 18.044061
-16.239534 -5.531800 18.055342
-16.954168 -3.827748 18.089777
-17.206029 -1.936766 18.109593
-17.187687 0.063359 18.120874
-17.169345 2.063485 18.132155
-17.151003 4.063611 18.143436
-17.132661 6.063736 18.154717
-17.114319 8.063862 18.165998
-17.095977 10.063987 18.177279
-17.077635 12.064113 18.188560
-17.059293 14.064238 18.199841
-16.045369 15.641201 18.174760
-16.027027 17.641327 18.186041
-15.802948 19.431829 18.189080
-14.149712 20.271201 18.137877
-13.986208 22.209626 18.143856
-13.967866 24.209752 18.155137
-12.399982 24.963225 18.106323
-11.945389 26.777926 18.101671
-10.954992 28.364889 18.077449
-10.232497 30.065722 18.063012
-8.806019 31.467333 18.022863
-7.889691 33.085778 18.001347
-6.568118 34.349282 17.963942
-4.944340 35.261694 17.914174
-4.221846 36.962526 17.899737
-2.509140 37.654444 17.845635
-1.082662 39.056055 17.805486
0.630044 39.747973 17.751383
2.342750 40.439890 17.697280
4.005967 41.254514 17.645590
5.600182 42.240225 17.597264
7.599185 42.222277 17.529204
9.598187 42.204330 17.461144
11.192507 43.189783 17.412812
13.191406 43.172093 17.344757
14.767281 42.157920 17.285151
16.766284 42.139972 17.217091
18.173883 41.540929 17.165677
19.332612 40.116882 17.117812
21.279955 39.977306 17.050784
22.907490 39.084761 16.990146
23.670874 37.541225 16.955009
25.071413 36.114232 16.898906
26.626567 35.051272 16.839715
27.462331 33.678152 16.803131
28.080423 31.935103 16.771746
28.844699 30.251102 16.735742
30.050097 28.745285 16.685804
30.936422 27.110584 16.645946
31.016592 25.150251 16.631553
32.001429 23.555342 16.588582
31.983087 21.555216 16.577301
31.964745 19.555091 16.566020
32.949582 17.960182 16.523049
32.931240 15.960056 16.511768
32.912898 13.959931 16.500487
32.894556 11.959805 16.489206
32.876214 9.959680 16.477926
32.857872 7.959554 16.466645
32.839530 5.959429 16.455364
32.092148 4.269175 16.470710
31.807264 2.382340 16.469164
31.788922 0.382215 16.457883
30.774998 -1.194749 16.482964
29.906151 -2.833375 16.502746
29.742732 -4.771837 16.496764
28.461161 -6.235040 16.531621
27.714883 -7.925764 16.546926
27.016171 -9.636705 16.560495
26.293676 -11.337537 16.574932
24.867198 -12.739148 16.615081
24.144703 -14.439981 16.629518
22.431997 -15.131898 16.683621
21.005519 -16.533509 16.723769
20.283024 -18.234342 16.738207
18.856546 -19.635953 16.778355
16.956452 -19.863247 16.841594
15.600590 -21.091813 16.880372
14.422412 -22.010926 16.914952
12.759230 -22.825636 16.966640
10.997000 -23.394761 17.023158
9.284294 -24.086679 17.077260
7.571796 -24.779110 17.131353
5.572793 -24.761163 17.199413
3.573791 -24.743215 17.267473
63.774671 -108.285744 14.723799
62.355907 -106.840181 14.780632
60.937143 -105.394617 14.837464
59.812326 -104.413901 14.881538
58.509772 -102.921397 14.934699
57.843129 -101.172027 14.967773
57.861710 -99.145873 14.979201
57.880291 -97.119719 14.990628
57.898871 -95.093565 15.002056
57.917452 -93.067411 15.013484
58.070949 -91.098601 15.019984
58.950196 -89.438265 14.999977
59.964359 -87.835273 14.975043
60.978522 -86.232281 14.950109
61.050665 -84.260702 14.959391
62.766451 -83.512156 14.905520
63.507510 -81.793084 14.890561
64.952551 -80.373232 14.849889
66.541372 -79.309878 14.802209
68.048339 -78.208999 14.757534
68.869920 -76.524152 14.739633
70.411849 -75.344531 14.694239
72.436866 -75.362712 14.625293
74.063728 -74.393680 14.575758
75.794997 -73.683523 14.521132
77.702341 -73.409939 14.457923
79.727358 -73.428120 14.388977
81.752374 -73.446301 14.320032
83.777391 -73.464483 14.251086
85.586914 -73.990030 14.186446
87.005678 -75.435593 14.129613
88.424443 -76.881157 14.072781
89.843207 -78.326720 14.015948
91.020757 -79.869718 13.966735
91.002177 -81.895872 13.955308
90.983596 -83.922026 13.943880
90.965016 -85.948180 13.932452
90.946435 -87.974334 13.921024
90.927854 -90.000488 13.909597
90.416469 -91.524530 13.917910
88.904900 -92.620719 13.962769
88.790574 -94.606178 13.954838
87.872156 -96.249865 13.976275
86.604474 -97.745101 14.010469
85.159432 -99.164952 14.051140
84.251149 -100.469394 14.074252
82.687105 -101.594181 14.120725
81.242063 -103.014032 14.161397
79.801385 -104.435738 14.201909
79.055964 -106.152956 14.217027
77.140213 -106.405696 14.280646
75.307198 -106.863576 14.340232
73.494967 -107.372992 14.398804
71.558431 -107.574197 14.463436
69.849721 -108.340288 14.516962
67.824705 -108.322107 14.585907
65.799688 -108.303926 14.654853
13.228239 -17.761601 59.811592
11.629328 -16.784694 59.953743
9.629074 -16.813010 60.090874
7.799445 -16.413972 60.230139
6.029910 -15.864420 60.370156
4.369443 -15.041685 60.511537
2.430745 -14.915829 60.649438
0.831833 -13.938922 60.791590
-0.775559 -12.983256 60.933635
-2.490560 -12.297113 61.074334
-3.964903 -11.008202 61.218044
-5.636771 -10.214027 61.359282
-7.067981 -8.817084 61.503532
-8.499191 -7.420141 61.647781
-9.859149 -5.992471 61.788113
-10.659704 -4.323560 61.897688
-11.885059 -3.426258 62.011466
-12.901488 -1.850442 62.132911
-13.833312 -0.238140 62.249704
-13.941700 1.729266 62.321224
-14.590012 3.463832 62.422429
-14.981913 5.308974 62.509536
-15.005696 7.312865 62.576405
-15.029479 9.316757 62.643273
-14.701572 11.180378 62.681303
-14.074574 12.924708 62.694807
-13.324131 14.619803 62.698189
-12.635410 16.339515 62.706632
-11.946690 18.059227 62.715075
-10.549114 19.496215 62.665392
-9.723348 20.895602 62.653950
-8.162253 21.950387 62.580540
-6.764678 23.387375 62.530857
-5.367103 24.824363 62.481174
-3.668962 25.558823 62.387879
-2.271387 26.995811 62.338196
-0.573247 27.730271 62.244902
1.124894 28.464732 62.151607
2.878169 29.070323 62.050312
4.521175 29.933652 61.965017
6.453612 30.120479 61.837727
8.028801 31.142319 61.762272
10.029055 31.170635 61.625141
11.914867 31.466439 61.504615
13.604497 32.220791 61.412556
15.604750 32.249107 61.275425
17.605004 32.277423 61.138294
19.605257 32.305739 61.001163
21.605510 32.334055 60.864032
23.605763 32.362371 60.726901
25.321494 31.678058 60.586211
27.204928 31.413780 60.447619
29.205181 31.442096 60.310488
30.804093 30.465190 60.168337
32.749080 30.355085 60.030515
34.403258 29.516599 59.889055
36.179082 28.982799 59.749117
37.894083 28.296655 59.608417
39.601334 27.591101 59.467621
41.040294 26.213569 59.323469
42.755295 25.527426 59.182770
44.186505 24.130483 59.038521
45.617715 22.733540 58.894271
47.194552 21.701345 58.751844
48.062019 20.347759 58.647914
49.493229 18.950816 58.503665
50.222532 17.251178 58.398007
50.951836 15.551539 58.292349
51.763938 13.887608 58.182138
52.410442 12.152263 58.081032
52.804150 10.307900 57.993825
52.827933 8.304008 57.926957
52.851716 6.300117 57.860089
52.525634 4.435768 57.821909
51.896811 2.692165 57.808555
51.857047 0.713619 57.746897
50.941906 -0.915786 57.757021
49.963217 -2.519845 57.772355
48.781466 -3.460265 57.823306
47.998892 -5.142544 57.822559
46.695170 -6.616965 57.864546
45.297594 -8.053953 57.914229
43.900019 -9.490941 57.963912
42.256845 -10.353876 58.049231
40.804304 -11.662389 58.106890
39.106466 -12.397557 58.200141
37.531276 -13.419397 58.275595
35.956086 -14.441237 58.351050
34.011742 -14.600231 58.480069
32.380644 -15.491393 58.563636
30.615461 -16.069151 58.666658
28.805201 -16.541549 58.776221
26.804948 -16.569865 58.913352
25.220474 -17.570005 58.990154
23.229505 -17.620021 59.125937
21.229252 -17.648337 59.263068
19.228999 -17.676653 59.400199
17.228746 -17.704969 59.537330
15.228493 -17.733285 59.674461
108.763993 61.914002 52.300231
107.177612 62.888593 52.539555
105.186994 62.859316 52.758458
103.600613 63.833906 52.997782
101.609995 63.804629 53.216686
99.672467 63.907193 53.438271
98.032996 64.749943 53.674913
96.446615 65.724533 53.914237
94.846395 66.664757 54.152862
93.142425 67.347331 54.386245
91.687471 68.648304 54.632208
90.020323 69.422322 54.867452
88.316353 70.104896 55.100836
86.612383 70.787470 55.334220
85.194251 72.179886 55.582043
83.755564 73.521255 55.828827
82.772762 74.557465 56.005206
81.354630 75.949880 56.253029
79.936499 77.342296 56.500852
78.518367 78.734711 56.748675
77.100235 80.127127 56.996498
75.682103 81.519543 57.244321
74.809067 83.147380 57.446984
73.803328 84.717905 57.660641
72.828933 86.301967 57.871702
71.791851 87.858954 58.087956
71.393894 89.691975 58.251261
70.771189 91.427929 58.433185
69.958855 93.081984 58.630819
69.750527 94.996903 58.778413
69.735604 96.995353 58.909984
68.729865 98.565878 59.123641
68.714942 100.564328 59.255213
69.633333 102.189550 59.258994
69.682083 104.162537 59.381847
69.667160 106.160987 59.513418
70.649224 107.760747 59.508481
71.631289 109.360507 59.503544
72.388606 111.050143 59.529380
73.080656 112.765878 59.564152
74.477683 114.199697 59.502399
76.007205 115.320007 59.405568
77.568112 116.366057 59.300428
79.150163 117.362075 59.189690
80.658542 118.532417 59.098457
82.293122 119.404143 58.973813
84.045347 119.997498 58.818022
85.855218 120.454454 58.646970
87.432153 121.462580 58.537587
89.417315 121.504765 58.320128
91.407933 121.534041 58.101224
93.398551 121.563318 57.882321
95.389168 121.592595 57.663417
97.379786 121.621872 57.444513
99.370404 121.651148 57.225610
101.074779 120.969579 56.992246
102.947403 120.705835 56.767382
104.768557 120.314271 56.539918
106.524402 119.760521 56.309155
108.515020 119.789798 56.090251
110.166305 118.976389 55.854206
111.870275 118.293814 55.620822
113.574245 117.611240 55.387439
115.264782 116.895304 55.153376
116.851163 115.920714 54.914052
118.437544 114.946124 54.674729
120.104287 114.171101 54.439464
121.610307 112.996943 54.196081
123.226389 112.096111 53.958258
124.644521 110.703695 53.710435
126.348491 110.021121 53.477051
127.766622 108.628705 53.229228
128.484142 106.933701 53.039449
129.902273 105.541285 52.791626
131.320405 104.148870 52.543803
132.738537 102.756454 52.295980
133.456056 101.061450 52.106200
134.874188 99.669035 51.858377
135.591708 97.974030 51.668598
136.339578 96.292135 51.476304
137.345317 94.721610 51.262647
138.351056 93.151085 51.048990
138.461786 91.194013 50.909481
139.371718 89.582111 50.703761
139.386641 87.583661 50.572190
139.913732 85.806412 50.398187
140.407303 84.014686 50.226962
140.194886 82.107149 50.126518
139.440162 80.416477 50.100327
139.455085 78.418027 49.968756
138.823714 76.678027 49.925676
138.131664 74.962291 49.890904
137.439614 73.246556 49.856132
136.523814 71.620297 49.851996
135.350537 70.097002 49.883113
133.698671 69.266177 50.012334
132.260107 67.930642 50.085084
130.863080 66.496823 50.146838
129.403373 65.211318 50.225185
127.772651 64.330463 50.348808
125.841276 64.161007 50.552028
124.269797 63.139973 50.659967
122.396067 62.834119 50.847925
120.707700 62.089663 50.986809
118.717082 62.060386 51.205713
116.726464 62.031109 51.424616
114.735847 62.001833 51.643520
112.745229 61.972556 51.862424
110.754611 61.943279 52.081327
12.233414 -56.262544 55.325319
10.641883 -55.288029 55.565209
8.646116 -55.317382 55.784679
6.650349 -55.346734 56.004149
4.654582 -55.376087 56.223618
3.063052 -54.401572 56.463508
1.067285 -54.430925 56.682978
-0.863408 -54.298674 56.905735
-2.520013 -53.485763 57.142338
-4.515780 -53.515115 57.361808
-6.107310 -52.540601 57.601698
-8.103077 -52.569953 57.821168
-9.694608 -51.595438 58.061058
-11.690375 -51.624791 58.280528
-13.388553 -50.915122 58.515031
-15.096192 -50.228946 58.749055
-16.803830 -49.542770 58.983080
-18.460733 -48.730600 59.219668
-20.456500 -48.759952 59.439138
-22.048031 -47.785438 59.679028
-23.639561 -46.810923 59.918918
-25.342022 -46.111888 60.153204
-27.049660 -45.425712 60.387229
-28.471460 -44.029694 60.635693
-30.179099 -43.343518 60.869718
-31.600899 -41.947501 61.118182
-33.592981 -41.967704 61.337838
-35.016175 -40.575148 61.586232
-36.723814 -39.888972 61.820257
-38.145614 -38.492954 62.068721
-39.567414 -37.096937 62.317185
-41.146398 -36.091264 62.557709
-42.696852 -35.014743 62.799674
-44.118652 -33.618726 63.048138
-45.540452 -32.222709 63.296602
-46.962252 -30.826691 63.545066
-48.384052 -29.430674 63.793530
-49.606689 -27.948639 64.025494
-50.527040 -26.336050 64.232414
-51.618243 -24.797251 64.453489
-52.670028 -23.241427 64.671299
-53.629798 -21.645862 64.881485
-54.635575 -20.070168 65.095482
-55.534204 -18.448197 65.300603
-56.255392 -16.749591 65.491023
-56.976580 -15.050985 65.681444
-57.697768 -13.352379 65.871864
-58.673646 -11.763772 66.083385
-59.140143 -9.955167 66.252704
-59.694385 -8.184458 66.429294
-60.582519 -6.557955 66.633545
-60.715124 -4.605145 66.775203
-60.730086 -2.601526 66.907114
-61.735863 -1.025831 67.121112
-61.750825 0.977788 67.253023
-61.765787 2.981407 67.384935
-61.780749 4.985026 67.516846
-61.795711 6.988645 67.648757
-61.810673 8.992265 67.780669
-61.480207 10.857749 67.865284
-60.843609 12.600813 67.907984
-60.858571 14.604433 68.039895
-60.098193 16.297998 68.065647
-59.891507 18.212981 68.167210
-59.411843 20.018803 68.231397
-58.716179 21.738247 68.266010
-57.942417 23.426460 68.289929
-56.960391 25.031389 68.285332
-55.978365 26.636319 68.280736
-55.228548 28.334107 68.307934
-54.532884 30.053552 68.342546
-53.837220 31.772996 68.377158
-52.436580 33.210524 68.315245
-51.740916 34.929968 68.349858
-50.340275 36.367496 68.287944
-49.104182 37.870826 68.248561
-48.243971 39.524468 68.260644
-46.843330 40.961996 68.198730
-45.442690 42.399524 68.136817
-44.042049 43.837052 68.074904
-42.641408 45.274580 68.012991
-40.944392 46.010830 67.872614
-39.543751 47.448358 67.810700
-38.143110 48.885886 67.748787
-36.520433 49.798036 67.628091
-35.045453 51.059664 67.546497
-33.367177 51.840255 67.411081
-31.651420 52.532164 67.265743
-30.213920 53.882475 67.194071
-28.553763 54.705941 67.063452
-27.060663 55.924694 66.977061
-25.456106 56.879719 66.861162
-23.759090 57.615969 66.720785
-22.062073 58.352219 66.580407
-20.335011 59.017376 66.432076
-18.371665 59.123440 66.221189
-16.762616 60.067838 66.104101
-15.185988 61.088948 65.995596
-13.576991 62.033468 65.878522
-11.613593 62.139410 65.667621
-9.886582 62.804689 65.519303
-8.041197 63.189872 65.339646
-6.196174 63.575910 65.160085
-4.468802 64.240334 65.011671
-2.505765 64.347131 64.800866
-0.896407 65.290796 64.683696
1.099360 65.320149 64.464226
2.881660 65.854602 64.301271
4.671756 66.370611 64.136252
6.667523 66.399963 63.916782
8.663290 66.429316 63.697312
10.558854 66.695767 63.504370
12.235685 67.479778 63.369337
14.231452 67.509131 63.149867
16.227219 67.538483 62.930397
18.222986 67.567835 62.710927
20.218753 67.597188 62.491458
22.214520 67.626540 62.271988
24.210287 67.655893 62.052518
26.206054 67.685245 61.833048
28.201821 67.714598 61.613578
29.910604 67.031265 61.379611
31.789118 66.769436 61.154218
33.784885 66.798788 60.934748
35.780652 66.828141 60.715278
37.598672 66.416083 60.486830
39.367950 65.882979 60.255918
41.363717 65.912331 60.036449
43.007426 65.067396 59.799194
44.951014 64.967169 59.577089
46.708541 64.404884 59.345584
48.538312 64.022007 59.117729
50.409656 63.742373 58.891974
52.125609 63.076845 58.658369
53.824933 62.370020 58.423924
55.712907 62.131683 58.199009
57.304437 61.157168 57.959119
59.233686 61.021332 57.736289
60.891735 60.212006 57.499759
62.648963 59.648980 57.268239
64.356601 58.962803 57.034214
66.064240 58.276627 56.800190
67.662093 57.317815 56.560619
69.253624 56.343301 56.320729
70.901316 55.508257 56.083676
72.436685 54.394272 55.840949
74.030755 53.426063 55.601187
75.452555 52.030046 55.352723
77.160193 51.343870 55.118698
78.802807 50.496214 54.881389
80.289632 49.261676 54.636209
81.711432 47.865659 54.387745
83.419070 47.179482 54.153720
84.840870 45.783465 53.905256
86.262670 44.387447 53.656792
87.684470 42.991430 53.408328
89.106270 41.595413 53.159864
90.041510 39.989254 52.951710
91.249258 38.500789 52.720980
92.671058 37.104772 52.472516
93.392246 35.406166 52.282095
94.814046 34.010148 52.033631
95.535234 32.311542 51.843211
96.256422 30.612936 51.652791
97.081951 28.959394 51.453726
98.087728 27.383700 51.239728
99.093506 25.808006 51.025731
99.841785 24.121101 50.833066
100.562973 22.422495 50.642646
101.120022 20.652998 50.465824
101.304737 18.722694 50.319849
102.140761 17.073685 50.119915
102.155723 15.070065 49.988003
102.767688 13.324287 49.806632
103.176462 11.490752 49.642094
103.191424 9.487133 49.510183
103.206386 7.483514 49.378271
103.221348 5.479894 49.246360
103.236310 3.476275 49.114449
103.251272 1.472656 48.982537
102.269246 -0.132274 48.987134
102.284208 -2.135893 48.855222
102.231632 -4.112504 48.732558
101.317144 -5.744442 48.727907
100.840304 -7.551392 48.663334
100.350080 -9.352990 48.600592
99.448977 -10.990281 48.594109
98.753313 -12.709725 48.559496
98.057649 -14.429169 48.524884
97.361986 -16.148613 48.490272
96.436937 -17.776328 48.487067
95.454911 -19.381257 48.491663
94.570018 -21.025030 48.482960
93.490859 -22.591116 48.500856
92.473713 -24.182002 48.510261
91.526807 -25.800976 48.510049
90.377409 -27.338974 48.537562
88.976768 -28.776502 48.599475
87.576128 -30.214030 48.661388
86.175487 -31.651558 48.723301
84.774846 -33.089086 48.785214
83.262181 -34.261543 48.876786
81.677189 -35.262864 48.987505
80.276549 -36.700392 49.049418
78.579532 -37.436642 49.189795
76.955667 -38.345982 49.310806
75.481875 -39.610420 49.392086
74.081234 -41.047948 49.453999
72.384218 -41.784197 49.594376
70.983577 -43.221726 49.656289
69.286561 -43.957975 49.796666
67.589544 -44.694225 49.937043
65.919269 -45.493750 50.070341
64.342641 -46.514860 50.178846
62.766013 -47.535969 50.287351
60.801478 -47.639224 50.498552
59.193617 -48.586432 50.615326
57.407446 -49.111724 50.779307
55.621222 -49.636894 50.943301
54.013413 -50.584223 51.060061
52.048827 -50.687356 51.271276
50.472199 -51.708466 51.379781
48.476432 -51.737818 51.599251
46.899803 -52.758928 51.707756
44.904036 -52.788280 51.927226
43.238562 -53.599165 52.059252
41.331641 -53.838742 52.255200
39.335874 -53.868095 52.474670
37.759246 -54.889205 52.583175
35.763479 -54.918557 52.802645
33.767712 -54.947909 53.022115
31.771945 -54.977262 53.241585
30.173944 -55.947800 53.355748
28.199550 -56.027724 53.569560
26.203783 -56.057077 53.789030
24.208016 -56.086429 54.008500
22.212249 -56.115781 54.227969
20.216482 -56.145134 54.447439
18.220715 -56.174486 54.666909
16.224948 -56.203839 54.886379
14.229181 -56.233191 55.105849
9.163623 -103.870533 98.560328
7.560126 -102.936130 98.830422
5.576915 -103.015178 99.083065
3.593703 -103.094227 99.335708
1.610491 -103.173276 99.588351
-0.372721 -103.252324 99.840994
-1.976217 -102.317921 100.111088
-3.959429 -102.396970 100.363731
-5.942641 -102.476018 100.616374
-7.609349 -101.710327 100.883563
-9.529349 -101.620663 101.139111
-11.512560 -101.699712 101.391754
-13.289840 -101.229132 101.653861
-15.099268 -100.844357 101.914491
-16.987334 -100.669462 102.171507
-18.685977 -99.989003 102.437228
-20.669188 -100.068051 102.689871
-22.272685 -99.133648 102.959966
-24.255896 -99.212697 103.212608
-25.859393 -98.278294 103.482703
-27.811316 -98.273833 103.736784
-29.446101 -97.422939 104.005440
-31.429313 -97.501988 104.258083
-33.032809 -96.567584 104.528177
-34.937804 -96.437875 104.784415
-36.619517 -95.712230 105.050914
-38.366799 -95.161586 105.314401
-40.081296 -94.523442 105.579393
-41.809722 -93.922472 105.843746
-43.510290 -93.247153 106.109379
-45.224788 -92.609009 106.374372
-46.999926 -92.132714 106.636578
-48.653782 -91.332720 106.904358
-50.368279 -90.694576 107.169350
-52.082777 -90.056432 107.434343
-53.793627 -89.408553 107.699504
-55.397123 -88.474150 107.969598
-57.000620 -87.539747 108.239692
-58.672266 -86.787236 108.506655
-60.386764 -86.149092 108.771647
-62.101261 -85.510947 109.036640
-63.547259 -84.156184 109.313973
-65.261756 -83.518040 109.578966
-66.976253 -82.879896 109.843959
-68.422251 -81.525133 110.121292
-70.136748 -80.886989 110.386284
-71.582746 -79.532226 110.663617
-73.297244 -78.894081 110.928610
-74.743242 -77.539318 111.205943
-76.457739 -76.901174 111.470936
-77.903737 -75.546411 111.748269
-79.349735 -74.191648 112.025602
-80.795732 -72.836885 112.302935
-82.276846 -71.575844 112.578654
-83.956228 -70.843978 112.845260
-85.402226 -69.489215 113.122593
-86.848223 -68.134452 113.399926
-88.294221 -66.779689 113.677259
-89.740219 -65.424926 113.954592
-91.186217 -64.070164 114.231925
-92.632215 -62.715401 114.509258
-94.078213 -61.360638 114.786590
-94.832358 -59.685898 114.995067
-96.278356 -58.331135 115.272400
-97.724354 -56.976372 115.549733
-98.528869 -55.324928 115.763222
-99.924497 -53.946870 116.035542
-100.678642 -52.272130 116.244019
-102.124640 -50.917367 116.521352
-102.878785 -49.242628 116.729828
-104.324783 -47.887865 117.007161
-105.078928 -46.213125 117.215638
-105.833074 -44.538385 117.424114
-107.279071 -43.183623 117.701447
-108.033217 -41.508883 117.909924
-108.930524 -39.900355 118.132648
-109.970690 -38.357898 118.369591
-110.295652 -36.484664 118.535353
-111.072594 -34.820468 118.746099
-112.112759 -33.278010 118.983041
-112.558088 -31.460445 119.160783
-113.214663 -29.740580 119.359549
-113.374526 -27.790989 119.508880
-114.316566 -26.203150 119.736057
-114.882816 -24.441510 119.925833
-115.418470 -22.665720 120.112564
-115.480208 -20.670747 120.252129
-116.453399 -19.097315 120.482406
-116.582112 -17.133317 120.628637
-116.643850 -15.138345 120.768202
-117.332129 -13.433143 120.970123
-117.745753 -11.600915 121.144710
-117.807491 -9.605942 121.284275
-117.869229 -7.610969 121.423840
-117.930968 -5.615997 121.563405
-117.992706 -3.621024 121.702970
-118.054444 -1.626051 121.842535
-118.116182 0.368921 121.982100
-118.177920 2.363894 122.121665
-117.235668 3.985368 122.106066
-117.297406 5.980341 122.245631
-117.359144 7.975314 122.385196
-116.649341 9.683262 122.405521
-116.478630 11.591761 122.509162
-116.540368 13.586733 122.648727
-115.598116 15.208208 122.633128
-115.474161 17.134100 122.743994
-114.717602 18.824655 122.757094
-114.779341 20.819627 122.896659
-113.837089 22.441102 122.881060
-112.894837 24.062576 122.865461
-112.940294 26.051492 123.002510
-112.014323 27.679023 122.989427
-111.072071 29.300497 122.973828
-110.994018 31.243465 123.091788
-110.191557 32.916944 123.097794
-108.986571 34.440678 123.041590
-108.307053 36.159893 123.066595
-107.364801 37.781367 123.050996
-106.330366 39.368548 123.021151
-105.480297 41.024315 123.019798
-104.322920 42.565760 122.970952
-103.595794 44.267264 122.988600
-102.315474 45.762972 122.920753
-101.666715 47.493630 122.950513
-100.308028 48.960185 122.870555
-98.949341 50.426739 122.790597
-97.590654 51.893294 122.710639
-96.938292 53.622611 122.739841
-95.583208 55.090506 122.660440
-94.224521 56.557061 122.580482
-92.865834 58.023615 122.500524
-91.507147 59.490170 122.420566
-90.148460 60.956724 122.340608
-88.789773 62.423279 122.260649
-87.431086 63.889833 122.180691
-85.760261 64.662913 122.014425
-84.401574 66.129467 121.934467
-83.042887 67.596022 121.854509
-81.684200 69.062576 121.774551
-80.207798 70.267604 121.662044
-78.654689 71.302210 121.528327
-77.124232 72.387145 121.400874
-75.625177 73.541844 121.282103
-74.040666 74.506686 121.139703
-72.595666 75.781478 121.035879
-70.957100 76.626227 120.878533
-69.415317 77.685998 120.747948
-67.895330 78.794191 120.623389
-66.331751 79.805539 120.486777
-64.789968 80.865309 120.356192
-63.194994 81.806904 120.210899
-61.524170 82.579984 120.044633
-59.853345 83.353063 119.878367
-58.182521 84.126143 119.712102
-56.639625 85.183440 119.581209
-55.097842 86.243210 119.450623
-53.482185 87.138856 119.299612
-51.572847 87.382029 119.067395
-50.031064 88.441800 118.936810
-48.469712 89.458094 118.800814
-46.506069 89.580619 118.553582
-44.964286 90.640390 118.422997
-43.422503 91.700160 118.292412
-41.474277 91.856937 118.049442
-39.897508 92.838979 117.909183
-38.132629 93.403096 117.716911
-36.372514 93.977798 117.525955
-34.478843 94.255779 117.298071
-32.847519 95.116617 117.142727
-31.137194 95.801938 116.965539
-29.322524 96.255436 116.759499
-27.483408 96.654622 116.546700
-25.797529 97.394255 116.376271
-23.829622 97.507306 116.127860
-22.272535 98.533074 115.993043
-20.289323 98.612123 115.740400
-18.747540 99.671894 115.609815
-16.764328 99.750942 115.357172
-14.781116 99.829991 115.104529
-13.180401 100.758832 114.957649
-11.256121 100.968810 114.721301
-9.272910 101.047858 114.468658
-7.543653 101.691120 114.286236
-5.747915 102.186678 114.085430
-3.764703 102.265726 113.832787
-1.781491 102.344775 113.580144
0.201720 102.423823 113.327501
2.059017 102.782617 113.109675
3.726715 103.562642 112.944273
5.709927 103.641691 112.691631
7.693139 103.720740 112.438988
9.676350 103.799788 112.186345
11.659562 103.878837 111.933702
13.642774 103.957885 111.681059
15.625986 104.036934 111.428416
17.609198 104.115982 111.175773
19.592409 104.195031 110.923130
21.575621 104.274080 110.670487
23.558833 104.353128 110.417845
25.542045 104.432177 110.165202
27.525256 104.511225 109.912559
29.239861 103.873368 109.647571
31.111965 103.655871 109.389822
33.095176 103.734919 109.137179
35.078388 103.813968 108.884536
37.061600 103.893017 108.631893
38.886345 103.549121 108.371967
40.648308 103.037662 108.109156
42.631520 103.116711 107.856513
44.566835 103.067926 107.601669
46.218228 102.261356 107.333776
48.201440 102.340405 107.081133
50.184651 102.419453 106.828490
51.788148 101.485050 106.558395
53.771360 101.564099 106.305753
55.659317 101.388916 106.048732
57.358068 100.708744 105.783015
59.341279 100.787793 105.530373
60.944776 99.853389 105.260278
62.785805 99.552957 105.001101
64.531484 98.998035 104.737541
66.214800 98.276669 104.471115
68.118192 98.142680 104.214804
69.912294 97.716999 103.953469
71.704900 97.287326 103.692066
73.341288 96.440710 103.423484
75.055786 95.802566 103.158491
76.895105 95.497568 102.899235
78.498601 94.563165 102.629140
80.467777 94.604752 102.375853
82.085309 93.707810 102.106403
83.688805 92.773407 101.836309
85.611268 92.690319 101.580874
87.275513 91.918052 101.313572
88.879010 90.983649 101.043477
90.486261 90.059267 100.773555
92.200758 89.421123 100.508563
93.915255 88.782979 100.243570
95.629753 88.144834 99.978577
97.075750 86.790071 99.701244
98.790248 86.151927 99.436251
100.483200 85.456279 99.170268
102.086696 84.521875 98.900174
103.690192 83.587472 98.630080
105.379737 82.882731 98.363940
106.897185 81.718666 98.089891
108.540233 80.889824 97.821614
110.104178 79.849859 97.549702
111.700728 78.896917 97.279289
113.311170 77.981053 97.009513
114.861223 76.904010 96.736963
116.307221 75.549247 96.459630
117.753219 74.194484 96.182297
119.345440 73.229988 95.911684
120.913714 72.201576 95.639971
122.359712 70.846814 95.362638
123.805710 69.492051 95.085306
125.251708 68.137288 94.807973
126.697705 66.782525 94.530640
128.143703 65.427762 94.253307
129.589701 64.072999 93.975974
131.035699 62.718236 93.698641
131.789844 61.043496 93.490165
133.235842 59.688733 93.212832
134.681840 58.333971 92.935499
136.127838 56.979208 92.658166
136.881983 55.304468 92.449689
138.258816 53.917717 92.179240
139.082126 52.274965 91.963880
140.339147 50.832802 91.705355
141.282269 49.245463 91.478070
142.419478 47.747887 91.231470
143.459644 46.205430 90.994527
144.236558 44.541221 90.783784
145.539975 43.120515 90.520642
146.436701 41.511718 90.297975
146.641878 39.583085 90.144134
147.682044 38.040628 89.907192
148.699136 36.487499 89.672545
148.783948 34.503198 89.530684
149.824113 32.960741 89.293741
150.864279 31.418283 89.056799
150.926017 29.423311 88.917234
151.778010 27.793825 88.699019
152.027920 25.885881 88.540726
153.068086 24.343423 88.303783
153.129824 22.348451 88.164218
153.410885 20.454913 88.002825
154.231728 18.811021 87.787711
154.293466 16.816048 87.648146
154.355204 14.821075 87.508581
155.395369 13.278618 87.271638
155.457107 11.283645 87.132073
155.518846 9.288672 86.992508
155.580584 7.293700 86.852943
155.642322 5.298727 86.713378
155.704060 3.303754 86.573813
155.765798 1.308782 86.434248
155.827536 -0.686191 86.294683
155.535590 -2.549588 86.209779
154.947022 -4.302638 86.170717
155.008760 -6.297611 86.031152
155.009169 -8.269768 85.901065
154.128246 -9.914058 85.907186
154.189984 -11.909030 85.767621
153.772821 -13.725845 85.702069
153.309470 -15.525477 85.643655
152.475303 -17.187160 85.642550
152.428957 -19.141924 85.519689
151.887713 -20.912579 85.473313
151.548443 -22.758371 85.395723
150.606191 -24.379845 85.411322
149.941436 -26.104553 85.384035
149.725677 -27.996292 85.287356
148.783425 -29.617767 85.302955
147.995159 -31.296526 85.294756
147.346400 -33.027184 85.264996
145.987713 -34.493738 85.344955
145.338954 -36.224396 85.315195
144.690195 -37.955054 85.285436
143.331508 -39.421608 85.365394
142.682749 -41.152266 85.335634
141.324062 -42.618821 85.415592
140.675303 -44.349478 85.385833
139.360906 -45.832509 85.458946
138.667857 -47.546691 85.436031
137.309170 -49.013245 85.515989
135.950483 -50.479800 85.595948
135.301724 -52.210457 85.566188
133.943037 -53.677012 85.646146
132.584350 -55.143566 85.726104
131.225663 -56.610121 85.806062
129.866976 -58.076675 85.886020
128.508288 -59.543230 85.965978
127.149601 -61.009785 86.045937
125.790914 -62.476339 86.125895
124.432227 -63.942894 86.205853
122.761403 -64.715973 86.372119
121.402716 -66.182527 86.452077
120.044029 -67.649082 86.532035
118.685342 -69.115636 86.611993
117.014517 -69.888716 86.778259
115.655830 -71.355270 86.858217
113.985006 -72.128350 87.024483
112.626319 -73.594904 87.104441
110.955494 -74.367984 87.270707
109.596807 -75.834538 87.350665
107.925983 -76.607618 87.516931
106.255159 -77.380697 87.683197
104.584334 -78.153776 87.849463
103.020631 -79.164846 87.986109
101.554823 -80.393410 88.095687
99.937065 -81.284387 88.247280
98.395282 -82.344158 88.377865
96.853499 -83.403928 88.508450
95.183663 -84.179203 88.674443
93.512838 -84.952283 88.840709
91.842014 -85.725362 89.006974
90.244938 -86.662288 89.152848
88.500365 -87.271521 89.339506
86.829541 -88.044600 89.505772
85.178160 -88.860878 89.666662
83.487892 -89.590759 89.838304
81.653165 -89.999697 90.049890
80.111382 -91.059467 90.180475
78.475419 -91.909997 90.337102
76.586388 -92.198287 90.563703
75.044605 -93.258057 90.694288
73.061393 -93.337106 90.946931
71.479984 -94.308840 91.088473
69.536398 -94.475925 91.330159
67.994615 -95.535695 91.460744
66.155374 -95.934603 91.673579
64.469620 -96.674514 91.843973
62.501588 -96.787287 92.092418
60.944626 -97.813333 92.227201
58.961414 -97.892382 92.479844
57.176977 -98.413050 92.677524
55.436419 -99.031201 92.863072
53.453207 -99.110250 93.115714
51.540230 -99.345338 93.348937
49.928212 -100.249069 93.498943
47.945001 -100.328117 93.751585
45.961789 -100.407166 94.004228
44.420006 -101.466936 94.134814
42.436794 -101.545985 94.387456
40.453582 -101.625034 94.640099
38.470371 -101.704082 94.892742
36.487159 -101.783131 95.145385
34.942124 -102.835677 95.276869
32.962164 -102.921950 95.528613
30.978952 -103.000998 95.781256
28.995741 -103.080047 96.033899
27.012529 -103.159096 96.286542
25.029317 -103.238144 96.539185
23.046105 -103.317193 96.791828
21.062893 -103.396241 97.044470
19.079682 -103.475290 97.297113
17.096470 -103.554339 97.549756
15.113258 -103.633387 97.802399
13.130046 -103.712436 98.055042
11.146835 -103.791484 98.307685
-0.110556 -90.665174 124.059668
-1.722050 -89.743528 124.349297
-3.711802 -89.834186 124.577813
-5.701554 -89.924844 124.806328
-7.691306 -90.015502 125.034844
-9.681058 -90.106160 125.263359
-11.292552 -89.184514 125.552988
-13.282304 -89.275172 125.781504
-15.272056 -89.365830 126.010019
-16.936696 -88.586417 126.291062
-18.873302 -88.534843 126.528164
-20.646120 -88.044937 126.791728
-22.474547 -87.703855 127.046308
-24.464299 -87.794513 127.274824
-26.076520 -86.874814 127.564335
-28.064966 -86.961978 127.793062
-29.677038 -86.041880 128.082597
-31.666790 -86.132538 128.311113
-33.278284 -85.210893 128.600742
-35.216344 -85.163211 128.837609
-36.879529 -84.379905 129.118886
-38.658298 -83.905925 129.381489
-40.379275 -83.277281 129.653429
-42.092268 -82.627272 129.926659
-43.821229 -82.019995 130.197310
-45.542206 -81.391352 130.469250
-47.263183 -80.762708 130.741190
-48.916500 -79.952994 131.024062
-50.527994 -79.031348 131.313691
-52.158645 -78.160972 131.600225
-53.879622 -77.532329 131.872165
-55.600599 -76.903685 132.144105
-57.321576 -76.275042 132.416045
-58.963719 -75.435424 132.700722
-60.496060 -74.301949 133.003140
-62.186706 -73.592133 133.279980
-63.938014 -73.044662 133.547020
-65.409693 -71.748842 133.859238
-67.112499 -71.071569 134.134114
-68.632680 -69.905551 134.438496
-70.286983 -69.098476 134.721208
-71.740491 -67.754026 135.036362
-73.193999 -66.409576 135.351516
-74.647506 -65.065126 135.666670
-76.101014 -63.720676 135.981824
-77.554522 -62.376227 136.296978
-79.008029 -61.031777 136.612132
-80.461537 -59.687327 136.927286
-81.915044 -58.342877 137.242440
-83.368552 -56.998427 137.557594
-84.822060 -55.653977 137.872748
-86.275567 -54.309527 138.187902
-87.729075 -52.965077 138.503056
-88.872798 -51.476071 138.796339
-89.943935 -49.953192 139.084496
-90.962145 -48.405616 139.368917
-92.158795 -46.941307 139.665936
-93.051492 -45.335162 139.941496
-94.096165 -43.799935 140.227785
-95.135007 -42.261987 140.513663
-96.185512 -40.729481 140.800363
-97.230185 -39.194254 141.086653
-98.111220 -37.582667 141.361389
-98.340676 -35.667029 141.590121
-99.385350 -34.131802 141.876411
-100.395277 -32.580361 142.160247
-100.495841 -30.604578 142.379880
-101.540514 -29.069351 142.666169
-101.987179 -27.255070 142.910237
-102.651006 -25.542126 143.169638
-102.817728 -23.597215 143.393941
-103.761497 -22.014902 143.673106
-103.827315 -20.022905 143.890286
-103.893133 -18.030908 144.107465
-104.937806 -16.495681 144.393755
-105.003624 -14.503683 144.610934
-105.069442 -12.511686 144.828114
-105.135260 -10.519689 145.045293
-105.201078 -8.527692 145.262473
-105.266896 -6.535694 145.479653
-105.332714 -4.543697 145.696832
-105.134567 -2.647817 145.872333
-104.458299 -0.926036 145.972342
-104.524117 1.065962 146.189521
-104.589935 3.057959 146.406701
-103.649701 4.683623 146.465031
-103.715519 6.675620 146.682211
-102.775285 8.301285 146.740541
-102.841103 10.293282 146.957720
-102.076397 11.982861 147.043765
-101.427356 13.714557 147.148073
-100.778315 15.446253 147.252381
-100.086220 17.162272 147.349891
-99.480233 18.909645 147.460996
-98.831192 20.641342 147.565304
-97.470765 22.114001 147.557288
-96.821724 23.845697 147.661596
-96.172683 25.577393 147.765904
-95.450870 27.282591 147.858721
-94.163216 28.781749 147.862196
-93.514175 30.513445 147.966504
-92.153748 31.986105 147.958488
-91.504707 33.717801 148.062796
-90.144280 35.190461 148.054780
-88.783853 36.663120 148.046764
-87.863183 38.295908 148.108183
-86.708832 39.723520 148.120088
-85.100062 40.650817 148.025059
-83.739635 42.123477 148.017043
-82.379208 43.596136 148.009028
-81.018781 45.068796 148.001012
-79.658354 46.541456 147.992996
-78.297927 48.014115 147.984981
-76.937500 49.486775 147.976965
-75.577073 50.959435 147.968949
-74.216646 52.432094 147.960933
-72.582225 53.303061 147.856917
-71.181896 54.688095 147.834921
-69.507573 55.471437 147.716923
-68.147146 56.944096 147.708908
-66.398883 57.565065 147.565004
-64.798499 58.510779 147.472913
-63.307211 59.696067 147.419047
-61.761376 60.761568 147.346069
-60.089426 61.550122 147.228903
-58.415102 62.333463 147.110906
-56.740779 63.116804 146.992909
-55.134117 64.048729 146.898619
-53.588281 65.114231 146.825640
-52.031706 66.156147 146.748899
-50.357382 66.939488 146.630902
-48.683059 67.722830 146.512905
-46.961022 68.401392 146.378190
-45.334412 69.289512 146.276911
-43.660089 70.072854 146.158914
-41.879599 70.623052 146.003718
-40.311442 71.639537 145.922919
-38.344011 71.779211 145.702224
-36.798175 72.844712 145.629246
-34.808423 72.935370 145.400731
-33.262587 74.000871 145.327752
-31.312033 74.177607 145.112971
-29.726999 75.157030 145.026259
-27.737247 75.247688 144.797743
-25.975166 75.838314 144.648998
-24.201659 76.403847 144.496249
-22.312623 76.715678 144.303022
-20.666072 77.560006 144.194756
-18.676319 77.650664 143.966240
-16.686567 77.741322 143.737725
-15.140732 78.806823 143.664746
-13.150979 78.897481 143.436231
-11.161227 78.988139 143.207715
-9.171475 79.078797 142.979200
-7.181723 79.169455 142.750684
-5.635887 80.234956 142.677706
-3.646135 80.325614 142.449191
-1.656383 80.416272 142.220675
0.333369 80.506930 141.992160
2.323121 80.597588 141.763644
4.312874 80.688246 141.535129
6.302626 80.778904 141.306613
8.292378 80.869562 141.078098
10.282130 80.960220 140.849582
12.271882 81.050878 140.621067
14.261635 81.141536 140.392551
16.204350 81.106314 140.156436
17.862880 80.310548 139.874407
19.852632 80.401206 139.645891
21.842385 80.491864 139.417376
23.832137 80.582522 139.188860
25.821889 80.673180 138.960345
27.433382 79.751534 138.670716
29.423134 79.842192 138.442200
31.412887 79.932850 138.213685
33.030490 79.027557 137.925043
35.014132 79.101863 137.695540
37.003884 79.192521 137.467025
38.615378 78.270875 137.177396
40.605130 78.361533 136.948880
42.216623 77.439888 136.659251
44.206375 77.530546 136.430736
45.879737 76.774474 136.151103
47.807621 76.699558 135.912591
49.419114 75.777913 135.622962
51.293001 76.123013 135.435044
51.970647 77.844293 135.534835
51.904829 79.836290 135.752014
50.860155 81.371517 136.038304
50.406576 83.182571 136.282860
49.749664 84.898742 136.541772
48.883872 86.517441 136.815432
48.639172 88.425966 137.045241
48.573355 90.417963 137.262421
48.507537 92.409961 137.479600
48.441719 94.401958 137.696780
48.375901 96.393955 137.913959
49.316134 98.019619 137.972290
49.250316 100.011617 138.189469
50.156537 101.649666 138.253170
50.805578 103.381362 138.357477
52.071017 104.888609 138.364460
52.815046 106.585718 138.453769
54.175473 108.058377 138.445754
55.535900 109.531037 138.437738
56.896327 111.003696 138.429722
58.467898 112.012683 138.347727
60.013733 113.078184 138.274749
61.605401 114.043039 138.185712
63.549321 114.234343 137.973255
65.095157 115.299844 137.900277
66.942267 115.703745 137.721739
68.630744 116.456004 137.598783
70.620497 116.546661 137.370268
72.279133 117.364451 137.257767
74.156084 117.702821 137.068774
76.145837 117.793478 136.840258
78.135589 117.884136 136.611743
80.125341 117.974794 136.383227
81.736834 117.053149 136.093598
83.726587 117.143807 135.865083
85.716339 117.234465 135.636567
87.367612 116.419280 135.353366
89.317584 116.403477 135.118423
91.077036 115.877800 134.852699
92.918830 115.572490 134.600278
94.530323 114.650844 134.310649
96.239967 113.991870 134.036878
98.131569 113.819857 133.792505
99.743062 112.898211 133.502876
101.402898 112.105940 133.221057
103.123875 111.477297 132.949117
104.844852 110.848654 132.677177
106.565829 110.220011 132.405237
108.019336 108.875561 132.090083
109.472844 107.531111 131.774929
111.193821 106.902468 131.502989
112.647329 105.558018 131.187835
114.100836 104.213568 130.872681
115.554344 102.869118 130.557527
116.772854 102.006005 130.321062
118.036673 100.573039 130.019300
119.490181 99.228590 129.704146
120.885730 97.857094 129.393084
121.705041 96.216705 129.122706
123.158549 94.872255 128.807552
124.019750 93.251413 128.534217
125.064423 91.716186 128.247927
126.109096 90.180958 127.961638
126.896113 88.525499 127.693540
127.657466 86.858064 127.427254
128.264261 85.118507 127.171880
129.180170 83.523194 126.894682
129.374752 81.591283 126.668411
130.419426 80.056056 126.382122
130.485244 78.064058 126.164943
130.551062 76.072061 125.947763
130.616880 74.080064 125.730583
130.682698 72.088067 125.513404
130.439826 70.208472 125.344965
129.808282 68.470405 125.237894
129.853130 66.486044 125.024026
128.933866 64.852743 124.962384
127.843662 63.281688 124.927734
127.053399 61.601415 124.845724
125.834194 60.077332 124.831442
124.473767 58.604673 124.839457
123.113340 57.132013 124.847473
121.752914 55.659353 124.855489
120.078590 54.876012 124.973486
118.425838 54.045301 125.083925
116.880002 52.979800 125.156903
115.055620 52.525988 125.327477
113.344414 51.823641 125.458397
111.706974 50.959305 125.563472
109.808826 50.667482 125.759891
107.819074 50.576824 125.988406
106.273239 49.511323 126.061385
104.283486 49.420665 126.289900
102.293734 49.330007 126.518416
100.719344 48.327211 126.601399
100.720450 46.358777 126.394437
102.114373 44.986523 126.083490
103.567881 43.642073 125.768336
104.833325 42.209866 125.466459
105.782741 40.630188 125.186896
106.922672 39.139412 124.893881
107.997601 37.618303 124.605455
109.012018 36.068958 124.321302
110.056692 34.533731 124.035013
110.973813 32.938983 123.757729
111.735165 31.271548 123.491443
113.188673 29.927098 123.176289
113.950025 28.259663 122.910003
114.301203 26.400825 122.672677
115.345876 24.865598 122.386387
116.234083 23.257357 122.111145
116.995435 21.589922 121.844859
117.501041 19.803146 121.596629
117.825984 17.932067 121.361155
118.611532 16.275922 121.093160
118.677350 14.283925 120.875981
119.722024 12.748698 120.589692
119.787842 10.756701 120.372512
119.853660 8.764703 120.155333
120.898333 7.229476 119.869043
120.964151 5.237479 119.651864
121.029969 3.245482 119.434684
121.095787 1.253484 119.217505
121.161605 -0.738513 119.000325
121.227423 -2.730510 118.783146
121.293241 -4.722507 118.565966
121.220196 -6.663940 118.370712
120.418825 -8.340169 118.290456
120.484643 -10.332166 118.073277
120.550461 -12.324163 117.856097
119.610228 -13.949828 117.797767
119.676046 -15.941825 117.580587
118.748722 -17.572190 117.520219
118.801630 -19.559486 117.305078
117.861396 -21.185151 117.246747
117.512986 -23.026315 117.094972
116.863945 -24.758011 116.990664
116.046747 -26.428477 116.912907
115.565863 -28.221403 116.782049
114.916822 -29.953099 116.677741
114.232098 -31.671802 116.579067
112.907354 -33.157455 116.581449
112.258313 -34.889151 116.477141
111.411397 -36.548795 116.404077
110.248845 -38.093507 116.380849
109.530929 -39.800124 116.287416
108.239377 -41.297863 116.284557
107.590336 -43.029559 116.180249
106.229909 -44.502218 116.188265
104.869482 -45.974878 116.196281
103.509055 -47.447538 116.204297
102.148629 -48.920197 116.212312
100.788202 -50.392857 116.220328
99.427775 -51.865517 116.228344
98.067348 -53.338176 116.236359
96.706921 -54.810836 116.244375
96.057880 -56.542532 116.140067
94.697453 -58.015191 116.148083
93.023130 -58.798533 116.266080
91.662703 -60.271192 116.274096
90.268891 -61.670539 116.293809
88.627953 -62.527194 116.400109
87.177220 -63.801542 116.439765
85.593202 -64.783195 116.526122
84.085549 -65.932544 116.585722
82.539713 -66.998045 116.658700
80.884129 -67.822537 116.770132
79.448042 -69.129047 116.804657
77.849378 -70.078538 116.896145
76.175055 -70.861879 117.014142
74.810535 -72.325550 117.023592
73.140305 -73.117880 117.140155
71.465982 -73.901222 117.258152
69.791658 -74.684563 117.376149
68.183276 -75.612712 117.471042
66.443012 -76.251246 117.612143
64.768688 -77.034588 117.730140
63.101853 -77.834372 117.845514
61.420042 -78.601270 117.966134
59.745718 -79.384612 118.084132
58.020429 -80.056032 118.219986
56.397072 -80.951295 118.320126
54.484841 -81.212191 118.521480
52.939006 -82.277692 118.594458
51.060205 -82.612001 118.784099
49.403418 -83.433851 118.895952
47.413666 -83.524509 119.124467
45.867830 -84.590010 119.197445
43.878078 -84.680668 119.425961
42.332242 -85.746169 119.498939
40.342490 -85.836827 119.727455
38.398253 -86.027436 119.940023
36.806902 -86.992986 120.028948
34.817150 -87.083644 120.257464
32.827398 -87.174302 120.485979
31.281562 -88.239803 120.558958
29.291810 -88.330461 120.787473
27.302058 -88.421119 121.015989
25.312306 -88.511777 121.244504
23.322553 -88.602435 121.473020
21.759861 -89.630918 121.551904
19.786966 -89.758594 121.774513
17.797213 -89.849252 122.003029
15.807461 -89.939910 122.231544
13.817709 -90.030568 122.460060
11.827957 -90.121226 122.688575
9.838205 -90.211884 122.917091
7.848452 -90.302542 123.145606
5.858700 -90.393200 123.374122
3.868948 -90.483858 123.602637
1.879196 -90.574516 123.831153
