ply
format ascii 1.0
element vertex 1540
property float x
property float y
property float z
end_header
-22.060048 -94.816700 21.568234
-23.634164 -93.811350 21.742293
-25.625835 -93.804367 21.938333
-27.617506 -93.797384 22.134373
-29.434675 -93.373170 22.321227
-31.183292 -92.785050 22.504472
-33.121989 -92.651405 22.697723
-34.749079 -91.772716 22.874571
-36.740750 -91.765733 23.070611
-38.732420 -91.758750 23.266651
-40.306536 -90.753399 23.440710
-42.192644 -90.494017 23.631193
-43.872323 -89.741066 23.810809
-45.863994 -89.734083 24.006849
-47.438110 -88.728732 24.180908
-49.012226 -87.723381 24.354968
-50.672788 -86.924723 24.533578
-52.368817 -86.210865 24.714054
-54.064846 -85.497006 24.894531
-55.726245 -84.700346 25.073185
-57.161648 -83.363336 25.239942
-58.874477 -82.689645 25.421304
-60.553706 -81.935618 25.600896
-61.954479 -80.515807 25.765830
-63.355252 -79.095996 25.930765
-64.756025 -77.676185 26.095699
-66.452054 -76.962326 26.276176
-67.852827 -75.542515 26.441110
-68.722999 -73.904245 26.558030
-69.949109 -72.412521 26.707159
-71.349882 -70.992710 26.872093
-72.683668 -70.129709 27.019791
-73.036155 -68.278298 27.089866
-74.732183 -67.564439 27.270343
-75.646943 -65.944527 27.391297
-76.633659 -64.354240 27.518764
-76.818709 -62.433892 27.573687
-78.474766 -61.624460 27.752060
-79.210246 -60.009851 27.855279
-79.586256 -58.168125 27.927483
-80.613107 -56.617805 28.058133
-81.562814 -55.573229 28.171523
-81.582272 -53.584703 28.211462
-82.538852 -51.982009 28.336202
-83.525569 -50.391723 28.463668
-84.374062 -48.744527 28.578627
-84.501607 -46.800503 28.628347
-84.490928 -44.799570 28.665559
-85.477645 -43.209283 28.793025
-86.450831 -41.613427 28.919267
-86.453683 -39.618064 28.957704
-86.443005 -37.617131 28.994916
-87.429721 -36.026844 29.122382
-87.419043 -34.025911 29.159595
-87.408364 -32.024978 29.196807
-87.397686 -30.024045 29.234019
-87.387008 -28.023111 29.271231
-88.373724 -26.432825 29.398698
-88.363046 -24.431892 29.435910
-89.174329 -22.769376 29.547501
-89.339084 -20.840672 29.600588
-89.328405 -18.839739 29.637801
-89.317727 -16.838806 29.675013
-89.307049 -14.837873 29.712225
-88.764296 -13.060719 29.692822
-88.292718 -11.253631 29.680992
-88.282039 -9.252698 29.718204
-88.271361 -7.251765 29.755416
-87.313632 -5.649142 29.691857
-87.257030 -3.667524 29.724183
-87.246351 -1.666591 29.761395
-87.235673 0.334342 29.798608
-86.565107 2.057740 29.765604
-86.221342 3.918584 29.767374
-86.210663 5.919517 29.804587
-85.828178 7.764075 29.802237
-85.196332 9.503758 29.773353
-85.102846 11.469864 29.801754
-84.182001 13.087999 29.742120
-83.675375 14.880347 29.726561
-82.961640 16.585588 29.688964
-82.164017 18.255548 29.642441
-81.534169 19.996071 29.613771
-81.149686 21.839789 29.611208
-80.146033 23.423097 29.542763
-80.095101 25.407100 29.575692
-79.131702 27.007338 29.511529
-78.667630 28.817583 29.500498
-77.953894 30.522824 29.462901
-77.113718 32.174887 29.411851
-76.110065 33.758195 29.343405
-75.110549 35.343243 29.275400
-74.102759 36.924811 29.206514
-73.683078 38.753725 29.200206
-72.267203 40.163661 29.087898
-72.084775 42.092360 29.106835
-70.839732 43.574144 29.012704
-70.077469 45.258976 28.969944
-69.073816 46.842284 28.901499
-68.070164 48.425591 28.833053
-67.282651 50.099804 28.787606
-65.866776 51.509739 28.675298
-64.450902 52.919675 28.562990
-64.055552 54.758823 28.559271
-63.023431 56.330158 28.487796
-61.607556 57.740093 28.375488
-60.893821 59.445335 28.337891
-59.477946 60.855270 28.225583
-58.062071 62.265206 28.113275
-57.040660 63.841045 28.042940
-55.932461 65.380383 27.963370
-54.516587 66.790319 27.851062
-53.100712 68.200254 27.738754
-52.033074 69.756651 27.663500
-50.971102 71.315431 27.588849
-49.362418 72.250901 27.448503
-47.851643 73.427306 27.322394
-46.435768 74.837242 27.210086
-45.019894 76.247178 27.097778
-44.028334 77.835571 27.030619
-42.835213 79.226836 26.939865
-41.186699 80.064294 26.793727
-39.770825 81.474230 26.681419
-38.354950 82.884165 26.569110
-36.651366 83.586104 26.414964
-35.235491 84.996040 26.302656
-33.531907 85.697979 26.148509
-32.116032 87.107915 26.036201
-30.563797 88.182295 25.904063
-29.039435 89.237817 25.774307
-27.977188 90.172890 25.687702
-26.291543 90.918974 25.536164
-25.577807 92.624215 25.498567
-23.874223 93.326155 25.344421
-22.221004 94.152034 25.197598
-20.467054 94.730033 25.036128
-19.634395 96.142628 24.981237
-18.049608 97.136903 24.844366
-16.058439 97.131156 24.648399
-15.056013 98.714980 24.580084
-13.471328 99.120514 24.431965
-11.649825 99.532280 24.260670
-9.946240 100.234219 24.106524
-8.310083 101.102082 23.962182
-6.725295 102.096357 23.825311
-5.123197 103.048033 23.685922
-3.419612 103.749972 23.531776
-1.716028 104.451912 23.377629
0.020738 105.072199 23.218657
1.691141 105.855790 23.069336
3.597196 106.059491 22.885746
5.098310 107.259668 22.761042
6.766770 108.048041 22.612003
8.505479 108.663547 22.452749
10.343228 109.035333 22.279092
12.200358 109.359429 22.102617
13.919686 110.022625 21.946181
15.911357 110.015642 21.750141
17.903028 110.008659 21.554101
19.894698 110.001676 21.358061
21.869120 110.037139 21.164530
23.471157 110.988968 21.025150
25.462827 110.981985 20.829110
27.454498 110.975002 20.633070
29.446169 110.968019 20.437031
31.030956 111.962294 20.300159
33.022627 111.955311 20.104119
35.014297 111.948328 19.908079
37.005968 111.941345 19.712040
38.997639 111.934362 19.516000
40.989309 111.927379 19.319960
42.980980 111.920396 19.123920
44.899658 111.738889 18.931722
46.546767 110.908062 18.753821
48.538437 110.901079 18.557781
50.530108 110.894096 18.361741
52.521779 110.887113 18.165701
54.095895 109.881762 17.991642
55.670011 108.876412 17.817583
57.657627 108.859735 17.621756
59.235797 107.864078 17.447483
61.227468 107.857095 17.251444
63.040970 107.424112 17.064783
64.736998 106.710253 16.884306
66.137772 105.290442 16.719372
67.941487 104.834060 16.533226
69.529829 103.862724 16.358418
71.507274 103.821726 16.163127
72.921887 102.435007 15.997464
74.322660 101.015196 15.832530
76.229622 100.805674 15.640949
77.714718 99.587478 15.471576
79.377854 98.794973 15.292831
80.811520 97.453808 15.126165
82.212293 96.033997 14.961231
83.613066 94.614186 14.796297
85.256763 93.775203 14.618575
86.709868 92.480516 14.450886
87.407530 90.771220 14.349576
88.806149 89.350522 14.184837
90.206923 87.930711 14.019902
90.902431 86.220529 13.918787
92.303204 84.800717 13.753853
93.338507 83.230435 13.621990
94.430576 81.745059 13.486168
95.315065 80.635539 13.377950
96.085759 78.956312 13.270032
96.781267 77.246129 13.168917
97.476776 75.535947 13.067802
98.877549 74.116136 12.902867
99.573057 72.405953 12.801752
100.237969 70.683174 12.703406
100.964074 68.985589 12.599523
101.214007 67.091954 12.538728
101.649827 65.274853 12.461112
102.345335 63.564671 12.359997
103.176762 61.910448 12.246583
103.166083 59.909515 12.209371
103.726596 58.143752 12.120471
104.422105 56.433570 12.019356
105.128838 54.728009 11.917226
105.118159 52.727076 11.880014
106.104876 51.136789 11.752547
106.094197 49.135856 11.715335
106.083519 47.134923 11.678123
106.072841 45.133990 11.640910
106.062162 43.133056 11.603698
106.051484 41.132123 11.566486
106.040806 39.131190 11.529274
106.030127 37.130257 11.492061
106.430582 35.298595 11.417646
107.006165 33.539037 11.327383
106.995487 31.538104 11.290171
106.984809 29.537171 11.252958
106.149843 27.882916 11.303455
105.970478 25.952930 11.284192
105.959799 23.951997 11.246979
105.412915 22.176581 11.266822
104.945468 20.367755 11.278213
104.934790 18.366822 11.241000
104.675986 16.470245 11.230190
103.920459 14.782581 11.272234
103.909780 12.781648 11.235021
103.236919 11.059216 11.268269
102.895449 9.197407 11.266255
102.511587 7.353427 11.268751
101.881118 5.613166 11.297488
101.786255 3.647639 11.269233
100.866787 2.028925 11.328721
100.358783 0.237156 11.344427
99.852455 -1.555317 11.359954
99.633451 -3.468632 11.344909
98.838124 -5.139558 11.391188
98.205980 -6.879115 11.420103
96.830818 -8.306173 11.528079
96.778509 -10.289598 11.495296
95.362635 -11.699533 11.607604
94.812834 -13.473722 11.627758
93.935164 -15.110016 11.682798
93.798503 -17.057964 11.658991
92.507693 -18.520499 11.757991
91.791197 -20.224579 11.795882
91.080221 -21.930981 11.833185
89.783892 -23.391195 11.932773
89.652750 -25.341464 11.908379
88.236876 -26.751400 12.020687
86.821001 -28.161335 12.132995
86.762255 -30.142052 12.100897
85.393530 -31.571818 12.208188
83.977656 -32.981754 12.320496
83.263920 -34.686995 12.358093
81.848045 -36.096931 12.470401
80.751016 -37.640966 12.548783
80.420574 -39.507414 12.545595
79.004700 -40.917349 12.657903
77.588825 -42.327285 12.770211
76.736405 -43.974198 12.822565
75.459215 -45.442462 12.920116
74.043341 -46.852398 13.032424
72.732471 -48.306496 13.133559
71.913731 -49.967575 13.182329
70.497856 -51.377510 13.294637
69.081981 -52.787446 13.406945
67.642022 -54.138113 13.522756
65.962522 -54.899321 13.673400
64.727731 -56.385416 13.766440
63.832912 -58.014498 13.823305
62.417038 -59.424433 13.935613
61.001163 -60.834369 14.047921
59.297579 -61.536308 14.202068
57.881704 -62.946244 14.314376
57.167969 -64.651485 14.351973
55.752094 -66.061421 14.464281
54.048509 -66.763360 14.618427
52.632635 -68.173296 14.730735
51.011154 -69.077276 14.872943
49.513176 -70.285171 14.997190
47.841580 -71.065827 15.146685
46.393717 -72.397046 15.263645
44.690132 -73.098985 15.417792
43.274258 -74.508921 15.530100
41.570673 -75.210860 15.684246
40.154799 -76.620796 15.796554
38.451214 -77.322735 15.950701
36.748068 -78.025752 16.104784
35.163281 -79.020028 16.241655
33.628171 -80.136549 16.371302
31.993706 -81.008578 16.515398
30.408918 -82.002853 16.652269
28.805127 -82.950363 16.791904
27.239344 -83.991403 16.926012
25.654556 -84.985678 17.062883
23.662886 -84.978695 17.258923
21.990789 -85.758120 17.408490
20.086428 -85.965987 17.591834
18.501640 -86.960262 17.728705
16.880035 -87.863938 17.870930
14.925182 -87.947554 18.061616
13.185157 -88.559820 18.221062
11.481572 -89.261759 18.375209
9.763937 -89.929122 18.531399
8.074403 -90.665637 18.683502
6.187479 -90.916414 18.864310
4.379524 -91.361519 19.033634
2.611021 -91.903706 19.197221
0.972355 -92.765398 19.341927
-0.965438 -92.890998 19.530132
-2.957108 -92.884015 19.726172
-4.948779 -92.877032 19.922212
-6.940450 -92.870048 20.118252
-8.696407 -93.443108 20.280015
-10.516908 -93.857341 20.451163
-12.508578 -93.850357 20.647203
-14.500249 -93.843374 20.843243
-16.491920 -93.836391 21.039283
-18.483590 -93.829408 21.235323
-20.068754 -94.822758 21.372249
-71.099875 -135.598599 58.385860
-72.691289 -134.626464 58.587508
-74.681865 -134.660431 58.789932
-76.506146 -134.275244 58.992032
-78.263856 -133.722263 59.194003
-80.204410 -133.630148 59.396329
-81.845846 -132.784096 59.598074
-83.620423 -132.273631 59.800078
-85.328430 -131.595372 60.001952
-87.019250 -130.873793 60.203793
-88.610663 -129.901659 60.405441
-90.202077 -128.929524 60.607089
-92.160457 -128.882337 60.809450
-93.586213 -127.492657 61.010776
-95.294219 -126.814398 61.212651
-96.719975 -125.424718 61.413977
-98.145731 -124.035038 61.615303
-99.750559 -123.096715 61.816977
-101.279494 -121.967099 62.018504
-102.705250 -120.577419 62.219830
-104.131006 -119.187738 62.421157
-105.556762 -117.798058 62.622483
-106.282909 -116.103754 62.764328
-107.708665 -114.714074 62.965654
-109.134421 -113.324393 63.166980
-110.209425 -111.781989 63.338485
-111.286323 -110.240409 63.510151
-112.239712 -108.645051 63.671316
-112.738617 -106.851801 63.793840
-113.464764 -105.157498 63.935684
-114.295746 -103.508841 64.086442
-115.310890 -101.940372 64.252857
-116.326033 -100.371903 64.419273
-116.369352 -98.380282 64.503062
-117.366924 -96.804162 64.667984
-117.392671 -94.804890 64.750279
-118.407814 -93.236421 64.916694
-118.433561 -91.237149 64.998990
-118.600869 -89.299515 65.093321
-119.474452 -87.669408 65.247700
-119.500199 -85.670136 65.329995
-119.525945 -83.670864 65.412291
-119.551692 -81.671592 65.494586
-119.577439 -79.672320 65.576881
-119.603186 -77.673048 65.659177
-119.628933 -75.673776 65.741472
-119.090962 -73.898206 65.757146
-118.680372 -72.072087 65.787874
-118.706119 -70.072815 65.870169
-117.751513 -68.462580 65.836604
-117.757557 -66.471126 65.916571
-117.094262 -64.745289 65.917434
-116.808996 -62.869437 65.962973
-115.834687 -61.267020 65.927079
-115.047666 -59.590281 65.913320
-114.365468 -57.871945 65.911949
-113.911818 -56.062914 65.937588
-113.937565 -54.063642 66.019883
-114.890615 -52.468136 66.181019
-115.616762 -50.773832 66.322864
-117.042518 -49.384152 66.524190
-117.998139 -47.789766 66.685545
-119.194421 -46.300168 66.867361
-120.028426 -44.652828 67.018376
-121.346323 -43.216184 67.210532
-122.072470 -41.521880 67.352376
-123.073856 -39.947420 67.517622
-124.089000 -38.378951 67.684037
-124.950520 -36.743592 67.837391
-126.119287 -35.242013 68.016868
-126.402814 -33.354984 68.121080
-127.160177 -31.674272 68.265579
-128.175320 -30.105803 68.431994
-129.190464 -28.537334 68.598410
-129.307402 -26.577768 68.688458
-130.231354 -24.969593 68.847120
-130.759696 -23.189160 68.972147
-131.272245 -21.401852 69.095831
-131.512380 -19.495929 69.196354
-132.313135 -17.834111 69.344542
-132.964674 -16.107321 69.480043
-133.354026 -14.266370 69.593252
-133.379773 -12.267098 69.675548
-134.394916 -10.698629 69.841963
-134.420663 -8.699357 69.924258
-134.446410 -6.700085 70.006554
-134.523120 -4.723003 70.093182
-135.487300 -3.132344 70.255264
-135.513047 -1.133072 70.337560
-135.538794 0.866200 70.419855
-135.564541 2.865472 70.502150
-135.590288 4.864744 70.584445
-135.616035 6.864016 70.666741
-135.641782 8.863288 70.749036
-135.667529 10.862560 70.831331
-135.220332 12.674152 70.857733
-134.718967 14.464249 70.877733
-134.744714 16.463521 70.960028
-134.770461 18.462792 71.042324
-133.905830 20.108733 71.019392
-133.821900 22.064482 71.088726
-133.847647 24.063753 71.171021
-132.873338 25.666171 71.135128
-132.591328 27.543314 71.181051
-131.924777 29.267860 71.181529
-131.934077 31.260605 71.261881
-130.976216 32.869549 71.227931
-130.569680 34.697277 71.259139
-129.887482 36.415613 71.257767
-129.053346 38.073655 71.238440
-128.523085 39.852284 71.255025
-127.840886 41.570620 71.253654
-127.130476 43.277761 71.248948
-126.476489 45.007292 71.250911
-125.181859 46.482595 71.177162
-124.404947 48.163345 71.164597
-123.722748 49.881681 71.163226
-123.040550 51.600017 71.161854
-122.284681 53.289118 71.151777
-120.969007 54.756070 71.075540
-119.579663 56.193787 70.990597
-118.897464 57.912123 70.989225
-118.215266 59.630459 70.987854
-116.825921 61.068176 70.902911
-116.143723 62.786512 70.901540
-114.754379 64.224230 70.816597
-113.490159 65.711600 70.746441
-112.682836 67.380283 70.730282
-111.293492 68.818000 70.645339
-109.904147 70.255717 70.560396
-108.514803 71.693434 70.475452
-107.125459 73.131151 70.390509
-105.736114 74.568869 70.305566
-104.346770 76.006586 70.220623
-102.957426 77.444303 70.135679
-101.568081 78.882020 70.050736
-100.178737 80.319737 69.965793
-98.789393 81.757455 69.880850
-97.230869 82.800174 69.762849
-95.710258 83.931410 69.652257
-94.320914 85.369128 69.567313
-92.931569 86.806845 69.482370
-91.393039 87.896244 69.368276
-89.827358 88.922252 69.248877
-88.162644 89.717040 69.110127
-86.773300 91.154757 69.025184
-85.130314 92.000274 68.890679
-83.694165 93.328713 68.796590
-82.004374 94.064951 68.652940
-80.433270 95.078297 68.532481
-78.925239 96.238907 68.424347
-77.301907 97.130312 68.293683
-75.736226 98.156320 68.174284
-74.156314 99.149102 68.052104
-72.466523 99.885341 67.908454
-70.776733 100.621579 67.764804
-69.086942 101.357818 67.621154
-67.482924 102.294317 67.494264
-65.917243 103.320325 67.374864
-64.318017 104.268013 67.248911
-62.628226 105.004252 67.105261
-60.938436 105.740490 66.961611
-59.248645 106.476729 66.817961
-57.663941 107.458322 66.694844
-55.869064 107.949207 66.530661
-54.179273 108.685445 66.387011
-52.542002 109.544304 66.253623
-50.799692 110.157923 66.099711
-49.109902 110.894162 65.956061
-47.420062 111.630287 65.812401
-45.730321 112.366639 65.668760
-43.863805 112.690261 65.490579
-42.298123 113.716269 65.371179
-40.360503 113.873877 65.179104
-38.741865 114.776244 65.049357
-36.751289 114.810211 64.846934
-35.185608 115.836218 64.727535
-33.195031 115.870186 64.525111
-31.611104 116.853592 64.402147
-29.638773 116.930160 64.203289
-27.931076 117.624591 64.056140
-26.082516 117.990135 63.881467
-24.251049 118.395590 63.710133
-22.526258 119.050110 63.559644
-20.535681 119.084077 63.357221
-18.881231 119.902828 63.220477
-16.979423 120.144052 63.035399
-14.988847 120.178019 62.832976
-13.210967 120.708587 62.672113
-11.432589 121.237994 62.511153
-9.442013 121.271961 62.308730
-7.451436 121.305928 62.106307
-5.850912 122.250585 61.980099
-3.895178 122.365903 61.784484
-1.904602 122.399870 61.582061
0.085975 122.433837 61.379638
2.076551 122.467805 61.177215
3.799826 123.125865 61.027022
5.632809 123.527779 60.855393
7.623386 123.561746 60.652969
9.613962 123.595714 60.450546
11.604538 123.629681 60.248123
13.595115 123.663648 60.045700
15.585691 123.697615 59.843277
17.576268 123.731583 59.640854
19.566844 123.765550 59.438430
21.557421 123.799517 59.236007
23.547997 123.833484 59.033584
25.538574 123.867451 58.831161
27.529150 123.901419 58.628738
29.519727 123.935386 58.426315
31.510303 123.969353 58.223891
33.101717 122.997218 58.022243
35.092294 123.031185 57.819820
37.082870 123.065153 57.617397
39.073447 123.099120 57.414974
41.064023 123.133087 57.212551
42.748677 122.395967 57.010722
44.646013 122.194919 56.808480
46.636590 122.228887 56.606056
48.627166 122.262854 56.403633
50.218580 121.290719 56.201985
52.209156 121.324686 55.999562
54.199733 121.358653 55.797139
55.833727 120.493842 55.595408
57.781723 120.420486 55.393068
59.772300 120.454453 55.190645
61.363713 119.482318 54.988997
63.354290 119.516285 54.786573
64.945704 118.544150 54.584925
66.936280 118.578118 54.382502
68.636525 117.880296 54.180643
70.518270 117.639950 53.978431
72.334789 117.235200 53.776346
74.100260 116.701782 53.574360
75.750803 115.878683 53.372597
77.682251 115.763615 53.170289
79.273664 114.791480 52.968641
81.264241 114.825447 52.766218
82.865080 113.877070 52.564551
84.846231 113.887280 52.362146
86.437645 112.915145 52.160498
88.029058 111.943010 51.958850
89.979357 111.875457 51.756505
91.611049 111.004842 51.554779
93.395371 110.518939 51.352756
95.103377 109.840680 51.150882
96.784453 109.094540 50.949060
98.375866 108.122405 50.747412
99.967280 107.150270 50.545764
101.653153 106.416224 50.343932
103.549270 106.212102 50.141693
105.140684 105.239968 49.940045
106.777173 104.381448 49.738309
108.323511 103.295698 49.536749
109.914925 102.323563 49.335101
111.618943 101.635250 49.133234
113.326949 100.956991 48.931359
115.034956 100.278733 48.729485
116.460712 98.889052 48.528159
118.168719 98.210794 48.326284
119.862570 97.496856 48.124437
121.302481 96.142855 47.923083
123.010488 95.464596 47.721209
124.436244 94.074916 47.519883
125.862000 92.685235 47.318556
127.570007 92.006977 47.116682
128.995763 90.617296 46.915355
130.603303 89.685810 46.713676
132.129525 88.549357 46.512155
133.555281 87.159677 46.310828
134.981037 85.769997 46.109502
136.406793 84.380317 45.908176
138.114800 83.702058 45.706301
139.540556 82.312378 45.504975
140.966312 80.922697 45.303649
142.392068 79.533017 45.102322
143.817824 78.143337 44.900996
145.243580 76.753656 44.699670
146.669335 75.363976 44.498343
148.095091 73.974296 44.297017
149.520847 72.584616 44.095690
150.946603 71.194935 43.894364
151.672750 69.500631 43.752520
153.098506 68.110951 43.551193
154.139074 66.553552 43.382616
155.250409 65.026967 43.208023
156.169361 63.416614 43.049786
157.184505 61.848145 42.883370
158.128459 60.248679 42.723007
159.554215 58.858998 42.521681
160.280362 57.164695 42.379837
161.245079 55.574269 42.217709
162.260222 54.005800 42.051293
163.158412 52.386406 41.894821
163.884559 50.692102 41.752977
165.305653 49.300392 41.552047
165.336852 47.303495 41.469288
166.346543 45.732651 41.303336
167.361687 44.164182 41.136921
167.515293 42.220583 41.043755
168.402577 40.596441 40.888210
169.417721 39.027972 40.721795
169.693734 37.137671 40.618221
170.458611 35.460231 40.473084
170.484358 33.460959 40.390789
171.499502 31.892490 40.224373
171.898713 30.055832 40.110326
172.540392 28.324749 39.975663
172.566139 26.325477 39.893367
173.377544 24.668297 39.744274
173.607029 22.757736 39.644657
173.632776 20.758464 39.562361
173.658523 18.759192 39.480066
174.673667 17.190723 39.313651
174.699414 15.191451 39.231355
174.725161 13.192179 39.149060
174.750908 11.192908 39.066765
174.776655 9.193636 38.984470
174.802401 7.194364 38.902174
174.828148 5.195092 38.819879
174.853895 3.195820 38.737584
174.661745 1.283017 38.681040
173.905334 -0.405869 38.691182
173.931081 -2.405141 38.608887
173.956828 -4.404413 38.526591
173.347243 -6.151564 38.519381
173.008266 -8.006102 38.480189
173.034013 -10.005374 38.397894
172.059705 -11.607791 38.433787
172.032741 -13.586146 38.357722
171.111143 -15.209480 38.387386
171.136890 -17.208752 38.305090
170.162582 -18.811169 38.340984
170.011093 -20.740108 38.279635
169.214021 -22.412858 38.294582
168.646696 -24.176780 38.282377
167.964497 -25.895116 38.283748
167.282299 -27.613452 38.285119
166.316842 -29.219381 38.319967
165.917902 -31.050124 38.287862
164.528558 -32.487841 38.372805
163.846359 -34.206177 38.374176
163.164161 -35.924513 38.375548
162.445356 -37.628322 38.381245
161.092618 -39.080566 38.461862
160.410420 -40.798902 38.463233
159.021075 -42.236619 38.548176
158.338877 -43.954955 38.549548
156.949533 -45.392672 38.634491
155.599451 -46.845970 38.714794
154.877990 -48.548725 38.720805
154.195791 -50.267061 38.722177
152.806447 -51.704778 38.807120
151.417103 -53.142495 38.892063
150.027758 -54.580212 38.977006
148.753545 -56.063617 39.048343
147.956216 -57.736266 39.063321
146.566871 -59.173983 39.148264
145.177527 -60.611700 39.233207
143.788183 -62.049417 39.318150
142.398838 -63.487134 39.403094
141.009494 -64.924852 39.488037
139.487111 -66.051952 39.598976
137.930359 -67.098807 39.716630
136.541015 -68.536525 39.801573
135.151671 -69.974242 39.886517
133.762326 -71.411959 39.971460
132.083600 -72.174030 40.112948
130.683192 -73.585915 40.200053
129.293847 -75.023632 40.284996
127.604057 -75.759871 40.428646
126.214712 -77.197588 40.513589
124.680088 -78.296108 40.626920
123.135577 -79.371544 40.742183
121.548726 -80.348123 40.865719
119.983044 -81.374131 40.985118
118.366652 -82.281739 41.114426
116.851682 -83.426146 41.223916
115.286000 -84.452153 41.343316
113.597727 -85.191933 41.486669
111.907936 -85.928172 41.630319
110.218145 -86.664411 41.773969
108.828801 -88.102128 41.858912
107.139011 -88.838367 42.002562
105.467017 -89.616158 42.142735
103.759430 -90.310844 42.289862
102.069639 -91.047083 42.433513
100.379848 -91.783322 42.577163
98.779397 -92.728148 42.703356
97.213715 -93.754156 42.822755
95.610923 -94.693516 42.949406
93.657458 -94.814130 43.144577
92.091776 -95.840138 43.263977
90.241105 -96.200754 43.439063
88.551314 -96.936993 43.582713
86.969837 -97.926120 43.705198
85.171733 -98.409470 43.870013
83.413579 -98.986095 44.027021
81.491706 -99.180469 44.216019
79.857322 -100.046070 44.348843
78.112125 -100.652947 44.503319
76.301064 -101.106044 44.670666
74.732544 -102.125424 44.790619
72.744806 -102.166019 44.992488
71.052516 -102.896423 45.136626
69.188548 -103.225994 45.314310
67.372489 -103.667422 45.482633
65.632290 -104.285969 45.636133
63.692462 -104.438422 45.828640
62.076032 -105.345943 45.957955
60.085456 -105.379911 46.160378
58.322644 -105.945659 46.318297
56.529198 -106.439885 46.482201
54.538622 -106.473853 46.684624
52.652380 -106.751419 46.866660
50.982364 -107.533827 47.006446
48.991787 -107.567795 47.208869
47.001211 -107.601762 47.411293
45.292325 -108.293417 47.558674
43.444953 -108.661736 47.733115
41.454376 -108.695704 47.935538
39.463800 -108.729671 48.137961
37.473224 -108.763638 48.340384
35.641587 -109.168697 48.511751
33.916966 -109.823613 48.662207
31.926389 -109.857580 48.864630
29.935813 -109.891547 49.067053
27.945236 -109.925514 49.269476
25.954660 -109.959482 49.471899
23.964083 -109.993449 49.674323
21.973507 -110.027416 49.876746
19.982930 -110.061383 50.079169
17.992354 -110.095351 50.281592
16.001777 -110.129318 50.484015
14.011201 -110.163285 50.686438
12.020624 -110.197252 50.888862
10.030048 -110.231219 51.091285
8.039471 -110.265187 51.293708
6.368335 -109.493996 51.495511
4.457481 -109.327019 51.697779
2.466905 -109.360986 51.900202
0.476328 -109.394953 52.102625
-1.514248 -109.428921 52.305048
-3.300702 -108.948389 52.507075
-5.096239 -108.490753 52.709120
-7.086815 -108.524720 52.911543
-9.077392 -108.558687 53.113966
-10.697230 -107.658197 53.315669
-12.659382 -107.620520 53.518037
-14.649958 -107.654487 53.720460
-16.640535 -107.688454 53.922883
-18.059117 -109.057907 54.013540
-18.741315 -110.776243 54.014911
-20.130660 -112.213960 54.099854
-21.520004 -113.651677 54.184797
-22.610185 -115.208112 54.234385
-23.591547 -116.807731 54.271112
-24.980891 -118.245448 54.356055
-26.370235 -119.683165 54.440998
-27.866692 -120.870797 54.546871
-29.449370 -121.857121 54.669592
-30.131569 -123.575457 54.670963
-31.821359 -124.311695 54.814613
-33.210704 -125.749413 54.899556
-34.900494 -126.485651 55.043206
-36.289838 -127.923369 55.128149
-38.243765 -128.042907 55.323411
-39.809446 -129.068914 55.442810
-41.375127 -130.094922 55.562209
-43.049001 -130.868324 55.702749
-44.738791 -131.604562 55.846399
-46.497066 -132.180904 56.003431
-48.418819 -132.375561 56.192406
-50.053324 -133.240879 56.325254
-51.798400 -133.848039 56.479706
-53.609582 -134.300854 56.647076
-55.600158 -134.334821 56.849499
-57.168218 -135.355277 56.969363
-59.156416 -135.394795 57.171321
-61.146993 -135.428763 57.373745
-63.137569 -135.462730 57.576168
-65.128146 -135.496697 57.778591
-67.118722 -135.530664 57.981014
-69.109299 -135.564632 58.183437
15.374833 -19.866701 68.665327
13.778294 -18.895045 68.860317
11.782452 -18.929424 69.050198
9.956368 -18.536103 69.242252
8.190072 -17.992148 69.435069
6.532291 -17.174789 69.629276
4.597691 -17.054871 69.819941
3.001152 -16.083216 70.014930
1.396175 -15.132818 70.209812
-0.315863 -14.452161 70.403324
-1.788466 -13.168250 70.599899
-3.457591 -12.379473 70.793960
-4.887281 -10.987443 70.991084
-6.316970 -9.595412 71.188207
-7.675600 -8.172450 71.379852
-8.476329 -6.506647 71.528479
-9.700038 -5.613430 71.684338
-10.716061 -4.041339 71.849565
-11.647706 -2.432520 72.008287
-11.758129 -0.466241 72.103687
-12.407024 1.265653 72.240606
-12.800197 3.108857 72.357808
-12.826242 5.111865 72.446702
-12.852287 7.114872 72.535596
-12.527250 8.978734 72.584825
-11.903639 10.724261 72.600323
-11.156796 12.420947 72.601899
-10.471569 14.142054 72.610435
-9.786342 15.863160 72.618972
-8.393485 17.303810 72.547563
-7.571143 18.705138 72.529159
-6.014684 19.764236 72.425606
-4.621827 21.204886 72.354197
-3.228971 22.645535 72.282788
-1.535396 23.384855 72.152295
-0.142540 24.825505 72.080885
1.551035 25.564824 71.950392
3.244609 26.304144 71.819899
4.993347 26.914813 71.678568
6.631759 27.782783 71.558913
8.559749 27.975401 71.382362
10.130310 29.001611 71.276038
12.126152 29.035990 71.086157
14.007494 29.337400 70.918771
15.692554 30.096578 70.789951
17.688395 30.130957 70.600070
19.684236 30.165336 70.410188
21.680078 30.199714 70.220307
23.675919 30.234093 70.030425
25.671760 30.268472 69.840544
27.384526 29.589646 69.647041
29.264141 29.331195 69.455673
31.259982 29.365574 69.265791
32.856521 28.393919 69.070801
34.797378 28.289765 68.880217
36.448902 27.456642 68.685930
38.221455 26.928451 68.493193
39.933494 26.247794 68.299681
41.637822 25.547710 68.106070
43.075222 24.175106 67.909045
44.787260 23.494449 67.715533
46.216950 22.102419 67.518409
47.646639 20.710388 67.321285
49.221217 19.683400 67.126014
50.088347 18.332996 66.984625
51.518037 16.940966 66.787501
52.247706 15.244231 66.644353
52.977375 13.547496 66.501205
53.789620 11.886705 66.351690
54.436713 10.154027 66.214910
54.831688 8.311607 66.097569
54.857733 6.308600 66.008675
54.883779 4.305592 65.919781
54.560563 2.441009 65.870346
53.935130 0.696204 65.855054
53.897738 -1.281662 65.773327
52.986481 -2.913185 65.790327
52.011787 -4.519567 65.814493
50.833709 -5.463194 65.886747
50.054791 -7.147168 65.888795
48.755625 -8.624951 65.949620
47.362769 -10.065600 66.021029
45.969913 -11.506250 66.092438
44.331332 -12.373825 66.212126
42.883482 -13.686219 66.294340
41.190210 -14.426244 66.424774
39.619649 -15.452454 66.531098
38.049088 -16.478663 66.637422
36.109183 -16.643497 66.816313
34.482685 -17.539251 66.933627
32.722034 -18.122136 67.077299
30.916283 -18.599839 67.229833
28.920441 -18.634218 67.419714
27.340591 -19.638764 67.527863
25.354039 -19.694806 67.715920
23.358198 -19.729185 67.905801
21.362357 -19.763564 68.095683
19.366515 -19.797943 68.285564
17.370674 -19.832322 68.475446
-70.249574 -159.920133 98.569641
-71.856735 -158.976945 98.801531
-73.849197 -159.044758 99.001912
-75.841659 -159.112571 99.202293
-77.448820 -158.169384 99.434182
-79.441283 -158.237197 99.634563
-81.381015 -158.166652 99.839256
-83.040906 -157.361822 100.066834
-84.819047 -156.867272 100.284742
-86.640529 -156.486447 100.499105
-88.257078 -155.567893 100.730227
-90.240152 -155.611072 100.931375
-91.847314 -154.667884 101.163265
-93.454475 -153.724696 101.395155
-95.133141 -152.969134 101.621197
-96.852157 -152.319444 101.843939
-98.298724 -150.954869 102.088962
-100.268420 -150.962945 102.291204
-101.736755 -149.655489 102.534447
-103.455771 -149.005799 102.757189
-104.902338 -147.641224 103.002211
-106.621353 -146.991534 103.224954
-108.067920 -145.626959 103.469976
-109.514487 -144.262383 103.714999
-110.961053 -142.897808 103.960021
-112.407620 -141.533233 104.205044
-113.854187 -140.168657 104.450066
-115.300753 -138.804082 104.695088
-116.747320 -137.439506 104.940111
-118.193886 -136.074931 105.185133
-119.640453 -134.710355 105.430155
-120.728553 -133.182910 105.649735
-121.838222 -131.665263 105.870846
-122.801925 -130.081297 106.081596
-124.035991 -128.620172 106.311536
-124.875297 -126.979685 106.513457
-125.538395 -125.259139 106.702872
-126.948668 -123.878073 106.945319
-127.736163 -122.214047 107.143562
-128.487366 -120.533530 107.339230
-129.238568 -118.853014 107.534898
-130.112018 -117.228041 107.739243
-130.740972 -115.491981 107.926234
-131.201995 -113.679621 108.101306
-132.238681 -112.128815 108.317237
-132.299214 -110.134490 108.463884
-133.328659 -108.580395 108.679300
-133.381951 -106.582781 108.825433
-133.857455 -104.777000 109.001533
-134.471929 -103.034360 109.187497
-134.525220 -101.036746 109.333630
-134.720333 -99.103569 109.489828
-135.615198 -97.488326 109.695693
-135.668490 -95.490712 109.841826
-135.721782 -93.493098 109.987959
-135.775074 -91.495484 110.134092
-135.828366 -89.497870 110.280225
-135.881658 -87.500255 110.426358
-135.934949 -85.502641 110.572490
-135.405960 -83.724589 110.643210
-135.036105 -81.886532 110.734539
-135.089397 -79.888918 110.880672
-134.847083 -78.002769 110.988519
-134.190553 -76.272808 111.042720
-134.243845 -74.275194 111.188853
-133.577260 -72.549026 111.241752
-133.345001 -70.659085 111.350902
-132.392865 -69.040590 111.366817
-132.307438 -67.095283 111.494984
-131.494021 -65.424480 111.528866
-130.986927 -63.638172 111.602421
-130.326671 -61.909617 111.656139
-129.643041 -60.189876 111.706830
-129.696333 -58.192262 111.852963
-131.122583 -56.818455 112.096543
-131.873785 -55.137939 112.292211
-132.806390 -53.539844 112.500754
-133.843076 -51.989038 112.716685
-134.822756 -50.412331 112.928569
-135.573958 -48.731814 113.124237
-136.325160 -47.051298 113.319905
-137.076362 -45.370781 113.515573
-138.043111 -43.788199 113.726540
-139.079797 -42.237393 113.942471
-139.329968 -40.329232 114.102577
-140.169775 -38.688973 114.304534
-140.832372 -36.968199 114.493913
-141.259753 -35.140553 114.666597
-142.296439 -33.589747 114.882528
-142.390614 -31.610708 115.031563
-143.386416 -30.041327 115.244591
-143.439708 -28.043713 115.390724
-144.476394 -26.492907 115.606655
-144.529686 -24.495292 115.752788
-144.755896 -22.576244 115.911194
-145.619664 -20.946872 116.114851
-145.672955 -18.949258 116.260984
-145.726247 -16.951644 116.407117
-145.779539 -14.954030 116.553250
-146.816225 -13.403224 116.769180
-146.869517 -11.405610 116.915313
-146.922809 -9.407996 117.061446
-146.976101 -7.410381 117.207579
-147.029393 -5.412767 117.353712
-147.082685 -3.415153 117.499845
-147.135976 -1.417539 117.645978
-147.189268 0.580075 117.792111
-146.909954 2.452273 117.895166
-146.290424 4.196184 117.954159
-146.343716 6.193799 118.100292
-146.397008 8.191413 118.246425
-146.401766 10.170726 118.386272
-145.498164 11.807522 118.408473
-145.551456 13.805136 118.554606
-145.131943 15.624469 118.639504
-144.652612 17.421246 118.716655
-144.522377 19.349657 118.839018
-143.753768 21.037355 118.878703
-143.201866 22.806767 118.946455
-142.854924 24.653464 119.040752
-142.592299 26.531955 119.145969
-141.932043 28.260510 119.199687
-141.003943 29.888069 119.218716
-140.051807 31.506564 119.234631
-139.951276 33.446176 119.360842
-139.152963 35.122673 119.396680
-138.200827 36.741168 119.412595
-137.259564 38.363764 119.429919
-136.599309 40.092319 119.483637
-135.939053 41.820874 119.537356
-135.278797 43.549429 119.591074
-134.445575 45.212763 119.622391
-133.247341 46.738462 119.606433
-132.541304 48.449754 119.654222
-131.215885 49.927495 119.621792
-130.555629 51.656050 119.675510
-129.184429 53.116527 119.637151
-128.524173 54.845082 119.690869
-127.152973 56.305560 119.652510
-126.492717 58.034115 119.706228
-125.121516 59.494593 119.667869
-123.750316 60.955070 119.629510
-122.966652 62.637092 119.667245
-121.718860 64.144103 119.644869
-120.347659 65.604581 119.606509
-118.976459 67.065058 119.568150
-117.605258 68.525536 119.529791
-116.234058 69.986013 119.491431
-114.862857 71.446491 119.453072
-113.491656 72.906969 119.414713
-112.120456 74.367446 119.376354
-110.473670 75.210153 119.266123
-109.067992 76.593341 119.218772
-107.696791 78.053819 119.180413
-106.250267 79.345445 119.122410
-104.644327 80.279714 119.022831
-103.273126 81.740192 118.984472
-101.901926 83.200669 118.946113
-100.220662 83.966087 118.826891
-98.849461 85.426564 118.788531
-97.168197 86.191982 118.669309
-95.796997 87.652460 118.630950
-94.257030 88.734619 118.548577
-92.744532 89.878355 118.473369
-91.373332 91.338832 118.435009
-89.692068 92.104250 118.315787
-88.041164 92.937724 118.204483
-86.639604 94.330145 118.158206
-84.958340 95.095563 118.038984
-83.379264 96.090053 117.946412
-81.905876 97.321458 117.881402
-80.271331 98.191606 117.774364
-78.543348 98.852293 117.642958
-76.862084 99.617711 117.523736
-75.180820 100.383128 117.404513
-73.616969 101.411748 117.315912
-72.063003 102.462524 117.229888
-70.447092 103.374441 117.127710
-68.765828 104.139859 117.008488
-67.084564 104.905276 116.889266
-65.408641 105.682666 116.771436
-63.722037 106.436111 116.650821
-62.040773 107.201529 116.531599
-60.308246 107.852032 116.399008
-58.678245 108.732364 116.293155
-56.996981 109.497782 116.173933
-55.207850 110.021397 116.026579
-53.634454 111.028617 115.935488
-51.661422 111.139987 115.740174
-50.107455 112.190763 115.654151
-48.114993 112.258576 115.453770
-46.561026 113.309352 115.367746
-44.608008 113.465585 115.177652
-43.014598 114.427942 115.081341
-41.245480 114.996420 114.939207
-39.468169 115.546531 114.794936
-37.572889 115.832196 114.619900
-35.921740 116.665120 114.508532
-33.929278 116.732933 114.308151
-32.375311 117.783710 114.222127
-30.382849 117.851523 114.021746
-28.828882 118.902299 113.935722
-26.836420 118.970112 113.735341
-24.843958 119.037925 113.534960
-23.192588 119.870356 113.423534
-21.297529 120.156515 113.248555
-19.305067 120.224328 113.048174
-17.528670 120.776489 112.904142
-15.758638 121.342917 112.761769
-13.766176 121.410730 112.561388
-11.773713 121.478543 112.361007
-9.873425 121.752980 112.184664
-8.227285 122.597133 112.074602
-6.234822 122.664946 111.874221
-4.242360 122.732759 111.673840
-2.249898 122.800572 111.473459
-0.257436 122.868385 111.273078
1.296531 123.919161 111.187054
3.288993 123.986974 110.986673
5.281456 124.054787 110.786292
7.273918 124.122600 110.585911
9.266380 124.190413 110.385530
11.258842 124.258226 110.185149
13.251305 124.326040 109.984768
15.243767 124.393853 109.784387
17.236229 124.461666 109.584005
19.228691 124.529479 109.383624
21.221154 124.597292 109.183243
23.213616 124.665105 108.982862
25.206078 124.732918 108.782481
27.198541 124.800731 108.582100
29.043318 124.481029 108.369642
30.798164 123.925356 108.149829
32.790626 123.993169 107.949448
34.783088 124.060982 107.749067
36.775551 124.128795 107.548686
38.728193 124.092123 107.345049
40.375174 123.253420 107.116415
42.367636 123.321233 106.916034
44.360098 123.389047 106.715653
46.352561 123.456860 106.515272
47.959722 122.513672 106.283383
49.952184 122.581485 106.083002
51.944646 122.649298 105.882620
53.570115 121.754148 105.652228
55.544270 121.773923 105.450350
57.536732 121.841736 105.249969
59.272061 121.234850 105.028560
61.136355 120.966361 104.817698
62.982541 120.650356 104.605355
64.735979 120.090986 104.385427
66.693022 120.065862 104.182150
68.335602 119.215611 103.953157
70.328064 119.283424 103.752776
71.935225 118.340236 103.520886
73.927687 118.408049 103.320505
75.560550 117.532299 103.090717
77.527311 117.532675 102.888234
79.134472 116.589487 102.656345
80.990046 116.298116 102.444769
82.734095 115.714112 102.224074
84.428077 114.998736 101.999284
86.333718 114.838737 101.791803
87.940879 113.895549 101.559914
89.585125 113.049667 101.331057
91.540503 113.020174 101.127643
93.147664 112.076986 100.895754
94.754825 111.133798 100.663864
96.733637 111.165793 100.462367
98.354448 110.258423 100.231593
99.961609 109.315235 99.999704
101.618235 108.501838 99.771859
103.337251 107.852149 99.549117
105.056266 107.202459 99.326374
106.775555 106.553484 99.103654
108.494298 105.903079 98.880889
109.989877 104.667108 98.639875
111.659880 103.888814 98.413124
113.378896 103.239125 98.190382
115.097912 102.589435 97.967639
116.544478 101.224859 97.722617
118.263494 100.575170 97.499874
119.982510 99.925480 97.277132
121.625305 99.075794 97.048156
123.148092 97.911215 96.809367
124.839627 97.189418 96.584377
126.313675 95.896950 96.341602
128.032690 95.247260 96.118859
129.479257 93.882684 95.873837
131.198273 93.232995 95.651095
132.644839 91.868419 95.406072
134.091406 90.503844 95.161050
135.537973 89.139268 94.916027
136.984539 87.774693 94.671005
138.533474 86.678724 94.434354
140.150122 85.760428 94.203240
141.596688 84.395852 93.958218
143.043255 83.031277 93.713195
144.489821 81.666701 93.468173
145.936388 80.302126 93.223151
147.655404 79.652436 93.000408
149.101970 78.287861 92.755386
150.548537 76.923285 92.510363
151.995104 75.558710 92.265341
153.441670 74.194135 92.020319
154.888237 72.829559 91.775296
155.639439 71.149043 91.579628
157.086006 69.784467 91.334606
158.532572 68.419892 91.089583
159.589325 66.878203 90.872229
160.730341 65.374800 90.648893
161.662696 63.776591 90.440367
162.928110 62.329708 90.208203
163.736068 60.674979 90.008506
165.125879 59.284616 89.767512
165.877081 57.604100 89.571844
167.323647 56.239524 89.326822
168.074849 54.559008 89.131154
168.919497 52.920949 88.928854
169.956183 51.370143 88.712923
170.992869 49.819337 88.496992
171.775022 48.152883 88.299128
172.526224 46.472366 88.103460
173.277427 44.791850 87.907792
174.156218 43.169304 87.703068
174.779831 41.430817 87.516456
175.531033 39.750301 87.320788
176.282882 38.070078 87.125074
177.319568 36.519272 86.909143
177.372860 34.521658 86.763010
178.409545 32.970852 86.547080
178.591679 31.031777 86.391802
179.499523 29.422432 86.185016
179.552815 27.424818 86.038884
180.589501 25.874012 85.822953
180.642793 23.876397 85.676820
180.956960 21.997313 85.512171
181.732770 20.327977 85.314757
181.786062 18.330363 85.168624
181.839354 16.332749 85.022491
181.892646 14.335135 84.876358
182.929332 12.784329 84.660428
182.982624 10.786715 84.514295
183.035916 8.789100 84.368162
183.089208 6.791486 84.222029
183.142499 4.793872 84.075896
183.195791 2.796258 83.929763
183.249083 0.798644 83.783630
183.302375 -1.198970 83.637497
182.933132 -3.037258 83.546089
182.403531 -4.815080 83.475449
182.456823 -6.812694 83.329316
182.510115 -8.810308 83.183183
182.424944 -10.755711 83.054983
181.611271 -12.426417 83.021135
181.664563 -14.424031 82.875002
181.155122 -16.209455 82.801751
180.765718 -18.040141 82.712953
180.545555 -19.934642 82.602237
179.866874 -21.656250 82.550905
179.225044 -23.391753 82.494800
178.968030 -25.272359 82.388856
178.015894 -26.890854 82.372941
177.955222 -28.845496 82.241568
177.117050 -30.506964 82.210892
176.634710 -32.302606 82.134131
175.974455 -34.031161 82.080413
175.266070 -35.741568 82.032928
174.313934 -37.360064 82.017013
173.361798 -38.978559 82.001097
172.622487 -40.677304 81.957618
171.962231 -42.405859 81.903899
171.301976 -44.134415 81.850181
170.558682 -45.831658 81.807217
169.270520 -47.323447 81.834822
168.610264 -49.052002 81.781104
167.239063 -50.512480 81.819463
165.867863 -51.972958 81.857822
165.207607 -53.701513 81.804104
163.840439 -55.163511 81.841941
163.176151 -56.890545 81.788745
162.515895 -58.619101 81.735027
161.144695 -60.079578 81.773386
159.773494 -61.540056 81.811745
158.402294 -63.000533 81.850105
157.742038 -64.729089 81.796386
156.370837 -66.189566 81.834746
154.999637 -67.650044 81.873105
153.628436 -69.110521 81.911464
152.257236 -70.570999 81.949823
150.681032 -71.571927 82.041646
149.204771 -72.796894 82.107405
147.833571 -74.257372 82.145764
146.462370 -75.717849 82.184123
145.091170 -77.178327 82.222483
143.719969 -78.638804 82.260842
142.038706 -79.404222 82.380064
140.667505 -80.864700 82.418423
139.296304 -82.325177 82.456783
137.925104 -83.785655 82.495142
136.553903 -85.246132 82.533501
134.902888 -86.079356 82.644835
133.501439 -87.472027 82.691083
131.820175 -88.237445 82.810305
130.448975 -89.697923 82.848664
128.767711 -90.463340 82.967886
127.396510 -91.923818 83.006246
125.715246 -92.689235 83.125468
124.033983 -93.454653 83.244690
122.471155 -94.485567 83.333024
120.981518 -95.680548 83.402271
119.363222 -96.587119 83.505072
117.809256 -97.637896 83.591096
116.247790 -98.671861 83.679075
114.566526 -99.437279 83.798297
112.885262 -100.202696 83.917519
111.203998 -100.968114 84.036741
109.600927 -101.908814 84.135571
108.046961 -102.959590 84.221595
106.470270 -103.959427 84.313545
104.789006 -104.724844 84.432767
103.107743 -105.490262 84.551989
101.392599 -106.179732 84.680047
99.745215 -107.021097 84.790434
98.063951 -107.786515 84.909656
96.292204 -108.349098 85.052476
94.701423 -109.317350 85.148100
93.020160 -110.082767 85.267322
91.191808 -110.518463 85.424904
89.637842 -111.569240 85.510928
87.666305 -111.683960 85.705852
86.091413 -112.687829 85.797333
84.303777 -113.214795 85.944296
82.544984 -113.806419 86.083737
80.941249 -114.745631 86.182740
78.998555 -114.925008 86.370142
77.268658 -115.581406 86.502048
75.452127 -116.043597 86.656547
73.596067 -116.417181 86.821355
71.905698 -117.162187 86.942952
69.923476 -117.252956 87.140662
68.359269 -118.280776 87.229357
66.366807 -118.348589 87.429738
64.812840 -119.399365 87.515761
62.820378 -119.467178 87.716142
60.827916 -119.534992 87.916524
59.215767 -120.455342 88.017721
57.281487 -120.653581 88.202928
55.289025 -120.721394 88.403309
53.551849 -121.361475 88.537113
51.742596 -121.839983 88.689714
49.750134 -121.907796 88.890095
47.757671 -121.975609 89.090476
45.896603 -122.337965 89.256591
44.211242 -123.094199 89.376881
42.218780 -123.162012 89.577262
40.226318 -123.229825 89.777643
38.233856 -123.297638 89.978024
36.250031 -123.384813 90.176153
34.687427 -124.416227 90.264429
32.694965 -124.484040 90.464810
30.702502 -124.551854 90.665191
28.710040 -124.619667 90.865572
26.717578 -124.687480 91.065954
24.725116 -124.755293 91.266335
22.732653 -124.823106 91.466716
20.740191 -124.890919 91.667097
18.747729 -124.958732 91.867478
16.755266 -125.026545 92.067859
14.762804 -125.094358 92.268240
12.770342 -125.162171 92.468621
10.777880 -125.229984 92.669002
8.785417 -125.297797 92.869383
6.975103 -124.887668 93.084660
5.185794 -124.422422 93.301654
3.193332 -124.490235 93.502035
1.200870 -124.558048 93.702416
-0.791593 -124.625862 93.902797
-2.784055 -124.693675 94.103178
-4.690844 -124.953539 94.281216
-5.446539 -126.646107 94.239859
-6.722300 -128.142572 94.265857
-7.382556 -129.871127 94.212139
-8.753756 -131.331605 94.250498
-10.124957 -132.792082 94.288858
-11.496157 -134.252560 94.327217
-12.867358 -135.713037 94.365576
-14.122347 -137.217335 94.388884
-14.898814 -138.902070 94.350217
-16.376167 -140.124590 94.416260
-17.951279 -141.127965 94.507799
-19.322479 -142.588443 94.546158
-20.693680 -144.048920 94.584517
-22.374943 -144.814338 94.703739
-23.746144 -146.274816 94.742099
-25.261470 -147.412211 94.818045
-26.815437 -148.462987 94.904069
-28.479872 -149.266128 95.018902
-30.161136 -150.031546 95.138124
-31.842400 -150.796963 95.257347
-33.469798 -151.683129 95.362521
-35.023765 -152.733906 95.448545
-36.886191 -153.093216 95.615013
-38.567455 -153.858634 95.734235
-40.124160 -154.903271 95.820973
-41.929983 -155.389469 95.972680
-43.670589 -156.021861 96.107378
-45.292511 -156.920304 96.211124
-47.217018 -157.140450 96.393783
-49.209480 -157.208263 96.594164
-50.763447 -158.259039 96.680187
-52.755909 -158.326853 96.880569
-54.748371 -158.394666 97.080950
-56.310284 -159.427630 97.169046
-58.294800 -159.513255 97.367354
-60.287262 -159.581068 97.567736
-62.279725 -159.648881 97.768117
-64.272187 -159.716694 97.968498
-66.264649 -159.784507 98.168879
-68.257111 -159.852320 98.369260
1.545205 -30.339242 136.726617
-0.066849 -29.423508 137.032863
-2.050292 -29.524021 137.309393
-3.875845 -29.192493 137.598555
-5.645789 -28.708801 137.892168
-7.314804 -27.948930 138.193856
-9.241287 -27.893580 138.474943
-10.853340 -26.977846 138.781189
-12.473242 -26.083586 139.086807
-14.192721 -25.461804 139.384458
-15.689502 -24.230644 139.699927
-17.369067 -23.499646 140.000771
-18.825935 -22.159268 140.319435
-20.282802 -20.818891 140.638098
-21.669806 -19.445318 140.949444
-22.508313 -17.811121 141.203343
-23.747692 -16.961215 141.450709
-24.797864 -15.427592 141.726777
-25.765080 -13.854552 141.994156
-25.924914 -11.897877 142.176974
-26.614146 -10.192749 142.415238
-27.051965 -8.368161 142.627170
-27.128843 -6.372068 142.801299
-27.205720 -4.375975 142.975428
-26.930001 -2.506955 143.088555
-26.354420 -0.746003 143.149805
-25.655075 0.970345 143.189643
-25.017612 2.708994 143.240187
-24.380149 4.447644 143.290730
-23.032003 5.930169 143.218322
-22.250077 7.354557 143.222450
-20.729562 8.462112 143.094660
-19.381416 9.944637 143.022251
-18.033271 11.427162 142.949843
-16.368292 12.220456 142.775637
-15.020147 13.702981 142.703229
-13.355168 14.496274 142.529022
-11.690189 15.289568 142.354815
-9.967091 15.956431 142.161935
-8.360231 16.876155 142.006402
-6.448274 17.132179 141.752841
-4.912901 18.207413 141.620277
-2.929458 18.307926 141.343748
-1.066649 18.670865 141.105978
0.589359 19.483674 140.934654
2.572802 19.584188 140.658125
4.556246 19.684702 140.381596
6.539689 19.785215 140.105066
8.523132 19.885729 139.828537
10.506576 19.986243 139.552008
12.226731 19.366311 139.254412
14.102073 19.171022 138.969233
16.085516 19.271536 138.692703
17.697570 18.355802 138.386457
19.629873 18.316376 138.105836
21.293067 17.540581 137.803682
23.068831 17.072814 137.510535
24.788310 16.451032 137.212885
26.500618 15.809627 136.914661
27.964657 14.488873 136.596571
29.684136 13.867092 136.298921
31.141003 12.526715 135.980258
32.597871 11.186338 135.661594
34.189497 10.214709 135.353714
35.085994 8.897163 135.117362
36.542861 7.556786 134.798699
37.311505 5.889392 134.552117
38.080149 4.221999 134.305536
38.929978 2.593181 134.050451
39.617437 0.887212 133.812373
40.057028 -0.936535 133.600255
40.133906 -2.932628 133.426126
40.210784 -4.928721 133.251997
39.936894 -6.798400 133.138553
39.359483 -8.558692 133.077620
39.372650 -10.531824 132.914514
38.508182 -12.188663 132.903243
37.580004 -13.822541 132.902995
36.432745 -14.802417 132.987633
35.701187 -16.507156 132.953368
34.447137 -18.023592 133.009497
33.098991 -19.506117 133.081905
31.750846 -20.988642 133.154313
30.143808 -21.907979 133.309903
28.737722 -23.264460 133.400928
27.073062 -24.058448 133.575032
25.537688 -25.133682 133.707597
24.002315 -26.208916 133.840161
22.077806 -26.437634 134.097755
20.483499 -27.384664 134.249255
18.747849 -28.024221 134.446168
16.964682 -28.560412 134.658348
14.981238 -28.660925 134.934877
13.436079 -29.714870 135.070586
11.462422 -29.836673 135.343971
9.478978 -29.937187 135.620500
7.495535 -30.037701 135.897030
5.512092 -30.138214 136.173559
3.528648 -30.238728 136.450088
